<?xml version="1.0" encoding="UTF-8"?> <svg xmlns="http://www.w3.org/2000/svg" width="60" height="60" viewBox="0 0 60 60" fill="none"><g clip-path="url(#clip0)"><path d="M59.371 37.0687C58.9897 36.9172 58.5544 37.012 58.271 37.3086L54.0001 41.7979V15.1327H54.0051L58.0801 10.7327C58.455 10.3276 58.4303 9.69447 58.0247 9.31956C58.0247 9.31956 58.0243 9.3191 58.0238 9.31864L56.5572 7.95359L58.5951 5.75358C58.9696 5.348 58.9444 4.71537 58.5388 4.34092L54.1388 0.265909C53.7337 -0.109 53.101 -0.0847381 52.7261 0.32084L45.6161 7.99799H11.0001C10.9969 5.23768 8.76022 3.00105 5.99991 2.99784H5.00015C2.23984 3.00105 0.00320435 5.23768 0 7.99799V50.998C0 51.5501 0.447693 51.9978 1.00021 51.9978H16.138L14.0378 54.5196C13.6848 54.9444 13.7425 55.5747 14.1669 55.9277L18.7779 59.7669C19.2023 60.1203 19.8331 60.0627 20.1865 59.6383L20.1869 59.6379L25.3052 53.4887C25.6586 53.063 25.8861 52.5462 25.9612 51.9978H44.285L38.275 58.309C37.8946 58.7091 37.9106 59.3421 38.3107 59.7225C38.4966 59.8992 38.7433 59.9981 39.0001 59.9977H58.9998C59.5523 59.9977 60 59.55 60 58.9979V37.998C60 37.5888 59.751 37.2207 59.371 37.0687V37.0687ZM55.9332 10.0978L54.0001 12.1888V10.718L55.1999 9.41798L55.9332 10.0978ZM52.0001 9.91969V9.93388L43.5429 19.074L40.6059 16.3568L50.7939 5.34663L53.7309 8.06391L52.012 9.91969H52.0001ZM41.6222 20.0198L39.3219 20.6909L39.8131 18.3448L41.6222 20.0198ZM53.5112 2.41099L56.4468 5.1269L55.0882 6.5977L52.1521 3.87904L53.5112 2.41099ZM5.00015 4.99781H5.99991C7.65701 4.99781 9.00009 6.34089 9.00009 7.99799V46.024C8.1395 45.362 7.08527 45.0013 5.99991 44.9977H5.00015C3.91434 45.0013 2.86057 45.362 1.99997 46.024V7.99799C1.99997 6.34089 3.34305 4.99781 5.00015 4.99781ZM5.00015 46.9976H5.99991C7.65701 46.9976 9.00009 48.3412 9.00009 49.9978H1.99997C1.99997 48.3412 3.34305 46.9976 5.00015 46.9976ZM23.7689 52.2097L23.129 52.9779L20.0551 50.419L20.6941 49.6499C21.0475 49.2256 21.6779 49.1679 22.1022 49.5213C22.1027 49.5213 22.1027 49.5217 22.1031 49.5217L23.6398 50.798C24.0646 51.1509 24.1228 51.7813 23.7698 52.2061C23.7694 52.2065 23.7694 52.2065 23.7689 52.207V52.2097ZM19.2902 57.5898L16.2158 55.0309L18.7752 51.9557L21.8491 54.515L19.2902 57.5898ZM25.5409 49.9978C25.3748 49.7209 25.1646 49.4732 24.9188 49.264L23.3821 47.985C22.1086 46.9248 20.2171 47.0974 19.157 48.3709L17.8001 49.9978H11.0001V9.99796H43.7659L38.459 15.7328C38.383 15.8184 38.3226 15.9173 38.2809 16.024C38.269 16.0528 38.2599 16.0798 38.2498 16.11C38.2402 16.1398 38.2251 16.17 38.2178 16.202L37.0239 21.9099C36.9113 22.4505 37.2583 22.9801 37.7989 23.0928C37.9596 23.1262 38.1258 23.1198 38.2828 23.074L43.8831 21.4421C43.9091 21.4338 43.9311 21.4187 43.9558 21.41C43.981 21.4009 44.0071 21.388 44.0341 21.3748C44.1463 21.324 44.2479 21.2521 44.334 21.1637L52.0001 12.8787V43.8977L46.1902 49.9978H25.5409ZM58 57.9977H41.3329L58 40.4978V57.9977Z" fill="#4EB8F4"></path><path d="M47.0761 55.3807C47.2308 55.7543 47.5957 55.9978 48.0003 55.9978H55C55.5525 55.9978 56.0002 55.5501 56.0002 54.998V47.9979C56.0002 47.4454 55.552 46.9982 55 46.9982C54.7349 46.9982 54.4804 47.1035 54.2932 47.2911L47.2931 54.2908C47.007 54.5769 46.9214 55.0072 47.0761 55.3807V55.3807ZM54.0002 50.4117V53.9978H50.4141L54.0002 50.4117Z" fill="#4EB8F4"></path><path d="M43.9998 37.9981H37.0001V26.998C36.9987 26.7325 36.893 26.478 36.7058 26.2898L30.7059 20.2899C30.3154 19.8995 29.6823 19.8995 29.2918 20.2899L23.2919 26.2898C23.1056 26.4784 23.0008 26.7329 22.9999 26.998V37.9981H16.0002C15.4477 37.9981 15 38.4457 15 38.9978C15 39.5503 15.4477 39.998 16.0002 39.998H44.0002C44.5523 39.998 45 39.5503 45 38.9978C45 38.4457 44.5523 37.9981 43.9998 37.9981V37.9981ZM30 22.4117L33.5861 25.9978H26.4139L30 22.4117ZM24.9998 27.9977H35.0002V37.9981H24.9998V27.9977Z" fill="#FF9800"></path><path d="M28.9998 15.9979H31.0002V17.9979H28.9998V15.9979Z" fill="#4EB8F4"></path><path d="M28.9998 41.998H31.0002V43.998H28.9998V41.998Z" fill="#4EB8F4"></path></g><defs><clipPath id="clip0"><rect width="60" height="60" fill="white"></rect></clipPath></defs></svg> 