<?xml version="1.0" encoding="UTF-8"?> <svg xmlns="http://www.w3.org/2000/svg" width="60" height="60" viewBox="0 0 60 60" fill="none"><g clip-path="url(#clip0)"><path d="M5.00117 34.9996C5.55323 34.9996 6.00091 34.5519 6.00091 33.9994V11.9996C6.00091 11.4476 5.55323 10.9999 5.00117 10.9999C4.44866 10.9999 4.00098 11.4476 4.00098 11.9996V33.9994C4.00098 34.5519 4.44866 34.9996 5.00117 34.9996Z" fill="#4EB8F4"></path><path d="M5.00119 9C5.55325 9 6.00095 8.55231 6.00095 7.99979V5.99982C6.00095 5.44775 5.55325 5.00006 5.00119 5.00006C4.44867 5.00006 4.00098 5.44775 4.00098 5.99982V7.99979C4.00098 8.55231 4.44867 9 5.00119 9Z" fill="#4EB8F4"></path><path d="M30.0006 19.9998C27.7915 19.9998 26.0007 21.7906 26.0007 23.9997C26.0007 26.2088 27.7915 27.9996 30.0006 27.9996C32.2097 27.9996 34.0005 26.2088 34.0005 23.9997C33.9982 21.7915 32.2088 20.0021 30.0006 19.9998ZM30.0006 25.9996C28.896 25.9996 28.0007 25.1043 28.0007 23.9997C28.0007 22.8951 28.896 21.9998 30.0006 21.9998C31.1052 21.9998 32.0005 22.8951 32.0005 23.9997C31.9996 25.1038 31.1047 25.9987 30.0006 25.9996V25.9996Z" fill="#FF9800"></path><path d="M41.0158 19.9962H41.003L39.1651 19.9952C38.8653 19.3132 38.4917 18.6659 38.0505 18.0653L38.9747 16.4618C39.5103 15.5033 39.1784 14.2921 38.229 13.7405L34.7761 11.7497C34.3207 11.4801 33.7759 11.4045 33.2642 11.54C32.7492 11.6751 32.3088 12.0092 32.0397 12.4688L31.1141 14.0655C30.3734 13.9822 29.625 13.9826 28.8844 14.0673L27.9647 12.4734C27.4113 11.5181 26.1891 11.1908 25.2324 11.7414L21.769 13.7414C20.8137 14.2943 20.4859 15.5166 21.0361 16.4733L21.9567 18.0667C21.5136 18.6664 21.1391 19.3141 20.8407 19.9971L18.9932 19.9998C18.4612 20.0035 17.9522 20.2182 17.5778 20.5963C17.2065 20.9684 16.9996 21.4738 17.0038 21.9998L17.0015 25.9923C17.0038 27.0964 17.8936 27.9927 18.9977 28.0028L20.8361 28.0041C20.9858 28.3452 21.1542 28.6775 21.3405 29.0002C21.5264 29.3225 21.7301 29.6342 21.9503 29.934L21.0251 31.5385C20.4905 32.4975 20.8233 33.7073 21.7722 34.2585L25.2237 36.2483C25.6791 36.5184 26.2243 36.5944 26.7366 36.4589C27.2515 36.3239 27.6924 35.9897 27.9615 35.5301L28.8866 33.933C29.6278 34.0168 30.3757 34.0163 31.1168 33.9316L32.036 35.5255C32.3006 35.9856 32.7382 36.3206 33.2509 36.4561C33.4212 36.5019 33.597 36.5253 33.7732 36.5253C34.1229 36.5253 34.4662 36.4328 34.7684 36.2575L38.2317 34.2575C39.1871 33.7041 39.5148 32.4824 38.9646 31.5257L38.045 29.9322C38.4876 29.3325 38.8621 28.6853 39.1601 28.0018L41.0076 27.9996C41.5399 27.9959 42.049 27.7812 42.423 27.4026C42.7942 27.0305 43.0011 26.5251 42.9974 25.9996L42.9993 22.0071C42.9984 20.9075 42.1153 20.0122 41.0158 19.9962V19.9962ZM38.4762 26.0028C38.0509 26.0037 37.6724 26.2738 37.5332 26.6757C37.2087 27.5977 36.7156 28.4514 36.0789 29.1925C35.8029 29.5147 35.7603 29.9757 35.9723 30.3433L37.232 32.5254L33.7682 34.5258L32.5084 32.3432C32.3294 32.0338 31.9994 31.8433 31.6423 31.8433C31.5805 31.8433 31.5192 31.8488 31.4583 31.8603C30.4975 32.0402 29.5119 32.0406 28.5507 31.8612C28.1332 31.7802 27.7098 31.9733 27.4974 32.3418L26.2326 34.5221L22.7637 32.5254L24.0221 30.3442C24.2345 29.9762 24.191 29.5143 23.914 29.1925C23.2805 28.4482 22.788 27.5949 22.4607 26.6739C22.3201 26.2734 21.942 26.0047 21.5172 26.0047L19.0023 25.9973L18.9977 21.9998L21.5246 21.9961C21.9503 21.9956 22.3288 21.7256 22.468 21.3232C22.7921 20.4013 23.2851 19.548 23.9218 18.8069C24.1978 18.4846 24.2409 18.0232 24.0289 17.6561L22.7687 15.474L26.2326 13.4736L27.4928 15.6562C27.7038 16.0242 28.1254 16.2183 28.5424 16.1391C29.5032 15.9578 30.4893 15.9574 31.4501 16.1377C31.868 16.2183 32.2905 16.0256 32.5038 15.6575L33.7686 13.4763L37.2366 15.474L35.9782 17.6552C35.7663 18.0228 35.8093 18.4846 36.0862 18.8069C36.7202 19.5508 37.2132 20.4045 37.541 21.3255C37.6815 21.726 38.0596 21.9943 38.4844 21.9947L40.9993 21.9961L41.003 25.9996L38.4762 26.0028Z" fill="#FF9800"></path><path d="M59.9963 10.7823C59.8874 7.55189 57.2328 4.99121 54.0002 4.9999H14.001V1.99977C13.9996 0.895665 13.1052 0.000752461 12.0011 -0.000163051H6.0008C4.40827 -0.00428285 2.87982 0.626505 1.75374 1.75258C0.627664 2.87866 -0.00312319 4.40711 0.000996617 5.99964V49.0026C0.115893 52.2334 2.69123 54.8349 5.92115 54.9823C5.94862 54.9846 5.97288 54.9988 6.0008 54.9988H6.6911L8.17102 58.2429C8.24564 58.4035 8.3349 58.5573 8.43652 58.702C8.46856 58.7487 8.50427 58.7913 8.5386 58.8361C8.61322 58.9318 8.69332 59.0233 8.77938 59.1094C8.82149 59.152 8.86178 59.1945 8.90664 59.2344C9.02977 59.3451 9.16161 59.4463 9.30168 59.5356C9.33235 59.5553 9.36668 59.569 9.39872 59.5873C9.51911 59.6573 9.64454 59.7187 9.77363 59.7709C9.80018 59.7818 9.82352 59.7983 9.85007 59.8084C9.88349 59.8208 9.91782 59.8253 9.95124 59.8363C10.0483 59.8684 10.1467 59.8954 10.2465 59.9173C10.3083 59.9315 10.3687 59.9476 10.4305 59.9576C10.5578 59.9773 10.6855 59.9887 10.8141 59.992C10.8434 59.9929 10.8727 59.9997 10.902 59.9997C11.3309 59.9993 11.7548 59.9068 12.1448 59.7278L22.513 54.9988H46.0004V57.9989C46.0013 59.103 46.8963 59.9979 48.0004 59.9988H54.0002C57.3125 59.9952 59.9963 57.3109 60 53.999V10.9997C60 10.9878 59.9936 10.9782 59.9931 10.9663C59.9931 10.905 59.9981 10.8441 59.9963 10.7823V10.7823ZM3.16409 3.17071C3.91756 2.41999 4.93744 1.99886 6.0008 1.99977H12.0011V42.9991H6.0008C4.52454 42.9996 3.10046 43.5448 2.00093 44.5299V5.99964C1.99956 4.93994 2.41749 3.9228 3.16409 3.17071V3.17071ZM36.6036 45.8807L34.486 41.2382L40.8878 40.8161L41.0901 41.3521L36.6036 45.8807ZM32.4806 41.6602L33.3105 43.4802L26.9418 46.3852C26.6113 46.5298 26.3842 46.8415 26.3481 47.2004C26.3119 47.5593 26.4721 47.9099 26.7669 48.1182C27.0617 48.326 27.4457 48.359 27.7717 48.2043L34.1404 45.2989L34.9703 47.1189L21.9106 53.0757L21.8923 53.084L16.7741 55.419L15.9437 53.5989L23.223 50.2788C23.7164 50.0449 23.9311 49.4576 23.7041 48.9605C23.4775 48.4634 22.8934 48.2404 22.393 48.4597L15.1143 51.7794L14.2844 49.9598L32.4806 41.6602ZM11.3153 57.9082C10.8132 58.1371 10.2204 57.916 9.99106 57.4139L8.33078 53.7743C8.10236 53.2716 8.323 52.6788 8.82516 52.4491L12.4652 50.7888L13.7094 53.5175V53.5184L13.7103 53.5197L14.9545 56.248L11.3153 57.9082ZM26.8978 52.9988L36.7103 48.5233C36.7606 48.4936 36.8082 48.4593 36.8517 48.4208C36.9062 48.3915 36.9579 48.3567 37.006 48.3173L42.4826 42.7881C43.1138 42.2022 43.2978 41.2775 42.9399 40.4943L42.7082 39.9871C42.3608 39.214 41.5607 38.7466 40.7166 38.8235L32.91 39.3375C32.802 39.3467 32.6958 39.3737 32.596 39.4177C32.5845 39.4222 32.5722 39.4209 32.5612 39.4259L7.99524 50.6299C7.04723 51.0653 6.39493 51.9629 6.27317 52.9988H6.24112C3.98027 53.0272 2.10438 51.2575 2.00093 48.9989V48.8534C2.07372 46.6987 3.84523 44.9918 6.0008 44.9991H12.0011C13.1052 44.9982 13.9996 44.1032 14.001 42.9991V6.99984H54.0002C56.1557 6.9916 57.9273 8.69903 57.9982 10.8537C58.0266 11.9033 57.6238 12.9186 56.884 13.6639C56.0651 14.5121 54.9381 14.9941 53.7589 14.9996H48.0004C46.8963 15.0005 46.0013 15.8954 46.0004 16.9995V52.9988H26.8978ZM54.0002 57.9989H48.0004V16.9995H53.7589C55.3267 16.9917 56.8369 16.4058 58 15.3543V53.999C57.9978 56.2072 56.2084 57.9966 54.0002 57.9989V57.9989Z" fill="#4EB8F4"></path></g><defs><clipPath id="clip0"><rect width="60" height="60" fill="white"></rect></clipPath></defs></svg> 