<?xml version="1.0" encoding="UTF-8"?> <svg xmlns="http://www.w3.org/2000/svg" width="60" height="60" viewBox="0 0 60 60" fill="none"><g clip-path="url(#clip0)"><path d="M6.90968 21.9782C7.08088 22.1494 7.30565 22.2354 7.53041 22.2354C7.75517 22.2354 7.97994 22.1498 8.1516 21.9782C8.49446 21.6353 8.49446 21.0791 8.1516 20.7362L6.01933 18.604L8.1516 16.4722C8.49446 16.1288 8.49446 15.5731 8.1516 15.2302C7.80873 14.8874 7.25255 14.8874 6.90968 15.2302L4.15668 17.9832C3.99188 18.148 3.89941 18.3714 3.89941 18.604C3.89941 18.837 3.99188 19.0604 4.15668 19.2252L6.90968 21.9782Z" fill="#4EB8F4"></path><path d="M15.6235 18.6039L13.4912 20.7362C13.1484 21.0791 13.1484 21.6353 13.4917 21.9781C13.6629 22.1493 13.8876 22.2354 14.1124 22.2354C14.3372 22.2354 14.5619 22.1493 14.7331 21.9781L17.4866 19.2247C17.8295 18.8818 17.8295 18.3256 17.4866 17.9832L14.7331 15.2297C14.3903 14.8869 13.8345 14.8869 13.4917 15.2297C13.1484 15.5731 13.1484 16.1288 13.4917 16.4717L15.6235 18.6039Z" fill="#4EB8F4"></path><path d="M9.51226 22.1745C9.61755 22.2157 9.7265 22.2353 9.83316 22.2353C10.1838 22.2353 10.5148 22.0239 10.6507 21.6782L12.8137 16.1718C12.9913 15.7204 12.7688 15.2109 12.3175 15.0333C11.8666 14.8562 11.3566 15.0782 11.1794 15.5295L9.01605 21.036C8.83889 21.4874 9.06091 21.9973 9.51226 22.1745Z" fill="#4EB8F4"></path><path d="M5.27448 27.3871H11.1902C11.675 27.3871 12.0682 26.9938 12.0682 26.5086C12.0682 26.0238 11.675 25.6306 11.1902 25.6306H5.27448C4.78925 25.6306 4.39648 26.0238 4.39648 26.5086C4.39648 26.9938 4.78925 27.3871 5.27448 27.3871Z" fill="#4EB8F4"></path><path d="M24.815 25.6306H14.4146C13.9298 25.6306 13.5366 26.0238 13.5366 26.5086C13.5366 26.9938 13.9298 27.3871 14.4146 27.3871H24.815C25.3003 27.3871 25.6935 26.9938 25.6935 26.5086C25.6935 26.0238 25.3003 25.6306 24.815 25.6306Z" fill="#4EB8F4"></path><path d="M5.27448 31.0909H7.79447C8.27925 31.0909 8.67247 30.6976 8.67247 30.2124C8.67247 29.7276 8.27925 29.3344 7.79447 29.3344H5.27448C4.78925 29.3344 4.39648 29.7276 4.39648 30.2124C4.39648 30.6976 4.78925 31.0909 5.27448 31.0909Z" fill="#4EB8F4"></path><path d="M21.6024 29.3344C21.1171 29.3344 20.7244 29.7276 20.7244 30.2124C20.7244 30.6976 21.1171 31.0909 21.6024 31.0909H23.1368C23.622 31.0909 24.0152 30.6976 24.0152 30.2124C24.0152 29.7276 23.622 29.3344 23.1368 29.3344H21.6024Z" fill="#4EB8F4"></path><path d="M19.2911 30.2124C19.2911 29.7276 18.8979 29.3344 18.4131 29.3344H10.8756C10.3903 29.3344 9.99756 29.7276 9.99756 30.2124C9.99756 30.6976 10.3903 31.0909 10.8756 31.0909H18.4131C18.8979 31.0909 19.2911 30.6976 19.2911 30.2124Z" fill="#4EB8F4"></path><path d="M25.0435 30.2124C25.0435 30.6976 25.4367 31.0909 25.9215 31.0909H28.7958C29.281 31.0909 29.6742 30.6976 29.6742 30.2124C29.6742 29.7276 29.281 29.3344 28.7958 29.3344H25.9215C25.4367 29.3344 25.0435 29.7276 25.0435 30.2124Z" fill="#4EB8F4"></path><path d="M20.2613 19.3084H23.293C23.7783 19.3084 24.1715 18.9152 24.1715 18.43C24.1715 17.9452 23.7783 17.552 23.293 17.552H20.2613C19.776 17.552 19.3828 17.9452 19.3828 18.43C19.3828 18.9152 19.776 19.3084 20.2613 19.3084Z" fill="#4EB8F4"></path><path d="M26.6885 19.3084H45.1873C45.6725 19.3084 46.0653 18.9152 46.0653 18.43C46.0653 17.9452 45.6725 17.552 45.1873 17.552H26.6885C26.2033 17.552 25.8101 17.9452 25.8101 18.43C25.8101 18.9152 26.2033 19.3084 26.6885 19.3084V19.3084Z" fill="#4EB8F4"></path><path d="M42.3777 21.4155H34.8841C34.3993 21.4155 34.0061 21.8087 34.0061 22.294C34.0061 22.7788 34.3993 23.172 34.8841 23.172H42.3777C42.8625 23.172 43.2557 22.7788 43.2557 22.294C43.2557 21.8087 42.8625 21.4155 42.3777 21.4155Z" fill="#4EB8F4"></path><path d="M32.0742 21.4155H29.4984C29.0131 21.4155 28.6204 21.8087 28.6204 22.294C28.6204 22.7788 29.0131 23.172 29.4984 23.172H32.0742C32.5594 23.172 32.9522 22.7788 32.9522 22.294C32.9522 21.8087 32.5594 21.4155 32.0742 21.4155Z" fill="#4EB8F4"></path><path d="M20.2613 23.172H26.5716C27.0563 23.172 27.4495 22.7788 27.4495 22.294C27.4495 21.8087 27.0563 21.4155 26.5716 21.4155H20.2613C19.776 21.4155 19.3828 21.8087 19.3828 22.294C19.3828 22.7788 19.776 23.172 20.2613 23.172Z" fill="#4EB8F4"></path><path d="M18.4241 33.0071H12.5088C12.0236 33.0071 11.6304 33.4003 11.6304 33.8851C11.6304 34.3698 12.0236 34.7631 12.5088 34.7631H18.4241C18.9088 34.7631 19.3021 34.3698 19.3021 33.8851C19.3021 33.4003 18.9088 33.0071 18.4241 33.0071Z" fill="#4EB8F4"></path><path d="M9.81917 33.0071H5.27448C4.78925 33.0071 4.39648 33.4003 4.39648 33.8851C4.39648 34.3698 4.78925 34.7631 5.27448 34.7631H9.81917C10.3044 34.7631 10.6972 34.3698 10.6972 33.8851C10.6972 33.4003 10.3044 33.0071 9.81917 33.0071Z" fill="#4EB8F4"></path><path d="M29.1475 33.0071H21.42C20.9348 33.0071 20.542 33.4003 20.542 33.8851C20.542 34.3698 20.9348 34.7631 21.42 34.7631H29.1475C29.6323 34.7631 30.0255 34.3698 30.0255 33.8851C30.0255 33.4003 29.6323 33.0071 29.1475 33.0071V33.0071Z" fill="#4EB8F4"></path><path d="M39.5975 28.4962H35.3719C34.8871 28.4962 34.4939 28.8894 34.4939 29.3742C34.4939 29.8594 34.8871 30.2526 35.3719 30.2526H39.5975C40.0827 30.2526 40.4755 29.8594 40.4755 29.3742C40.4755 28.8894 40.0827 28.4962 39.5975 28.4962V28.4962Z" fill="#4EB8F4"></path><path d="M46.9302 30.2526H52.8954C53.3806 30.2526 53.7738 29.8594 53.7738 29.3742C53.7738 28.8894 53.3806 28.4962 52.8954 28.4962H46.9302C46.445 28.4962 46.0522 28.8894 46.0522 29.3742C46.0522 29.8594 46.4455 30.2526 46.9302 30.2526Z" fill="#4EB8F4"></path><path d="M43.9473 28.4962H42.5804C42.0951 28.4962 41.7019 28.8894 41.7019 29.3742C41.7019 29.8594 42.0951 30.2526 42.5804 30.2526H43.9473C44.4325 30.2526 44.8253 29.8594 44.8253 29.3742C44.8253 28.8894 44.4325 28.4962 43.9473 28.4962Z" fill="#4EB8F4"></path><path d="M35.3719 39.8218H39.5975C40.0827 39.8218 40.4755 39.429 40.4755 38.9438C40.4755 38.459 40.0827 38.0658 39.5975 38.0658H35.3719C34.8871 38.0658 34.4939 38.459 34.4939 38.9438C34.4939 39.429 34.8871 39.8218 35.3719 39.8218V39.8218Z" fill="#4EB8F4"></path><path d="M46.9302 39.8218H52.8954C53.3806 39.8218 53.7738 39.429 53.7738 38.9438C53.7738 38.459 53.3806 38.0658 52.8954 38.0658H46.9302C46.445 38.0658 46.0522 38.459 46.0522 38.9438C46.0522 39.429 46.4455 39.8218 46.9302 39.8218Z" fill="#4EB8F4"></path><path d="M42.5804 39.8218H43.9473C44.4325 39.8218 44.8257 39.429 44.8257 38.9438C44.8257 38.459 44.4325 38.0658 43.9473 38.0658H42.5804C42.0952 38.0658 41.7024 38.459 41.7024 38.9438C41.7024 39.429 42.0952 39.8218 42.5804 39.8218Z" fill="#4EB8F4"></path><path d="M39.5975 47.6354H35.3719C34.8871 47.6354 34.4939 48.0287 34.4939 48.5134C34.4939 48.9982 34.8871 49.3914 35.3719 49.3914H39.5975C40.0827 49.3914 40.4755 48.9982 40.4755 48.5134C40.4755 48.0287 40.0827 47.6354 39.5975 47.6354V47.6354Z" fill="#4EB8F4"></path><path d="M52.8954 47.6354H46.9302C46.445 47.6354 46.0522 48.0287 46.0522 48.5134C46.0522 48.9982 46.445 49.3914 46.9302 49.3914H52.8954C53.3806 49.3914 53.7738 48.9982 53.7738 48.5134C53.7738 48.0287 53.3806 47.6354 52.8954 47.6354V47.6354Z" fill="#4EB8F4"></path><path d="M43.9473 47.6354H42.5804C42.0951 47.6354 41.7019 48.0287 41.7019 48.5134C41.7019 48.9982 42.0951 49.3914 42.5804 49.3914H43.9473C44.4325 49.3914 44.8253 48.9982 44.8253 48.5134C44.8253 48.0287 44.4325 47.6354 43.9473 47.6354Z" fill="#4EB8F4"></path><path d="M56.1358 0.117065H3.86491C1.73402 0.117065 0 1.85062 0 3.98198V46.4704C0 48.6013 1.73402 50.3349 3.86491 50.3349H7.16952C7.6543 50.3349 8.04752 49.9421 8.04752 49.4569C8.04752 48.9721 7.6543 48.5789 7.16952 48.5789H3.86491C2.70219 48.5789 1.75645 47.6331 1.75645 46.4704V43.1393H33.7483V44.6526H33.052C32.0994 44.6526 31.3249 45.4272 31.3249 46.3798V48.5789H12.5084C12.0237 48.5789 11.6304 48.9721 11.6304 49.4569C11.6304 49.9421 12.0237 50.3349 12.5084 50.3349H20.9515V53.4843H18.3001C16.5313 53.4843 15.0925 54.9235 15.0925 56.6919V58.5888C15.0925 59.3959 15.749 60.0523 16.556 60.0523H43.3774C44.1844 60.0523 44.8409 59.3959 44.8409 58.5888V56.6919C44.8409 54.9235 43.4021 53.4843 41.6333 53.4843H38.9819V52.3742H55.2157C56.1678 52.3742 56.9424 51.5997 56.9424 50.6471V50.2337C58.6539 49.8364 59.9334 48.3006 59.9334 46.4704L59.9998 3.98152C60.0002 1.85062 58.2667 0.117065 56.1358 0.117065V0.117065ZM33.0813 41.0486V36.8395H55.1864V41.0486H33.0813ZM35.5043 35.083V33.2355H52.763V35.083H35.5043ZM52.763 42.8046V44.6526H35.5043V42.8046H52.763ZM22.7075 50.3349H31.3249V50.6475C31.3249 51.5997 32.0994 52.3742 33.052 52.3742H37.2259V53.4843H22.7075V50.3349ZM41.6338 55.2407C42.4339 55.2407 43.0849 55.8917 43.0849 56.6919V58.2963H16.8485V56.6919C16.8485 55.8917 17.4999 55.2407 18.3001 55.2407H41.6338ZM55.1864 50.6178H33.0813V46.4091H55.1864V50.6178ZM58.1774 46.4704C58.1774 47.3209 57.6702 48.0538 56.9428 48.3866V46.3793C56.9428 45.4272 56.1678 44.6526 55.2157 44.6526H54.5194V43.1393H58.1774V46.4704ZM58.1774 41.3833H56.914C56.9318 41.2839 56.9428 36.8102 56.9428 36.8102C56.9428 35.8576 56.1678 35.083 55.2157 35.083H54.5194V33.2355H55.2157C56.1678 33.2355 56.9428 32.4605 56.9428 31.5083V27.2406C56.9428 26.2884 56.1678 25.5134 55.2157 25.5134H50.2558C49.7705 25.5134 49.3778 25.9067 49.3778 26.3919C49.3778 26.8767 49.7705 27.2699 50.2558 27.2699H55.1864V31.479H33.0813V27.2699H44.7919C45.2771 27.2699 45.6699 26.8767 45.6699 26.3919C45.6699 25.9067 45.2771 25.5134 44.7919 25.5134H33.052C32.0994 25.5134 31.3249 26.2884 31.3249 27.2406V31.5083C31.3249 32.4605 32.0994 33.2355 33.052 33.2355H33.7483V35.083H33.052C32.0994 35.083 31.3249 35.858 31.3249 36.8102C31.3249 36.8102 31.3359 41.2839 31.3537 41.3833H1.75645V12.062H58.1774V41.3833ZM58.1774 10.3056H1.82099V3.98152C1.82099 2.81926 2.76673 1.87351 3.92946 1.87351H56.0689C57.2317 1.87351 58.1774 2.81926 58.1774 3.98198V10.3056Z" fill="#4EB8F4"></path><path d="M6.47617 3.48761C5.05527 3.48761 3.89941 4.64347 3.89941 6.06437C3.89941 7.48528 5.05527 8.64159 6.47617 8.64159C7.89708 8.64159 9.05339 7.48528 9.05339 6.06437C9.05339 4.64347 7.89708 3.48761 6.47617 3.48761ZM6.47617 6.88515C6.0239 6.88515 5.6554 6.5171 5.6554 6.06437C5.6554 5.6121 6.0239 5.2436 6.47617 5.2436C6.9289 5.2436 7.29695 5.6121 7.29695 6.06437C7.29695 6.5171 6.9289 6.88515 6.47617 6.88515Z" fill="#4EB8F4"></path><path d="M13.0372 3.48761C11.6163 3.48761 10.46 4.64347 10.46 6.06437C10.46 7.48528 11.6163 8.64159 13.0372 8.64159C14.4581 8.64159 15.614 7.48528 15.614 6.06437C15.614 4.64347 14.4576 3.48761 13.0372 3.48761ZM13.0372 6.88515C12.5845 6.88515 12.2164 6.5171 12.2164 6.06437C12.2164 5.6121 12.5845 5.2436 13.0372 5.2436C13.4895 5.2436 13.858 5.6121 13.858 6.06437C13.858 6.5171 13.4895 6.88515 13.0372 6.88515Z" fill="#4EB8F4"></path><path d="M19.598 3.48761C18.1771 3.48761 17.0212 4.64347 17.0212 6.06437C17.0212 7.48528 18.1771 8.64159 19.598 8.64159C21.0189 8.64159 22.1752 7.48528 22.1752 6.06437C22.1752 4.64347 21.0189 3.48761 19.598 3.48761ZM19.598 6.88515C19.1457 6.88515 18.7772 6.5171 18.7772 6.06437C18.7772 5.6121 19.1457 5.2436 19.598 5.2436C20.0507 5.2436 20.4188 5.6121 20.4188 6.06437C20.4188 6.5171 20.0507 6.88515 19.598 6.88515Z" fill="#4EB8F4"></path></g><defs><clipPath id="clip0"><rect width="60" height="60" fill="white"></rect></clipPath></defs></svg> 