<?xml version="1.0" encoding="UTF-8"?> <svg xmlns="http://www.w3.org/2000/svg" width="60" height="60" viewBox="0 0 60 60" fill="none"><g clip-path="url(#clip0)"><path d="M45.5002 0H5.50002C2.74001 0.00325001 0.50325 2.24001 0.5 5.00002V37.0002C0.49975 39.2808 2.04276 41.2724 4.25102 41.8422L4.75102 39.9062C3.42564 39.5644 2.49951 38.3689 2.50001 37.0002V5.00002C2.50001 3.34314 3.84314 2.00001 5.50002 2.00001H45.5002C47.1571 2.00001 48.5002 3.34314 48.5002 5.00002V6.00003H50.5002V5.00002C50.497 2.24001 48.2602 0.00325001 45.5002 0Z" fill="#4EB8F4"></path><path d="M6.50001 4H4.5V6.00001H6.50001V4Z" fill="#4EB8F4"></path><path d="M10.5 4H8.5V6.00001H10.5V4Z" fill="#4EB8F4"></path><path d="M14.5 4H12.5V6.00001H14.5V4Z" fill="#4EB8F4"></path><path d="M59.2072 55.2932L49.7222 45.8082C50.2204 44.9188 50.6189 43.9771 50.9102 43.0002H52.5002V41.0002H51.3402C51.7168 38.5795 51.4264 36.102 50.5002 33.8341V24.0001H48.5002V30.3681C47.9063 29.6095 47.2362 28.9139 46.5002 28.2921V20.0001H44.5001V26.8941C43.86 26.5231 43.1911 26.2037 42.5001 25.9391V16.0001H40.5001V25.3321C39.8411 25.1899 39.1727 25.096 38.5001 25.0511V18.0001H36.5001V25.0511C35.8275 25.096 35.1591 25.1899 34.5001 25.3321V22.0001H32.5001V25.9391C31.8091 26.2037 31.1403 26.5231 30.5001 26.8941V21.0001H28.5001V28.2921C27.7641 28.9139 27.0939 29.6095 26.5001 30.3681V23.0001H24.5001V33.8341C23.5738 36.102 23.2834 38.5795 23.6601 41.0002H10.5V43.0002H24.0901C26.2833 50.398 34.0584 54.617 41.456 52.4237C42.9138 51.9915 44.2913 51.3242 45.5342 50.4482L54.7932 59.7072C55.1837 60.0976 55.8167 60.0976 56.2072 59.7072L59.2072 56.7072C59.5976 56.3167 59.5976 55.6837 59.2072 55.2932ZM37.5001 51.0002C30.8756 50.9931 25.5072 45.6247 25.5001 39.0002C25.5001 32.3728 30.8727 27.0001 37.5001 27.0001C44.1275 27.0001 49.5002 32.3728 49.5002 39.0002C49.5002 45.6276 44.1275 51.0002 37.5001 51.0002ZM55.5002 57.5862L47.0882 49.1742C47.6332 48.6592 48.1364 48.1018 48.5932 47.5072L57.0862 56.0002L55.5002 57.5862Z" fill="#4EB8F4"></path><path d="M37.5 29.0001C31.9771 29.0001 27.5 33.4773 27.5 39.0002C27.5 44.5231 31.9771 49.0002 37.5 49.0002C43.0229 49.0002 47.5001 44.5231 47.5001 39.0002C47.4941 33.4798 43.0204 29.0061 37.5 29.0001ZM37.5 47.0002C34.6455 46.9966 32.0093 45.4722 30.582 43.0002H44.4181C42.9908 45.4722 40.3546 46.9966 37.5 47.0002ZM29.763 41.0002C28.9584 37.9552 30.0328 34.7226 32.5 32.7651V39.0002H34.5V31.5891C35.1413 31.3296 35.8137 31.1549 36.5 31.0691V39.0002H38.5V31.0691C39.1864 31.1549 39.8588 31.3296 40.5001 31.5891V39.0002H42.5001V32.7651C44.9673 34.7226 46.0417 37.9552 45.2371 41.0002H29.763Z" fill="#FF9800"></path><path d="M51.5002 8.00006H11.5C8.74001 8.00331 6.50325 10.2401 6.5 13.0001V45.0002C6.50325 47.7602 8.74001 49.997 11.5 50.0002H24.5001V48.0002H11.5C9.84314 48.0002 8.50001 46.6571 8.50001 45.0002V13.0001C8.50001 11.3432 9.84314 10.0001 11.5 10.0001H51.5002C53.1571 10.0001 54.5002 11.3432 54.5002 13.0001V45.0002C54.5001 45.7308 54.2334 46.4362 53.7502 46.9842L55.2502 48.3072C56.0562 47.3942 56.5007 46.2181 56.5002 45.0002V13.0001C56.497 10.2401 54.2602 8.00331 51.5002 8.00006Z" fill="#4EB8F4"></path><path d="M12.5 12.0001H10.5V14.0001H12.5V12.0001Z" fill="#4EB8F4"></path><path d="M16.5 12.0001H14.5V14.0001H16.5V12.0001Z" fill="#4EB8F4"></path><path d="M20.5 12.0001H18.5V14.0001H20.5V12.0001Z" fill="#4EB8F4"></path><path d="M14.5 33.0001H12.5V39.0001H14.5V33.0001Z" fill="#4EB8F4"></path><path d="M18.5 27.0001H16.5V39.0002H18.5V27.0001Z" fill="#4EB8F4"></path><path d="M22.5 30.0001H20.5V39.0002H22.5V30.0001Z" fill="#4EB8F4"></path></g><defs><clipPath id="clip0"><rect width="60" height="60" fill="white"></rect></clipPath></defs></svg> 