<?xml version="1.0" encoding="UTF-8"?> <svg xmlns="http://www.w3.org/2000/svg" width="60" height="60" viewBox="0 0 60 60" fill="none"><path d="M6.98267 6.99639V58.9702C6.98267 59.5223 7.43018 59.9698 7.98227 59.9698H45.9632C46.5149 59.9698 46.9624 59.5223 46.9624 58.9702V16.9916C46.9624 16.9694 46.9517 16.9505 46.9497 16.9286C46.9447 16.841 46.9274 16.7545 46.8986 16.6717C46.8875 16.6396 46.8797 16.6088 46.8657 16.5775C46.8171 16.4688 46.7496 16.3696 46.6656 16.2847L36.6708 6.28991C36.5859 6.20551 36.4863 6.13799 36.3768 6.08982C36.3468 6.07706 36.3163 6.06636 36.285 6.05689C36.2014 6.02807 36.1146 6.01078 36.026 6.00501C36.0092 6.0079 35.9894 5.99719 35.9684 5.99719H7.98227C7.43018 5.99719 6.98267 6.4443 6.98267 6.99639ZM43.5503 15.992H36.9676V9.40936L43.5503 15.992ZM8.98147 7.996H34.9688V16.9916C34.9688 17.5433 35.4163 17.9908 35.968 17.9908H44.9636V57.971H8.98147V7.996Z" fill="#4EB8F4"></path><path d="M48.9617 51.9738V53.9726H51.9601C52.5122 53.9726 52.9597 53.5255 52.9597 52.9734V0.999607C52.9597 0.447518 52.5122 0 51.9601 0H13.9791C13.427 0 12.9795 0.447518 12.9795 0.999607V3.99802H14.9787V1.9988H50.9605V51.9738H48.9617Z" fill="#4EB8F4"></path><path d="M14.9788 19.9901H38.9665V21.9889H14.9788V19.9901Z" fill="#4EB8F4"></path><path d="M14.9788 13.9929H22.9748V15.9921H14.9788V13.9929Z" fill="#4EB8F4"></path><path d="M14.9788 25.9869H30.9708V27.9862H14.9788V25.9869Z" fill="#4EB8F4"></path><path d="M32.9695 25.9869H38.9663V27.9862H32.9695V25.9869Z" fill="#4EB8F4"></path><path d="M14.9788 31.9837H38.9665V33.9829H14.9788V31.9837Z" fill="#4EB8F4"></path><path d="M14.9788 43.9778H38.9665V45.977H14.9788V43.9778Z" fill="#4EB8F4"></path><path d="M23.9739 37.981H38.9663V39.9798H23.9739V37.981Z" fill="#4EB8F4"></path><path d="M14.9788 37.981H21.9752V39.9798H14.9788V37.981Z" fill="#4EB8F4"></path><path d="M14.9788 49.975H18.9768V51.9738H14.9788V49.975Z" fill="#4EB8F4"></path><path d="M20.9756 49.975H38.9665V51.9738H20.9756V49.975Z" fill="#4EB8F4"></path></svg> 