<?xml version="1.0" encoding="UTF-8"?> <svg xmlns="http://www.w3.org/2000/svg" width="60" height="60" viewBox="0 0 60 60" fill="none"><g clip-path="url(#clip0)"><path d="M10.0007 41.0001C10.0006 41.0001 10.0003 41.0001 10.0002 41.0001H2.00024C1.44812 41 1.00037 41.4475 1.00024 41.9996C1.00024 41.9997 1.00024 42 1.00024 42.0001V59.0001C1.00012 59.5522 1.44762 60 1.99974 60.0001C1.99986 60.0001 2.00011 60.0001 2.00024 60.0001H10.0002C10.5523 60.0002 11.0001 59.5527 11.0002 59.0006C11.0002 59.0005 11.0002 59.0002 11.0002 59.0001V42.0001C11.0003 41.448 10.5528 41.0002 10.0007 41.0001ZM9.00008 58.0001H3.00011V43.0001H9.00008V58.0001Z" fill="#FE9E0F"></path><path d="M46.0007 33.0001C46.0006 33.0001 46.0003 33.0001 46.0002 33.0001H38.0002C37.4481 33 37.0004 33.4475 37.0002 33.9996C37.0002 33.9997 37.0002 34 37.0002 34.0001V59.0001C37.0001 59.5522 37.4476 60 37.9997 60.0001C37.9999 60.0001 38.0001 60.0001 38.0002 60.0001H46.0002C46.5523 60.0002 47.0001 59.5527 47.0002 59.0006C47.0002 59.0005 47.0002 59.0002 47.0002 59.0001V34.0001C47.0003 33.448 46.5528 33.0002 46.0007 33.0001ZM45.0001 58.0001H39.0001V35.0001H45.0001V58.0001Z" fill="#FE9E0F"></path><path d="M34.0007 38.0001C34.0006 38.0001 34.0003 38.0001 34.0002 38.0001H26.0002C25.4481 38 25.0004 38.4475 25.0002 38.9996C25.0002 38.9997 25.0002 39 25.0002 39.0001V59.0001C25.0001 59.5522 25.4476 60 25.9997 60.0001C25.9999 60.0001 26.0001 60.0001 26.0002 60.0001H34.0002C34.5523 60.0002 35.0001 59.5527 35.0002 59.0006C35.0002 59.0005 35.0002 59.0002 35.0002 59.0001V39.0001C35.0003 38.448 34.5528 38.0002 34.0007 38.0001ZM33.0001 58.0001H27.0001V40.0001H33.0001V58.0001Z" fill="#FE9E0F"></path><path d="M22.0007 26.0003C22.0006 26.0003 22.0003 26.0003 22.0002 26.0003H14.0002C13.4481 26.0002 13.0004 26.4477 13.0002 26.9998C13.0002 26.9999 13.0002 27.0002 13.0002 27.0003V59.0002C13.0001 59.5523 13.4476 60 13.9997 60.0002C13.9999 60.0002 14.0001 60.0002 14.0002 60.0002H22.0002C22.5523 60.0003 23.0001 59.5528 23.0002 59.0007C23.0002 59.0005 23.0002 59.0003 23.0002 59.0002V27.0003C23.0003 26.4482 22.5528 26.0004 22.0007 26.0003ZM21.0001 58.0002H15.0001V28.0003H21.0001V58.0002Z" fill="#FE9E0F"></path><path d="M58.0005 46.0001C58.0003 46.0001 58.0001 46.0001 58 46.0001H50C49.4479 45.9999 49.0001 46.4474 49 46.9996C49 46.9997 49 46.9999 49 47.0001V59C48.9999 59.5522 49.4474 59.9999 49.9995 60C49.9996 60 49.9999 60 50 60H58C58.5521 60.0002 58.9998 59.5527 59 59.0005C59 59.0004 59 59.0002 59 59V47.0001C59.0001 46.4479 58.5526 46.0002 58.0005 46.0001ZM56.9998 58H50.9999V48.0001H56.9998V58Z" fill="#FE9E0F"></path><path d="M59.7602 21.921C59.697 21.8471 59.6232 21.7829 59.5414 21.7304L55.5414 19.1592C55.0772 18.8604 54.4587 18.9944 54.1599 19.4585C54.056 19.62 54.0008 19.8079 54.0008 19.9999V21.9999H50.5359L42.8328 10.4452C42.4902 9.98569 41.8399 9.89094 41.3804 10.2336C41.3001 10.2936 41.2287 10.3648 41.1688 10.4452L30.1929 26.909L18.9199 0.606478C18.7635 0.231104 18.3928 -0.0097698 17.9863 -1.98402e-05C17.5807 0.00560514 17.2189 0.256104 17.0708 0.633728L4.32033 32.9998H0.000976562V34.9998H5.00096C5.41183 35 5.78095 34.7485 5.93108 34.3661L18.0399 3.62984L29.0819 29.3934C29.2987 29.901 29.886 30.1366 30.3936 29.9197C30.5725 29.8434 30.7251 29.7164 30.8328 29.5545L42.0008 12.8026L49.1688 23.5545C49.3541 23.8328 49.6664 23.9999 50.0008 23.9998H54.0008V25.9998C54.0006 26.5519 54.448 26.9996 55.0001 26.9997C55.2391 26.9999 55.4702 26.9142 55.6516 26.7585L59.6516 23.3298C60.0707 22.9709 60.1194 22.34 59.7602 21.921ZM56.0007 23.8261V21.832L57.3304 22.6865L56.0007 23.8261Z" fill="#FE9E0F"></path></g><defs><clipPath id="clip0"><rect width="60" height="60" fill="white"></rect></clipPath></defs></svg> 