<?xml version="1.0" encoding="UTF-8"?> <svg xmlns="http://www.w3.org/2000/svg" width="60" height="60" viewBox="0 0 60 60" fill="none"><g clip-path="url(#clip0)"><path d="M22.9688 7.03125C31.6925 7.03125 38.7891 14.245 38.7891 22.9688C38.7891 26.6968 37.4394 30.0819 35.2743 32.7886L40.3106 37.825C43.7374 33.8285 45.8203 28.646 45.8203 22.9688C45.8203 10.3482 35.5893 0 22.9688 0C17.2915 0 12.109 2.20008 8.11255 5.62687L13.1489 10.6632C15.8556 8.49809 19.2407 7.03125 22.9688 7.03125V7.03125Z" fill="#4EB8F4"></path><path d="M37.0312 52.9688C28.3075 52.9688 21.2109 45.755 21.2109 37.0313C21.2109 33.3032 22.5606 29.9181 24.7257 27.2114L19.6894 22.175C16.2626 26.1715 14.1797 31.354 14.1797 37.0313C14.1797 49.6518 24.4107 60 37.0312 60C42.7085 60 47.891 57.7999 51.8875 54.3731L46.8511 49.3368C44.1444 51.5019 40.7593 52.9688 37.0312 52.9688V52.9688Z" fill="#4EB8F4"></path><path d="M22.175 19.6894L27.2114 24.7257C29.442 22.9416 32.1489 21.7605 35.1132 21.3831C34.7835 18.859 33.7076 16.5853 32.0843 14.7802C28.3662 15.6094 24.9695 17.2932 22.175 19.6894V19.6894Z" fill="#FF9800"></path><path d="M48.741 17.4342C49.1243 19.2205 49.336 21.0695 49.336 22.9687C49.336 24.2701 49.216 25.559 49.0257 26.8343C51.3776 29.5962 52.9689 33.1276 52.9689 37.0312C52.9689 40.7593 51.502 44.1444 49.3369 46.8511L54.3732 51.8874C57.8 47.891 60.0001 42.7085 60.0001 37.0312C60.0001 28.6966 55.4066 21.426 48.741 17.4342Z" fill="#FF9800"></path><path d="M27.9158 45.22C31.6338 44.3907 35.0305 42.7069 37.8249 40.3107L32.7886 35.2743C30.558 37.0585 27.8511 38.2395 24.8867 38.617C25.2166 41.1411 26.2925 43.4147 27.9158 45.22V45.22Z" fill="#FF9800"></path><path d="M11.2591 42.5658C10.8758 40.7795 10.6641 38.9305 10.6641 37.0313C10.6641 35.7299 10.7841 34.4409 10.9744 33.1657C8.62254 30.4038 7.03125 26.8724 7.03125 22.9688C7.03125 19.2407 8.49809 15.8556 10.6632 13.1489L5.62687 8.11255C2.20008 12.109 0 17.2915 0 22.9688C0 31.3034 4.59352 38.574 11.2591 42.5658Z" fill="#FF9800"></path></g><defs><clipPath id="clip0"><rect width="60" height="60" fill="white"></rect></clipPath></defs></svg> 