<?xml version="1.0" encoding="UTF-8"?> <svg xmlns="http://www.w3.org/2000/svg" width="60" height="60" viewBox="0 0 60 60" fill="none"><path d="M31.051 39.2327C32.4028 39.2327 33.5011 38.1292 33.5011 36.7761C33.5011 35.4258 32.4028 34.33 31.051 34.33L19.9502 26.1653L28.6008 36.9337C28.6811 38.2155 29.749 39.2327 31.051 39.2327Z" fill="#FF9800"></path><path d="M42.2345 46.4668H17.7654V52.2735H42.2345V46.4668Z" fill="#4EB8F4"></path><path d="M51.2132 16.5135C45.5468 10.8472 38.0131 7.72668 30 7.72668C21.9867 7.72668 14.4529 10.8472 8.78666 16.5135C3.12038 22.1798 0 29.7134 0 37.7267C0 42.9007 1.30351 47.8732 3.75094 52.2735H9.35806L13.4591 49.9055L11.648 46.7683L6.37462 49.8132C4.5116 46.1859 3.45916 42.077 3.45916 37.7267C3.45916 36.9568 3.49413 36.1949 3.55861 35.4414L9.84637 36.55L10.4754 32.9826L4.11365 31.8609C5.25043 26.8417 7.81353 22.3581 11.353 18.8596L15.6633 23.9966L18.4383 21.6682L14.0953 16.4925C18.0777 13.5021 22.9254 11.6055 28.1889 11.2492V18.1196H31.8111V11.2492C37.0746 11.6058 41.9223 13.5022 45.9049 16.4926L41.5617 21.6682L44.3366 23.9966L48.647 18.8595C52.1863 22.3581 54.7494 26.8417 55.8862 31.8608L49.5246 32.9828L50.1538 36.5499L56.4411 35.4411C56.5056 36.1948 56.5406 36.9565 56.5406 37.7264C56.5406 42.077 55.4885 46.186 53.6252 49.813L48.3517 46.7685L46.5407 49.9055L50.6417 52.2732H56.2491C58.6966 47.8729 60 42.9005 60 37.7264C60.0001 29.7133 56.8793 22.1795 51.2132 16.5135Z" fill="#4EB8F4"></path></svg> 