<?xml version="1.0" encoding="UTF-8"?> <svg xmlns="http://www.w3.org/2000/svg" width="60" height="60" viewBox="0 0 60 60" fill="none"><path d="M54.7266 1.875H5.27344C2.36572 1.875 0 4.24072 0 7.14844V42.3047C0 45.2124 2.36572 47.5781 5.27344 47.5781H20.5298L18.186 54.6094H12.4219C11.451 54.6094 10.6641 55.3963 10.6641 56.3672C10.6641 57.3381 11.451 58.125 12.4219 58.125H47.5781C48.549 58.125 49.3359 57.3381 49.3359 56.3672C49.3359 55.3963 48.549 54.6094 47.5781 54.6094H41.814L39.4702 47.5781H54.7266C57.6343 47.5781 60 45.2124 60 42.3047V7.14844C60 4.24072 57.6343 1.875 54.7266 1.875ZM21.8921 54.6094L24.2358 47.5781H35.7642L38.1079 54.6094H21.8921ZM56.4844 42.3047C56.4844 43.2738 55.6956 44.0625 54.7266 44.0625C49.6193 44.0625 10.4338 44.0625 5.27344 44.0625C4.30435 44.0625 3.51562 43.2738 3.51562 42.3047V40.5469H56.4844V42.3047ZM19.1693 26.9284L17.5703 25.3299L20.056 22.8438L21.655 24.4427C22.2217 25.0095 23.1001 25.1212 23.7909 24.7137C24.7787 24.1315 25.8334 23.6925 26.9252 23.4096C27.7007 23.2091 28.2422 22.5092 28.2422 21.7081V19.4531H31.7578V21.7081C31.7578 22.5092 32.2993 23.2091 33.0748 23.4096C34.1661 23.6925 35.2208 24.1315 36.2086 24.7142C36.8994 25.1212 37.7779 25.0095 38.3446 24.4427L39.9435 22.8438L42.4297 25.3299L40.8307 26.9289C40.264 27.4956 40.1523 28.374 40.5597 29.0643C41.1424 30.0526 41.581 31.1073 41.8639 32.1986C42.0644 32.9741 42.7643 33.5156 43.5654 33.5156H45.8203V37.0312H38.6115C38.7286 36.4554 38.7891 35.8662 38.7891 35.2734C38.7891 30.4271 34.8463 26.4844 30 26.4844C25.1537 26.4844 21.2109 30.4271 21.2109 35.2734C21.2109 35.8662 21.2714 36.4554 21.3885 37.0312H14.1797V33.5156H16.4346C17.2357 33.5156 17.9356 32.9741 18.1366 32.1986C18.419 31.1073 18.858 30.0526 19.4403 29.0643C19.8473 28.374 19.736 27.4956 19.1693 26.9284ZM35.2734 35.2734C35.2734 35.8754 35.1691 36.47 34.9713 37.0312H25.0287C24.8309 36.47 24.7266 35.8754 24.7266 35.2734C24.7266 32.3657 27.0923 30 30 30C32.9077 30 35.2734 32.3657 35.2734 35.2734ZM56.4844 37.0312H49.3359V31.7578C49.3359 30.7869 48.549 30 47.5781 30H44.8627C44.6805 29.4891 44.4713 28.987 44.236 28.4949L46.1586 26.5727C46.8448 25.8861 46.8448 24.7733 46.1581 24.0866L41.1864 19.1148C40.8568 18.7852 40.4095 18.6003 39.9435 18.6003C39.4775 18.6003 39.0303 18.7852 38.7007 19.1148L36.7786 21.0374C36.2865 20.8022 35.7843 20.593 35.2734 20.4112V17.6953C35.2734 16.7244 34.4865 15.9375 33.5156 15.9375H26.4844C25.5135 15.9375 24.7266 16.7244 24.7266 17.6953V20.4112C24.2157 20.593 23.7135 20.8022 23.2214 21.0374L21.2993 19.1148C20.9697 18.7852 20.5225 18.6003 20.0565 18.6003C19.59 18.6003 19.1432 18.7852 18.8132 19.1148L13.8419 24.0866C13.1552 24.7733 13.1552 25.8861 13.8419 26.5727L15.764 28.4953C15.5287 28.987 15.32 29.4891 15.1378 30H12.4219C11.451 30 10.6641 30.7874 10.6641 31.7578V37.0312H3.51562V7.14844C3.51562 6.17935 4.30435 5.39062 5.27344 5.39062H54.7266C55.6956 5.39062 56.4844 6.17935 56.4844 7.14844V37.0312Z" fill="#595959"></path><path d="M47.5781 8.90625C44.6704 8.90625 42.3047 11.272 42.3047 14.1797C42.3047 17.0874 44.6704 19.4531 47.5781 19.4531C50.4858 19.4531 52.8516 17.0874 52.8516 14.1797C52.8516 11.272 50.4858 8.90625 47.5781 8.90625ZM47.5781 15.9375C46.609 15.9375 45.8203 15.1488 45.8203 14.1797C45.8203 13.2106 46.609 12.4219 47.5781 12.4219C48.5472 12.4219 49.3359 13.2106 49.3359 14.1797C49.3359 15.1488 48.5472 15.9375 47.5781 15.9375Z" fill="#FF9800"></path></svg> 