<?xml version="1.0" encoding="UTF-8"?> <svg xmlns="http://www.w3.org/2000/svg" width="60" height="60" viewBox="0 0 60 60" fill="none"><path d="M55.5 60H4.5C2.019 60 0 57.981 0 55.5V4.5C0 2.019 2.019 0 4.5 0H55.5C57.981 0 60 2.019 60 4.5V55.5C60 57.981 57.981 60 55.5 60ZM4.5 2C3.122 2 2 3.121 2 4.5V55.5C2 56.879 3.122 58 4.5 58H55.5C56.879 58 58 56.879 58 55.5V4.5C58 3.121 56.878 2 55.5 2H4.5Z" fill="#4EB8F4"></path><path d="M9 10H5C4.448 10 4 9.553 4 9V5C4 4.447 4.448 4 5 4H9C9.552 4 10 4.447 10 5V9C10 9.553 9.552 10 9 10ZM6 8H8V6H6V8Z" fill="#4EB8F4"></path><path d="M17 10H13C12.448 10 12 9.553 12 9V5C12 4.447 12.448 4 13 4H17C17.552 4 18 4.447 18 5V9C18 9.553 17.552 10 17 10ZM14 8H16V6H14V8Z" fill="#4EB8F4"></path><path d="M25 10H21C20.448 10 20 9.553 20 9V5C20 4.447 20.448 4 21 4H25C25.552 4 26 4.447 26 5V9C26 9.553 25.552 10 25 10ZM22 8H24V6H22V8Z" fill="#4EB8F4"></path><path d="M59 14H1C0.448 14 0 13.553 0 13V4.5C0 2.019 2.019 0 4.5 0H55.5C57.981 0 60 2.019 60 4.5V13C60 13.553 59.552 14 59 14ZM2 12H58V4.5C58 3.121 56.878 2 55.5 2H4.5C3.122 2 2 3.121 2 4.5V12Z" fill="#4EB8F4"></path><path d="M54 55H6C5.448 55 5 54.553 5 54V18C5 17.447 5.448 17 6 17H54C54.552 17 55 17.447 55 18V54C55 54.553 54.552 55 54 55ZM7 53H53V19H7V53Z" fill="#4EB8F4"></path><rect x="16" y="22" width="12" height="12" rx="1" fill="#4EB8F4"></rect><rect x="32" y="22" width="12" height="12" rx="1" fill="#4EB8F4"></rect><rect x="32" y="38" width="12" height="12" rx="1" fill="#4EB8F4"></rect><rect x="16" y="38" width="12" height="12" rx="1" fill="#4EB8F4"></rect></svg> 