<?xml version="1.0" encoding="UTF-8"?> <svg xmlns="http://www.w3.org/2000/svg" width="60" height="60" viewBox="0 0 60 60" fill="none"><path d="M30 59.9162L19.5369 49.4531H7.03125C3.15399 49.4531 0 46.2991 0 42.4219V7.03125C0 3.15399 3.15399 0 7.03125 0H52.9688C56.846 0 60 3.15399 60 7.03125V42.4219C60 46.2991 56.846 49.4531 52.9688 49.4531H40.4631L30 59.9162ZM7.03125 4.6875C5.73898 4.6875 4.6875 5.73898 4.6875 7.03125V42.4219C4.6875 43.7141 5.73898 44.7656 7.03125 44.7656H21.4787L30 53.2869L38.5213 44.7656H52.9688C54.261 44.7656 55.3125 43.7141 55.3125 42.4219V7.03125C55.3125 5.73898 54.261 4.6875 52.9688 4.6875H7.03125ZM27.5 12.8906H12.8906V24H27.5V12.8906ZM47.1094 12.8906H32.5V24H47.1094V12.8906ZM47.1094 28H32.5V39L27.5 28H12.8906V39H27.5V28L32.5 39H47.1094V28Z" fill="url(#paint0_radial)"></path><rect x="7" y="6" width="46" height="37" rx="1" fill="white"></rect><rect x="12" y="10" width="16" height="13" rx="1" fill="url(#paint1_linear)"></rect><rect x="32" y="10" width="16" height="13" rx="1" fill="url(#paint2_linear)"></rect><rect x="12" y="26" width="16" height="13" rx="1" fill="url(#paint3_linear)"></rect><rect x="32" y="26" width="16" height="13" rx="1" fill="url(#paint4_linear)"></rect><defs><radialGradient id="paint0_radial" cx="0" cy="0" r="1" gradientUnits="userSpaceOnUse" gradientTransform="translate(30 29.9581) rotate(90) scale(29.9581 30)"><stop stop-color="#FF9800"></stop><stop offset="0.296875" stop-color="#FF9800"></stop><stop offset="0.682292" stop-color="#4EB8F4"></stop><stop offset="1" stop-color="#4EB8F4"></stop></radialGradient><linearGradient id="paint1_linear" x1="20" y1="10" x2="20" y2="23" gradientUnits="userSpaceOnUse"><stop stop-color="#FF9800"></stop><stop offset="1" stop-color="#FF9800"></stop></linearGradient><linearGradient id="paint2_linear" x1="40" y1="10" x2="40" y2="23" gradientUnits="userSpaceOnUse"><stop stop-color="#FF9800"></stop><stop offset="1" stop-color="#FF9800"></stop></linearGradient><linearGradient id="paint3_linear" x1="20" y1="26" x2="20" y2="39" gradientUnits="userSpaceOnUse"><stop stop-color="#FF9800"></stop><stop offset="1" stop-color="#FF9800"></stop></linearGradient><linearGradient id="paint4_linear" x1="40" y1="26" x2="40" y2="39" gradientUnits="userSpaceOnUse"><stop stop-color="#FF9800"></stop><stop offset="1" stop-color="#FF9800"></stop></linearGradient></defs></svg> 