<?xml version="1.0" encoding="UTF-8"?> <svg xmlns="http://www.w3.org/2000/svg" width="60" height="60" viewBox="0 0 60 60" fill="none"><path d="M57.1875 31.7258H30.9375V28.9133C30.9343 26.326 28.8377 24.229 26.25 24.2258H4.21875C2.92419 24.2258 1.875 23.1766 1.875 21.882C1.875 20.5879 2.92419 19.5383 4.21875 19.5383H37.2729C40.0699 19.5461 42.7533 18.4341 44.7253 16.4511L43.3997 15.1254C41.7783 16.756 39.5723 17.6697 37.2729 17.6633H4.21875C1.88873 17.6633 0 19.5525 0 21.882C0 24.212 1.88873 26.1008 4.21875 26.1008H26.25C27.8032 26.1008 29.0625 27.3601 29.0625 28.9133V31.7258H2.8125C1.25931 31.7258 0 32.9851 0 34.5383V57.0383C0 58.5919 1.25931 59.8508 2.8125 59.8508H57.1875C58.7407 59.8508 60 58.5919 60 57.0383V34.5383C60 32.9851 58.7407 31.7258 57.1875 31.7258ZM58.125 57.0383C58.125 57.556 57.7052 57.9758 57.1875 57.9758H2.8125C2.29477 57.9758 1.875 57.556 1.875 57.0383V34.5383C1.875 34.0205 2.29477 33.6008 2.8125 33.6008H57.1875C57.7052 33.6008 58.125 34.0205 58.125 34.5383V57.0383Z" fill="#4EB8F4"></path><path d="M48.75 56.1008H56.25V42.9758H48.75V56.1008ZM50.625 44.8508H54.375V54.2258H50.625V44.8508Z" fill="#4EB8F4"></path><path d="M44.0625 50.4758H14.0625C12.5093 50.4758 11.25 51.7351 11.25 53.2883C11.25 54.8419 12.5093 56.1008 14.0625 56.1008H44.0625C45.6157 56.1008 46.875 54.8419 46.875 53.2883C46.875 51.7351 45.6157 50.4758 44.0625 50.4758ZM44.0625 54.2258H14.0625C13.5448 54.2258 13.125 53.806 13.125 53.2883C13.125 52.7705 13.5448 52.3508 14.0625 52.3508H44.0625C44.5802 52.3508 45 52.7705 45 53.2883C45 53.806 44.5802 54.2258 44.0625 54.2258Z" fill="#4EB8F4"></path><path d="M3.75 56.1008H9.375V50.4758H3.75V56.1008ZM5.625 52.3508H7.5V54.2258H5.625V52.3508Z" fill="#4EB8F4"></path><path d="M3.75 48.6008H9.375V42.9758H3.75V48.6008ZM5.625 44.8508H7.5V46.7258H5.625V44.8508Z" fill="#4EB8F4"></path><path d="M16.875 42.9758H11.25V48.6008H16.875V42.9758ZM15 46.7258H13.125V44.8508H15V46.7258Z" fill="#4EB8F4"></path><path d="M24.375 42.9758H18.75V48.6008H24.375V42.9758ZM22.5 46.7258H20.625V44.8508H22.5V46.7258Z" fill="#4EB8F4"></path><path d="M31.875 42.9758H26.25V48.6008H31.875V42.9758ZM30 46.7258H28.125V44.8508H30V46.7258Z" fill="#4EB8F4"></path><path d="M39.375 42.9758H33.75V48.6008H39.375V42.9758ZM37.5 46.7258H35.625V44.8508H37.5V46.7258Z" fill="#4EB8F4"></path><path d="M41.25 48.6008H46.875V42.9758H41.25V48.6008ZM43.125 44.8508H45V46.7258H43.125V44.8508Z" fill="#4EB8F4"></path><path d="M3.75 41.1008H9.375V35.4758H3.75V41.1008ZM5.625 37.3508H7.5V39.2258H5.625V37.3508Z" fill="#4EB8F4"></path><path d="M16.875 35.4758H11.25V41.1008H16.875V35.4758ZM15 39.2258H13.125V37.3508H15V39.2258Z" fill="#4EB8F4"></path><path d="M24.375 35.4758H18.75V41.1008H24.375V35.4758ZM22.5 39.2258H20.625V37.3508H22.5V39.2258Z" fill="#4EB8F4"></path><path d="M31.875 35.4758H26.25V41.1008H31.875V35.4758ZM30 39.2258H28.125V37.3508H30V39.2258Z" fill="#4EB8F4"></path><path d="M39.375 35.4758H33.75V41.1008H39.375V35.4758ZM37.5 39.2258H35.625V37.3508H37.5V39.2258Z" fill="#4EB8F4"></path><path d="M41.25 41.1008H56.25V35.4758H41.25V41.1008ZM43.125 37.3508H54.375V39.2258H43.125V37.3508Z" fill="#4EB8F4"></path><path d="M5.625 27.9758H15V29.8508H5.625V27.9758Z" fill="#4EB8F4"></path><path d="M32.8125 26.1008H34.6875V29.8508H32.8125V26.1008Z" fill="#4EB8F4"></path><path d="M16.875 27.9758H22.5V29.8508H16.875V27.9758Z" fill="#4EB8F4"></path><path d="M18.75 13.9133H20.625V15.7883H18.75V13.9133Z" fill="#4EB8F4"></path><path d="M24.375 13.9133H33.75V15.7883H24.375V13.9133Z" fill="#4EB8F4"></path><path d="M50.6448 26.0852L59.6362 0.234375L32.6606 9.22577L46.1496 13.726L50.6448 26.0852ZM50.6054 20.4918L47.96 13.217L55.8967 5.27985L50.6054 20.4918ZM54.6562 3.87177L46.622 11.9032L38.5896 9.22577L54.6562 3.87177Z" fill="#FF9800"></path></svg> 