<?xml version="1.0" encoding="UTF-8"?> <svg xmlns="http://www.w3.org/2000/svg" width="60" height="60" viewBox="0 0 60 60" fill="none"><path d="M14.2666 19.2485H45.8486C47.2215 19.2485 48.3389 18.1311 48.3389 16.7583V7.35352C48.3389 5.98022 47.2215 4.86328 45.8486 4.86328H14.2666C12.8933 4.86328 11.7764 5.98022 11.7764 7.35352V16.7583C11.7764 18.1311 12.8933 19.2485 14.2666 19.2485ZM13.5342 7.35352C13.5342 6.94977 13.8629 6.62109 14.2666 6.62109H45.8486C46.2524 6.62109 46.5811 6.94977 46.5811 7.35352V16.7583C46.5811 17.162 46.2524 17.4907 45.8486 17.4907H14.2666C13.8629 17.4907 13.5342 17.162 13.5342 16.7583V7.35352Z" fill="#4EB8F4"></path><path d="M41.0912 15.2829C41.0912 14.8288 40.7286 14.4608 40.2809 14.4608C39.8333 14.4608 39.4707 14.8288 39.4707 15.2829C39.4707 15.7365 39.8333 16.1046 40.2809 16.1046C40.7286 16.1046 41.0912 15.7365 41.0912 15.2829Z" fill="#4EB8F4"></path><path d="M39.2783 9.59978C40.1646 9.04176 41.774 9.30406 41.774 10.3395C41.774 10.9795 41.3401 11.2665 40.3023 11.3864C39.8148 11.4427 39.563 11.6908 39.5818 12.1596L39.6207 13.1442C39.6354 13.5031 39.9302 13.7897 40.2923 13.7897C40.6452 13.7897 40.94 13.5182 40.962 13.1726L40.9972 12.6155C42.2428 12.4141 43.1629 11.6698 43.1629 10.3395C43.1629 7.28212 38.2786 7.66389 38.2786 9.04542C38.2786 9.56316 38.8503 9.8694 39.2783 9.59978Z" fill="#4EB8F4"></path><path d="M16.9519 10.8151H34.2371C34.7227 10.8151 35.116 10.4219 35.116 9.93622C35.116 9.45099 34.7227 9.05731 34.2371 9.05731H16.9519C16.4662 9.05731 16.073 9.45099 16.073 9.93622C16.073 10.4219 16.4662 10.8151 16.9519 10.8151Z" fill="#4EB8F4"></path><path d="M16.9519 15.054H34.2371C34.7227 15.054 35.116 14.6608 35.116 14.1751C35.116 13.6894 34.7227 13.2962 34.2371 13.2962H16.9519C16.4662 13.2962 16.073 13.6894 16.073 14.1751C16.073 14.6608 16.4662 15.054 16.9519 15.054Z" fill="#4EB8F4"></path><path d="M11.7764 34.7021C11.7764 36.0754 12.8933 37.1924 14.2666 37.1924H45.8486C47.2215 37.1924 48.3389 36.0754 48.3389 34.7021V25.2979C48.3389 23.9246 47.2215 22.8076 45.8486 22.8076H14.2666C12.8933 22.8076 11.7764 23.9246 11.7764 25.2979V34.7021ZM13.5342 25.2979C13.5342 24.8941 13.8629 24.5654 14.2666 24.5654H45.8486C46.2524 24.5654 46.5811 24.8941 46.5811 25.2979V34.7021C46.5811 35.1059 46.2524 35.4346 45.8486 35.4346H14.2666C13.8629 35.4346 13.5342 35.1059 13.5342 34.7021V25.2979Z" fill="#4EB8F4"></path><path d="M41.0912 33.2268C41.0912 32.7731 40.7286 32.4051 40.2809 32.4051C39.8333 32.4051 39.4707 32.7731 39.4707 33.2268C39.4707 33.6809 39.8333 34.0489 40.2809 34.0489C40.7286 34.0489 41.0912 33.6809 41.0912 33.2268Z" fill="#4EB8F4"></path><path d="M39.2783 27.5441C40.1646 26.9861 41.774 27.2484 41.774 28.2838C41.774 28.9238 41.3401 29.2108 40.3023 29.3307C39.8148 29.387 39.563 29.6347 39.5818 30.1039L39.6207 31.0885C39.6354 31.4474 39.9302 31.7335 40.2923 31.7335C40.6452 31.7335 40.94 31.4625 40.962 31.1165L40.9972 30.5598C42.2428 30.3584 43.1629 29.6136 43.1629 28.2834C43.1629 25.226 38.2786 25.6077 38.2786 26.9893C38.2786 27.507 38.8503 27.8137 39.2783 27.5441V27.5441Z" fill="#4EB8F4"></path><path d="M16.9519 28.7595H34.2371C34.7227 28.7595 35.116 28.3662 35.116 27.8806C35.116 27.3953 34.7227 27.0016 34.2371 27.0016H16.9519C16.4662 27.0016 16.073 27.3953 16.073 27.8806C16.073 28.3662 16.4662 28.7595 16.9519 28.7595Z" fill="#4EB8F4"></path><path d="M16.9519 32.9984H34.2371C34.7227 32.9984 35.116 32.6047 35.116 32.1194C35.116 31.6338 34.7227 31.2405 34.2371 31.2405H16.9519C16.4662 31.2405 16.073 31.6338 16.073 32.1194C16.073 32.6047 16.4662 32.9984 16.9519 32.9984Z" fill="#4EB8F4"></path><path d="M43.1629 46.2278C43.1629 43.9174 40.209 43.3654 38.5862 44.3789C38.0342 44.7236 38.2745 45.5878 38.9323 45.5878C39.0595 45.5878 39.1781 45.5516 39.2784 45.4885C40.1646 44.9305 41.7741 45.1928 41.7741 46.2282C41.7741 46.8682 41.3401 47.1552 40.3024 47.2747C39.8149 47.331 39.5631 47.5791 39.5819 48.0483L39.6208 49.0329C39.6354 49.3914 39.9302 49.6779 40.2923 49.6779C40.6452 49.6779 40.94 49.4069 40.962 49.0609L40.9973 48.5038C42.2433 48.3028 43.1629 47.558 43.1629 46.2278V46.2278Z" fill="#4EB8F4"></path><path d="M41.0912 51.1711C41.0912 50.7175 40.7286 50.3494 40.2809 50.3494C39.8333 50.3494 39.4707 50.7175 39.4707 51.1711C39.4707 51.6252 39.8333 51.9933 40.2809 51.9933C40.7286 51.9933 41.0912 51.6252 41.0912 51.1711Z" fill="#4EB8F4"></path><path d="M34.2371 44.946H16.9519C16.4662 44.946 16.073 45.3392 16.073 45.8249C16.073 46.3106 16.4662 46.7038 16.9519 46.7038H34.2371C34.7227 46.7038 35.116 46.3106 35.116 45.8249C35.116 45.3392 34.7227 44.946 34.2371 44.946Z" fill="#4EB8F4"></path><path d="M34.2371 49.1849H16.9519C16.4662 49.1849 16.073 49.5781 16.073 50.0638C16.073 50.549 16.4662 50.9427 16.9519 50.9427H34.2371C34.7227 50.9427 35.116 50.549 35.116 50.0638C35.116 49.5781 34.7227 49.1849 34.2371 49.1849Z" fill="#4EB8F4"></path><path d="M11.7764 52.6465C11.7764 54.0197 12.8933 55.1367 14.2666 55.1367H45.8486C47.2215 55.1367 48.3389 54.0197 48.3389 52.6465V49.8349C48.3389 49.3492 47.9452 48.956 47.46 48.956C46.9743 48.956 46.5811 49.3492 46.5811 49.8349V52.6465C46.5811 53.0502 46.2524 53.3789 45.8486 53.3789H14.2666C13.8629 53.3789 13.5342 53.0502 13.5342 52.6465V43.2417C13.5342 42.838 13.8629 42.5093 14.2666 42.5093H45.8486C46.2524 42.5093 46.5811 42.838 46.5811 43.2417V46.5536C46.5811 47.0393 46.9743 47.4325 47.46 47.4325C47.9452 47.4325 48.3389 47.0393 48.3389 46.5536V43.2417C48.3389 41.8689 47.2215 40.7515 45.8486 40.7515H14.2666C12.8933 40.7515 11.7764 41.8689 11.7764 43.2417V52.6465Z" fill="#4EB8F4"></path><path d="M49.4728 0H10.6421C8.45718 0 6.67969 1.7775 6.67969 3.9624V6.31943C6.67969 6.80466 7.07336 7.19833 7.55859 7.19833C8.04428 7.19833 8.4375 6.80466 8.4375 6.31943V3.9624C8.4375 2.74658 9.42673 1.75781 10.6421 1.75781H49.4728C50.6882 1.75781 51.6774 2.74658 51.6774 3.9624V56.0376C51.6774 57.2534 50.6886 58.2422 49.4728 58.2422H10.6421C9.42673 58.2422 8.4375 57.2534 8.4375 56.0376V9.60068C8.4375 9.11499 8.04428 8.72177 7.55859 8.72177C7.07291 8.72177 6.67969 9.11499 6.67969 9.60068V56.0376C6.67969 58.2225 8.45718 60 10.6421 60H49.4728C51.6577 60 53.4352 58.2225 53.4352 56.0376V3.9624C53.4352 1.7775 51.6577 0 49.4728 0Z" fill="#4EB8F4"></path></svg> 