<?xml version="1.0" encoding="UTF-8"?> <svg xmlns="http://www.w3.org/2000/svg" width="56" height="60" viewBox="0 0 56 60" fill="none"><path d="M24.6423 58.6926C25.6047 59.5653 26.8081 59.9998 28.0103 59.9998C29.2076 59.9998 30.4013 59.569 31.3472 58.7103L53.8604 38.6943C55.4001 37.2932 55.9115 35.1334 55.1603 33.1928C54.4078 31.2503 52.5783 29.9956 50.496 29.9956H46.7515V4.99927C46.7515 2.2421 44.5094 0 41.7522 0H14.2562C11.499 0 9.25694 2.2421 9.25694 4.99927V29.9956H5.51237C3.43015 29.9956 1.60059 31.2503 0.849353 33.1928C0.0981199 35.1334 0.60952 37.2931 2.17057 38.7132L24.6423 58.6926ZM9.25694 34.9949C12.0141 34.9949 14.2562 32.7528 14.2562 29.9956V4.99927H41.7522V29.9956C41.7522 32.7528 43.9943 34.9949 46.7515 34.9949L50.5174 34.976L27.9841 54.9731L5.51237 34.9949H9.25694Z" fill="#4EB8F4"></path><path d="M29.5233 34.166H23.6346V39H20.2772V34.166H16.6385V31.3887H20.2772V28.9805H16.6385V26.2207H20.2772V13.4063H29.7167C32.4589 13.4063 34.6327 14.1035 36.2382 15.4981C37.8436 16.8926 38.6464 18.7793 38.6464 21.1582C38.6464 23.6543 37.8729 25.582 36.326 26.9414C34.7909 28.2891 32.6053 28.9688 29.7694 28.9805H23.6346V31.3887H29.5233V34.166ZM23.6346 26.2207H29.7167C31.5331 26.2207 32.9159 25.793 33.8651 24.9375C34.8143 24.082 35.2889 22.834 35.2889 21.1934C35.2889 19.7051 34.7967 18.5039 33.8124 17.5898C32.828 16.6641 31.4979 16.1953 29.8221 16.1836H23.6346V26.2207Z" fill="#4EB8F4"></path></svg> 