<svg width="121" height="27" viewBox="0 0 121 27" fill="none" xmlns="http://www.w3.org/2000/svg">
<path d="M23.6256 3.87338C24.1718 0.937609 22.5333 0.732788 22.5333 0.732788H12.9749C9.97092 2.16653 11.6095 5.30712 12.9749 5.30712L14.2721 5.58022C15.1597 5.58022 15.3645 7.4236 14.2721 7.76497H2.73388C-0.133577 9.47181 1.36844 11.9979 2.73388 12.4076H13.8625C13.8625 12.4076 15.6376 13.5 13.8625 14.5923H8.60541C6.69375 15.2068 6.14756 17.8695 8.12749 19.3715L11.9508 19.508C12.9749 20.3273 12.4287 20.9418 11.9508 21.6245H9.76606C8.60541 21.1466 6.01101 24.5603 9.21987 26.2671H18.4368C18.4368 26.2671 19.3927 26.2671 19.8706 25.1065L23.6256 3.87338Z" fill="#4EB8F4"/>
<path d="M5.80623 16.7771C5.80623 18.2099 4.64468 19.3715 3.21183 19.3715C1.77898 19.3715 0.617432 18.2099 0.617432 16.7771C0.617432 15.3442 1.77898 14.1827 3.21183 14.1827C4.64468 14.1827 5.80623 15.3442 5.80623 16.7771Z" fill="#4EB8F4"/>
<path d="M29.4551 4.06727C29.56 4.05416 29.7238 4.04761 29.9467 4.04761H30.4579C31.3362 4.04761 32.1948 4.11315 33.0338 4.24424C33.4663 4.30978 33.8006 4.37532 34.0366 4.44086V7.25265C33.8399 7.23954 33.5122 7.20677 33.0534 7.15433C32.4373 7.08879 31.8999 7.05602 31.4411 7.05602C30.9298 7.05602 30.5169 7.07568 30.2023 7.11501C29.9008 7.14122 29.6518 7.19366 29.4551 7.27231V4.06727ZM30.4579 17.8902C29.1471 17.8902 28.1049 17.7788 27.3315 17.556C26.5712 17.32 25.9945 16.9333 25.6012 16.3959C25.2211 15.8846 24.9589 15.2095 24.8147 14.3706C24.6836 13.5185 24.6181 12.3846 24.6181 10.9689C24.6181 9.72361 24.664 8.71425 24.7557 7.94084C24.8606 7.16744 25.0441 6.51857 25.3063 5.99423C25.5815 5.45678 25.9814 5.04386 26.5057 4.75547C27.0432 4.45397 27.751 4.25079 28.6293 4.14592V10.9689C28.6293 11.703 28.6424 12.4109 28.6686 13.0925C28.6948 13.6168 28.7931 14.0101 28.9636 14.2723C29.1471 14.5344 29.4289 14.6983 29.8091 14.7638C30.1761 14.8425 30.7201 14.8818 31.4411 14.8818C32.1883 14.8818 32.824 14.849 33.3484 14.7835C33.5581 14.7704 33.8137 14.7376 34.1152 14.6852V17.5363C33.4729 17.6805 32.7454 17.7788 31.9326 17.8312C31.4869 17.8706 30.9954 17.8902 30.4579 17.8902Z" fill="#4EB8F4"/>
<path d="M39.1166 13.2695L38.9397 12.8762L38.4284 11.8734L37.9369 10.8313C37.8844 10.7395 37.8189 10.6019 37.7402 10.4184L36.9341 8.74702L34.7711 4.20491H38.7824L43.0492 13.2891V17.7329H39.1166V13.2695ZM41.6531 8.39309L43.4818 4.20491H47.4143L45.8806 7.39029L45.2318 8.72736L43.5014 12.3257L41.6531 8.39309Z" fill="#4EB8F4"/>
<path d="M48.5904 4.20491H52.523V17.7329H48.5904V4.20491ZM53.3488 14.7245H54.155C54.522 14.7245 54.7973 14.718 54.9808 14.7049C55.1775 14.6786 55.3216 14.6262 55.4134 14.5475C55.5052 14.4689 55.5642 14.3575 55.5904 14.2133C55.6297 14.0691 55.6494 13.8593 55.6494 13.5841C55.6494 13.2957 55.6297 13.0794 55.5904 12.9352C55.5642 12.791 55.5052 12.6796 55.4134 12.6009C55.2561 12.4698 54.8366 12.4043 54.155 12.4043H53.3488V9.39589H54.037C54.404 9.39589 54.6793 9.38934 54.8628 9.37623C55.0595 9.35001 55.2037 9.29758 55.2954 9.21893C55.3872 9.14028 55.4462 9.03541 55.4724 8.90432C55.5117 8.76013 55.5314 8.5635 55.5314 8.31444C55.5314 8.05227 55.5117 7.85564 55.4724 7.72455C55.4462 7.58036 55.3872 7.46894 55.2954 7.39029C55.2037 7.31164 55.0595 7.26576 54.8628 7.25265C54.6793 7.22643 54.404 7.21332 54.037 7.21332H53.3488V4.20491H55.5904C58.2252 4.20491 59.5426 5.3388 59.5426 7.60658C59.5426 8.5635 59.3525 9.28447 58.9724 9.76949C58.6053 10.2545 58.0155 10.5953 57.2027 10.792V10.8706C58.0548 11.0672 58.6643 11.3753 59.0314 11.7948C59.4508 12.2929 59.6606 13.0663 59.6606 14.115C59.6606 15.321 59.3394 16.2254 58.6971 16.8284C58.0548 17.4314 57.0258 17.7329 55.61 17.7329H53.3488V14.7245Z" fill="#4EB8F4"/>
<path d="M61.763 4.20491H65.6955V17.7329H61.763V4.20491ZM66.5214 4.20491H71.5157V7.21332H66.5214V4.20491ZM66.5214 9.39589H70.5916V12.4043H66.5214V9.39589ZM66.5214 14.7245H71.5157V17.7329H66.5214V14.7245Z" fill="#4EB8F4"/>
<path d="M73.8794 4.20491H77.812V17.7329H73.8794V4.20491ZM79.4243 13.1318H78.6378V10.1234H79.3063C79.7127 10.1234 80.0207 10.1103 80.2305 10.0841C80.4402 10.0448 80.6041 9.97922 80.722 9.88746C80.8269 9.7957 80.899 9.65806 80.9383 9.47454C80.9777 9.29102 80.9973 9.0223 80.9973 8.66837C80.9973 8.31444 80.9777 8.04571 80.9383 7.86219C80.899 7.66557 80.8269 7.52137 80.722 7.42961C80.6172 7.33785 80.4599 7.27886 80.2501 7.25265C80.0535 7.22643 79.7389 7.21332 79.3063 7.21332H78.6378V4.20491H80.6631C81.5938 4.20491 82.3475 4.29667 82.9243 4.48019C83.5011 4.66371 83.9468 4.94554 84.2614 5.32569C84.5497 5.67962 84.7398 6.11876 84.8316 6.6431C84.9364 7.16744 84.9889 7.84253 84.9889 8.66837C84.9889 9.73016 84.8906 10.5494 84.6939 11.1262C84.4187 11.8603 83.9336 12.3781 83.2389 12.6796L85.2838 17.7329H81.1546L79.4243 13.1318Z" fill="#4EB8F4"/>
<path d="M87.1287 4.20491H91.0613V17.7329H87.1287V4.20491ZM91.8871 4.20491H96.4882V7.21332H91.8871V4.20491ZM91.8871 9.78915H95.7607V12.7976H91.8871V9.78915Z" fill="#4EB8F4"/>
<path d="M103.963 17.8902C102.587 17.8902 101.525 17.7788 100.778 17.556C100.031 17.3331 99.4804 16.9726 99.1264 16.4745C98.7987 16.0157 98.5955 15.4324 98.5169 14.7245C98.4382 14.0167 98.3989 12.9614 98.3989 11.5588V4.20491H102.331V12.3453C102.331 12.8303 102.345 13.2957 102.371 13.7414C102.397 14.0953 102.456 14.3509 102.548 14.5082C102.64 14.6655 102.797 14.7638 103.02 14.8032C103.216 14.8556 103.531 14.8818 103.963 14.8818H104.416C104.521 14.8818 104.639 14.8687 104.77 14.8425V17.8706C104.678 17.8837 104.547 17.8902 104.376 17.8902H103.963ZM105.596 4.20491H109.528V11.5588C109.528 12.8434 109.502 13.8135 109.449 14.4689C109.397 15.1243 109.253 15.6749 109.017 16.1206C108.755 16.6318 108.355 17.0251 107.817 17.3003C107.28 17.5756 106.539 17.7526 105.596 17.8312V4.20491Z" fill="#4EB8F4"/>
<path d="M112.034 4.20491H115.966V17.7329H112.034V4.20491ZM116.792 14.5672H121V17.7329H116.792V14.5672Z" fill="#4EB8F4"/>
<path d="M24.7262 24.6968C24.6782 24.6968 24.6388 24.6815 24.6082 24.651C24.5777 24.616 24.5624 24.5745 24.5624 24.5264V20.2727C24.5624 20.2246 24.5777 20.1853 24.6082 20.1547C24.6432 20.1241 24.6825 20.1088 24.7262 20.1088H25.5717C25.6198 20.1088 25.6591 20.1241 25.6897 20.1547C25.7247 20.1853 25.7421 20.2246 25.7421 20.2727V22.9075L27.6035 20.2334C27.656 20.1504 27.7303 20.1088 27.8264 20.1088H28.5867C28.6347 20.1088 28.6741 20.1241 28.7047 20.1547C28.7352 20.1853 28.7505 20.2246 28.7505 20.2727V24.533C28.7505 24.5767 28.7352 24.616 28.7047 24.651C28.6741 24.6815 28.6347 24.6968 28.5867 24.6968H27.7412C27.6931 24.6968 27.6516 24.6815 27.6166 24.651C27.5861 24.6204 27.5708 24.581 27.5708 24.533V21.9899L25.7094 24.5723C25.6526 24.6553 25.5783 24.6968 25.4865 24.6968H24.7262Z" fill="#4EB8F4"/>
<path d="M29.8339 24.6968C29.7859 24.6968 29.7465 24.6815 29.716 24.651C29.6854 24.6204 29.6701 24.581 29.6701 24.533V20.2727C29.6701 20.2246 29.6854 20.1853 29.716 20.1547C29.7509 20.1241 29.7902 20.1088 29.8339 20.1088H30.6794C30.7275 20.1088 30.7668 20.1241 30.7974 20.1547C30.8324 20.1853 30.8499 20.2246 30.8499 20.2727V21.8523H32.4622V20.2727C32.4622 20.2246 32.4775 20.1853 32.5081 20.1547C32.5387 20.1241 32.578 20.1088 32.6261 20.1088H33.4716C33.5196 20.1088 33.5589 20.1241 33.5895 20.1547C33.6201 20.1853 33.6354 20.2246 33.6354 20.2727V24.533C33.6354 24.581 33.6201 24.6204 33.5895 24.651C33.5589 24.6815 33.5196 24.6968 33.4716 24.6968H32.6261C32.578 24.6968 32.5387 24.6815 32.5081 24.651C32.4775 24.6204 32.4622 24.581 32.4622 24.533V22.901H30.8499V24.533C30.8499 24.581 30.8324 24.6204 30.7974 24.651C30.7668 24.6815 30.7275 24.6968 30.6794 24.6968H29.8339Z" fill="#4EB8F4"/>
<path d="M35.727 24.6968C35.6833 24.6968 35.644 24.6815 35.609 24.651C35.5784 24.616 35.5631 24.5767 35.5631 24.533V21.1379H34.3965C34.3528 21.1379 34.3135 21.1226 34.2785 21.092C34.2479 21.057 34.2326 21.0177 34.2326 20.974V20.2727C34.2326 20.2246 34.2479 20.1853 34.2785 20.1547C34.3135 20.1241 34.3528 20.1088 34.3965 20.1088H37.9227C37.9707 20.1088 38.0101 20.1241 38.0407 20.1547C38.0712 20.1853 38.0865 20.2246 38.0865 20.2727V20.974C38.0865 21.0221 38.0712 21.0614 38.0407 21.092C38.0101 21.1226 37.9707 21.1379 37.9227 21.1379H36.756V24.533C36.756 24.5767 36.7407 24.616 36.7101 24.651C36.6795 24.6815 36.6402 24.6968 36.5922 24.6968H35.727Z" fill="#4EB8F4"/>
<path d="M38.8461 24.6968C38.8024 24.6968 38.763 24.6815 38.7281 24.651C38.6975 24.616 38.6822 24.5767 38.6822 24.533V20.2727C38.6822 20.2246 38.6975 20.1853 38.7281 20.1547C38.763 20.1241 38.8024 20.1088 38.8461 20.1088H41.9069C41.955 20.1088 41.9943 20.1241 42.0249 20.1547C42.0555 20.1853 42.0708 20.2246 42.0708 20.2727V20.8888C42.0708 20.9325 42.0555 20.9718 42.0249 21.0068C41.9943 21.0374 41.955 21.0527 41.9069 21.0527H39.8161V21.9375H41.7627C41.8108 21.9375 41.8501 21.955 41.8807 21.9899C41.9113 22.0205 41.9266 22.0598 41.9266 22.1079V22.6781C41.9266 22.7218 41.9113 22.7611 41.8807 22.7961C41.8501 22.8267 41.8108 22.842 41.7627 22.842H39.8161V23.753H41.9593C42.0074 23.753 42.0467 23.7683 42.0773 23.7989C42.1079 23.8295 42.1232 23.8688 42.1232 23.9169V24.533C42.1232 24.5767 42.1079 24.616 42.0773 24.651C42.0467 24.6815 42.0074 24.6968 41.9593 24.6968H38.8461Z" fill="#4EB8F4"/>
<path d="M43.0321 24.6968C42.9884 24.6968 42.9491 24.6815 42.9141 24.651C42.8835 24.616 42.8682 24.5767 42.8682 24.533V20.2727C42.8682 20.2246 42.8835 20.1853 42.9141 20.1547C42.9491 20.1241 42.9884 20.1088 43.0321 20.1088H44.8673C45.4266 20.1088 45.8657 20.2377 46.1847 20.4955C46.508 20.7533 46.6697 21.1291 46.6697 21.6229C46.6697 22.1123 46.5102 22.4815 46.1912 22.7306C45.8723 22.9752 45.4309 23.0976 44.8673 23.0976H44.0873V24.533C44.0873 24.581 44.0698 24.6204 44.0349 24.651C44.0043 24.6815 43.965 24.6968 43.9169 24.6968H43.0321ZM44.8345 22.1931C45.0268 22.1931 45.1775 22.145 45.2868 22.0489C45.396 21.9484 45.4506 21.802 45.4506 21.6098C45.4506 21.4306 45.3982 21.2886 45.2933 21.1837C45.1928 21.0745 45.0399 21.0199 44.8345 21.0199H44.0677V22.1931H44.8345Z" fill="#4EB8F4"/>
<path d="M47.4613 24.6968C47.4133 24.6968 47.3739 24.6815 47.3434 24.651C47.3128 24.6204 47.2975 24.581 47.2975 24.533V20.2727C47.2975 20.2246 47.3128 20.1853 47.3434 20.1547C47.3783 20.1241 47.4176 20.1088 47.4613 20.1088H48.3068C48.3549 20.1088 48.3942 20.1241 48.4248 20.1547C48.4598 20.1853 48.4772 20.2246 48.4772 20.2727V21.8523H50.0896V20.2727C50.0896 20.2246 50.1049 20.1853 50.1355 20.1547C50.1661 20.1241 50.2054 20.1088 50.2535 20.1088H51.099C51.147 20.1088 51.1863 20.1241 51.2169 20.1547C51.2475 20.1853 51.2628 20.2246 51.2628 20.2727V24.533C51.2628 24.581 51.2475 24.6204 51.2169 24.651C51.1863 24.6815 51.147 24.6968 51.099 24.6968H50.2535C50.2054 24.6968 50.1661 24.6815 50.1355 24.651C50.1049 24.6204 50.0896 24.581 50.0896 24.533V22.901H48.4772V24.533C48.4772 24.581 48.4598 24.6204 48.4248 24.651C48.3942 24.6815 48.3549 24.6968 48.3068 24.6968H47.4613Z" fill="#4EB8F4"/>
<path d="M52.345 24.6968C52.3013 24.6968 52.262 24.6815 52.2271 24.651C52.1965 24.616 52.1812 24.5767 52.1812 24.533V20.2727C52.1812 20.2246 52.1965 20.1853 52.2271 20.1547C52.262 20.1241 52.3013 20.1088 52.345 20.1088H55.4059C55.4539 20.1088 55.4933 20.1241 55.5239 20.1547C55.5544 20.1853 55.5697 20.2246 55.5697 20.2727V20.8888C55.5697 20.9325 55.5544 20.9718 55.5239 21.0068C55.4933 21.0374 55.4539 21.0527 55.4059 21.0527H53.3151V21.9375H55.2617C55.3098 21.9375 55.3491 21.955 55.3797 21.9899C55.4102 22.0205 55.4255 22.0598 55.4255 22.1079V22.6781C55.4255 22.7218 55.4102 22.7611 55.3797 22.7961C55.3491 22.8267 55.3098 22.842 55.2617 22.842H53.3151V23.753H55.4583C55.5064 23.753 55.5457 23.7683 55.5763 23.7989C55.6069 23.8295 55.6222 23.8688 55.6222 23.9169V24.533C55.6222 24.5767 55.6069 24.616 55.5763 24.651C55.5457 24.6815 55.5064 24.6968 55.4583 24.6968H52.345Z" fill="#4EB8F4"/>
<path d="M57.5404 24.6968C57.4967 24.6968 57.4574 24.6815 57.4224 24.651C57.3919 24.616 57.3766 24.5767 57.3766 24.533V21.1379H56.2099C56.1662 21.1379 56.1269 21.1226 56.0919 21.092C56.0613 21.057 56.046 21.0177 56.046 20.974V20.2727C56.046 20.2246 56.0613 20.1853 56.0919 20.1547C56.1269 20.1241 56.1662 20.1088 56.2099 20.1088H59.7361C59.7842 20.1088 59.8235 20.1241 59.8541 20.1547C59.8847 20.1853 59.9 20.2246 59.9 20.2727V20.974C59.9 21.0221 59.8847 21.0614 59.8541 21.092C59.8235 21.1226 59.7842 21.1379 59.7361 21.1379H58.5694V24.533C58.5694 24.5767 58.5541 24.616 58.5236 24.651C58.493 24.6815 58.4536 24.6968 58.4056 24.6968H57.5404Z" fill="#4EB8F4"/>
<path d="M61.6288 24.6968C61.5938 24.6968 61.5611 24.6837 61.5305 24.6575C61.5043 24.6269 61.4912 24.5942 61.4912 24.5592C61.4912 24.533 61.4933 24.5133 61.4977 24.5002L63.038 20.2924C63.0511 20.2399 63.0795 20.1962 63.1232 20.1613C63.1669 20.1263 63.2237 20.1088 63.2936 20.1088H64.2636C64.3335 20.1088 64.3903 20.1263 64.434 20.1613C64.4777 20.1962 64.5061 20.2399 64.5192 20.2924L66.0529 24.5002L66.066 24.5592C66.066 24.5942 66.0507 24.6269 66.0202 24.6575C65.9939 24.6837 65.9612 24.6968 65.9218 24.6968H65.1157C65.0108 24.6968 64.9409 24.651 64.9059 24.5592L64.6503 23.8907H62.9003L62.6513 24.5592C62.6163 24.651 62.5442 24.6968 62.435 24.6968H61.6288ZM64.3881 22.9468L63.7786 21.2165L63.1691 22.9468H64.3881Z" fill="#4EB8F4"/>
<path d="M66.7465 24.6968C66.7028 24.6968 66.6635 24.6815 66.6285 24.651C66.5979 24.616 66.5826 24.5767 66.5826 24.533V20.2727C66.5826 20.2246 66.5979 20.1853 66.6285 20.1547C66.6635 20.1241 66.7028 20.1088 66.7465 20.1088H69.5714C69.6195 20.1088 69.6588 20.1241 69.6894 20.1547C69.72 20.1853 69.7353 20.2246 69.7353 20.2727V20.9281C69.7353 20.9762 69.72 21.0177 69.6894 21.0527C69.6588 21.0832 69.6195 21.0985 69.5714 21.0985H67.7624V24.533C67.7624 24.581 67.7449 24.6204 67.71 24.651C67.6794 24.6815 67.6401 24.6968 67.592 24.6968H66.7465Z" fill="#4EB8F4"/>
<path d="M70.4461 24.6968C70.4024 24.6968 70.3631 24.6815 70.3281 24.651C70.2975 24.616 70.2822 24.5767 70.2822 24.533V20.2727C70.2822 20.2246 70.2975 20.1853 70.3281 20.1547C70.3631 20.1241 70.4024 20.1088 70.4461 20.1088H73.5069C73.555 20.1088 73.5943 20.1241 73.6249 20.1547C73.6555 20.1853 73.6708 20.2246 73.6708 20.2727V20.8888C73.6708 20.9325 73.6555 20.9718 73.6249 21.0068C73.5943 21.0374 73.555 21.0527 73.5069 21.0527H71.4161V21.9375H73.3627C73.4108 21.9375 73.4501 21.955 73.4807 21.9899C73.5113 22.0205 73.5266 22.0598 73.5266 22.1079V22.6781C73.5266 22.7218 73.5113 22.7611 73.4807 22.7961C73.4501 22.8267 73.4108 22.842 73.3627 22.842H71.4161V23.753H73.5594C73.6074 23.753 73.6468 23.7683 73.6773 23.7989C73.7079 23.8295 73.7232 23.8688 73.7232 23.9169V24.533C73.7232 24.5767 73.7079 24.616 73.6773 24.651C73.6468 24.6815 73.6074 24.6968 73.5594 24.6968H70.4461Z" fill="#4EB8F4"/>
<path d="M74.6321 24.6968C74.584 24.6968 74.5447 24.6815 74.5141 24.651C74.4835 24.6204 74.4683 24.581 74.4683 24.533V20.2727C74.4683 20.2246 74.4835 20.1853 74.5141 20.1547C74.5491 20.1241 74.5884 20.1088 74.6321 20.1088H75.4776C75.5257 20.1088 75.565 20.1241 75.5956 20.1547C75.6305 20.1853 75.648 20.2246 75.648 20.2727V21.8523H77.2604V20.2727C77.2604 20.2246 77.2757 20.1853 77.3062 20.1547C77.3368 20.1241 77.3762 20.1088 77.4242 20.1088H78.2697C78.3178 20.1088 78.3571 20.1241 78.3877 20.1547C78.4183 20.1853 78.4336 20.2246 78.4336 20.2727V24.533C78.4336 24.581 78.4183 24.6204 78.3877 24.651C78.3571 24.6815 78.3178 24.6968 78.2697 24.6968H77.4242C77.3762 24.6968 77.3368 24.6815 77.3062 24.651C77.2757 24.6204 77.2604 24.581 77.2604 24.533V22.901H75.648V24.533C75.648 24.581 75.6305 24.6204 75.5956 24.651C75.565 24.6815 75.5257 24.6968 75.4776 24.6968H74.6321Z" fill="#4EB8F4"/>
<path d="M80.5252 24.6968C80.4815 24.6968 80.4421 24.6815 80.4072 24.651C80.3766 24.616 80.3613 24.5767 80.3613 24.533V21.1379H79.1947C79.151 21.1379 79.1116 21.1226 79.0767 21.092C79.0461 21.057 79.0308 21.0177 79.0308 20.974V20.2727C79.0308 20.2246 79.0461 20.1853 79.0767 20.1547C79.1116 20.1241 79.151 20.1088 79.1947 20.1088H82.7208C82.7689 20.1088 82.8082 20.1241 82.8388 20.1547C82.8694 20.1853 82.8847 20.2246 82.8847 20.2727V20.974C82.8847 21.0221 82.8694 21.0614 82.8388 21.092C82.8082 21.1226 82.7689 21.1379 82.7208 21.1379H81.5542V24.533C81.5542 24.5767 81.5389 24.616 81.5083 24.651C81.4777 24.6815 81.4384 24.6968 81.3903 24.6968H80.5252Z" fill="#4EB8F4"/>
<path d="M85.3614 24.7624C84.7366 24.7624 84.2472 24.6116 83.8933 24.3101C83.5437 24.0043 83.358 23.5629 83.3362 22.9862C83.3318 22.8682 83.3296 22.6759 83.3296 22.4094C83.3296 22.1385 83.3318 21.9419 83.3362 21.8195C83.358 21.2515 83.5481 20.8145 83.9064 20.5087C84.2647 20.1984 84.7497 20.0433 85.3614 20.0433C85.746 20.0433 86.0912 20.1088 86.397 20.2399C86.7029 20.3666 86.9432 20.5502 87.118 20.7905C87.2971 21.0264 87.3889 21.3039 87.3933 21.6229V21.636C87.3933 21.6709 87.378 21.7015 87.3474 21.7277C87.3212 21.7496 87.2906 21.7605 87.2556 21.7605H86.3708C86.314 21.7605 86.2703 21.7496 86.2397 21.7277C86.2091 21.7015 86.1829 21.6557 86.1611 21.5901C86.0999 21.3673 86.0038 21.2121 85.8727 21.1248C85.7416 21.033 85.569 20.9871 85.3549 20.9871C84.8393 20.9871 84.5728 21.2755 84.5553 21.8523C84.5509 21.9703 84.5487 22.1516 84.5487 22.3963C84.5487 22.641 84.5509 22.8267 84.5553 22.9534C84.5728 23.5302 84.8393 23.8186 85.3549 23.8186C85.569 23.8186 85.7438 23.7727 85.8792 23.6809C86.0147 23.5848 86.1086 23.4297 86.1611 23.2156C86.1785 23.15 86.2026 23.1063 86.2332 23.0845C86.2638 23.0583 86.3096 23.0452 86.3708 23.0452H87.2556C87.295 23.0452 87.3277 23.0583 87.3539 23.0845C87.3845 23.1107 87.3976 23.1435 87.3933 23.1828C87.3889 23.5018 87.2971 23.7814 87.118 24.0217C86.9432 24.2577 86.7029 24.4412 86.397 24.5723C86.0912 24.699 85.746 24.7624 85.3614 24.7624Z" fill="#4EB8F4"/>
<path d="M89.2557 24.6968C89.212 24.6968 89.1726 24.6815 89.1377 24.651C89.1071 24.616 89.0918 24.5767 89.0918 24.533V21.1379H87.9251C87.8814 21.1379 87.8421 21.1226 87.8072 21.092C87.7766 21.057 87.7613 21.0177 87.7613 20.974V20.2727C87.7613 20.2246 87.7766 20.1853 87.8072 20.1547C87.8421 20.1241 87.8814 20.1088 87.9251 20.1088H91.4513C91.4994 20.1088 91.5387 20.1241 91.5693 20.1547C91.5999 20.1853 91.6152 20.2246 91.6152 20.2727V20.974C91.6152 21.0221 91.5999 21.0614 91.5693 21.092C91.5387 21.1226 91.4994 21.1379 91.4513 21.1379H90.2847V24.533C90.2847 24.5767 90.2694 24.616 90.2388 24.651C90.2082 24.6815 90.1689 24.6968 90.1208 24.6968H89.2557Z" fill="#4EB8F4"/>
<path d="M92.3747 24.6968C92.331 24.6968 92.2917 24.6815 92.2567 24.651C92.2262 24.616 92.2109 24.5767 92.2109 24.533V20.2727C92.2109 20.2246 92.2262 20.1853 92.2567 20.1547C92.2917 20.1241 92.331 20.1088 92.3747 20.1088H94.3738C94.9243 20.1088 95.3329 20.2225 95.5994 20.4497C95.8703 20.6725 96.0058 20.9915 96.0058 21.4066C96.0058 21.6251 95.949 21.8108 95.8354 21.9637C95.7261 22.1123 95.6016 22.2215 95.4618 22.2914C95.6409 22.3744 95.7917 22.5077 95.914 22.6912C96.0364 22.8747 96.0975 23.0801 96.0975 23.3073C96.0975 23.7443 95.9534 24.0851 95.665 24.3298C95.3766 24.5745 94.9658 24.6968 94.4328 24.6968H92.3747ZM94.2427 21.9309C94.4175 21.9309 94.5507 21.8872 94.6425 21.7998C94.7343 21.7081 94.7801 21.5879 94.7801 21.4394C94.7801 21.2952 94.7343 21.1794 94.6425 21.092C94.5507 21.0046 94.4175 20.9609 94.2427 20.9609H93.3906V21.9309H94.2427ZM94.3017 23.8448C94.4808 23.8448 94.6207 23.7923 94.7212 23.6875C94.8217 23.5826 94.8719 23.4559 94.8719 23.3073C94.8719 23.15 94.8217 23.0211 94.7212 22.9206C94.6207 22.8158 94.4808 22.7633 94.3017 22.7633H93.3906V23.8448H94.3017Z" fill="#4EB8F4"/>
<path d="M98.7003 24.7624C98.0842 24.7624 97.5991 24.6116 97.2452 24.3101C96.8913 24.0086 96.7034 23.5651 96.6815 22.9796C96.6772 22.8529 96.675 22.665 96.675 22.4159C96.675 22.1625 96.6772 21.9724 96.6815 21.8457C96.7034 21.269 96.8935 20.8254 97.2518 20.5152C97.6144 20.2006 98.0973 20.0433 98.7003 20.0433C99.3033 20.0433 99.7861 20.2006 100.149 20.5152C100.511 20.8254 100.701 21.269 100.719 21.8457C100.728 22.0992 100.732 22.2892 100.732 22.4159C100.732 22.5383 100.728 22.7262 100.719 22.9796C100.697 23.5651 100.509 24.0086 100.155 24.3101C99.8014 24.6116 99.3164 24.7624 98.7003 24.7624ZM98.7003 23.8186C98.9406 23.8186 99.1306 23.7465 99.2705 23.6023C99.4147 23.4581 99.4911 23.2374 99.4999 22.9403C99.5086 22.6869 99.513 22.5077 99.513 22.4028C99.513 22.2892 99.5086 22.1101 99.4999 21.8654C99.4911 21.5683 99.4147 21.3476 99.2705 21.2034C99.1263 21.0592 98.9362 20.9871 98.7003 20.9871C98.4643 20.9871 98.2742 21.0592 98.13 21.2034C97.9902 21.3476 97.9137 21.5683 97.9006 21.8654C97.8963 21.9877 97.8941 22.1669 97.8941 22.4028C97.8941 22.6344 97.8963 22.8136 97.9006 22.9403C97.9137 23.2374 97.9902 23.4581 98.13 23.6023C98.2699 23.7465 98.4599 23.8186 98.7003 23.8186Z" fill="#4EB8F4"/>
</svg>
