<svg width="234" height="27" viewBox="0 0 234 27" fill="none" xmlns="http://www.w3.org/2000/svg">
<path d="M152.782 0.915283H140.999V5.87138H147.002H152.485C155.079 5.87138 157.142 6.60424 158.673 8.06996C160.229 9.51083 161.007 11.4734 161.007 13.9577C161.007 16.4419 160.229 18.4169 158.673 19.8826C157.142 21.3235 155.079 22.0439 152.485 22.0439H147.002H140.999V27H152.782C155.598 27 158.08 26.4659 160.229 25.3977C162.403 24.3046 164.083 22.7768 165.268 20.8142C166.479 18.8517 167.084 16.5661 167.084 13.9577C167.084 11.3492 166.479 9.06366 165.268 7.10109C164.083 5.13853 162.403 3.62313 160.229 2.5549C158.08 1.46182 155.598 0.915283 152.782 0.915283Z" fill="white"/>
<path d="M216.629 27H222.513L224.48 22.3938L233.654 0.915283H227.734L219.792 19.5472L216.629 27Z" fill="white"/>
<path d="M211.96 0.915283H205.525L214.207 20.9705L217.399 13.9835L211.96 0.915283Z" fill="white"/>
<path d="M114.915 27H120.798L122.765 22.3938L131.939 0.915283H126.019L118.077 19.5472L114.915 27Z" fill="white"/>
<path d="M196.372 26.5424V21.6981H182.218H176.236V26.5424H196.372Z" fill="white"/>
<path d="M195.889 0.457642H176.236V5.30195H182.218H195.889V0.457642Z" fill="white"/>
<path d="M194.291 10.9661H182.218H176.236V15.6613H182.218H194.291V10.9661Z" fill="white"/>
<path d="M72.3552 26.5424V21.6131H57.8791H51.762V26.5424H72.3552Z" fill="white"/>
<path d="M71.8613 0H51.762V4.9293H57.8791H71.8613V0Z" fill="white"/>
<path d="M70.2275 10.6928H57.8791H51.762V15.4704H57.8791H70.2275V10.6928Z" fill="white"/>
<path d="M104.477 15.6247C103.621 14.4872 102.437 13.6783 100.926 13.198C102.034 12.6166 102.891 11.8203 103.495 10.8092C104.125 9.79803 104.44 8.64786 104.44 7.35866C104.44 5.23527 103.571 3.55425 101.833 2.31561C100.12 1.07696 97.6519 0.457642 94.4281 0.457642H81.5076V5.0836H87.59H93.6725C95.1836 5.0836 96.3296 5.34902 97.1104 5.87987C97.8911 6.38544 98.2815 7.15643 98.2815 8.19285C98.2815 9.22926 97.8911 10.0129 97.1104 10.5437C96.3296 11.0746 95.1836 11.34 93.6725 11.34H87.59H81.5076V15.8143H87.59H94.7303C97.9793 15.8143 99.6038 16.9139 99.6038 19.1131C99.6038 20.2254 99.1882 21.0469 98.3571 21.5778C97.5511 22.1086 96.3422 22.3741 94.7303 22.3741H87.59H81.5076V27H95.1836C98.6341 27 101.253 26.3807 103.042 25.142C104.855 23.8781 105.762 22.0834 105.762 19.7577C105.762 18.1146 105.334 16.737 104.477 15.6247Z" fill="white"/>
<path d="M33.8892 27L42.6091 0H36.707L30.5003 19.1314L27.7847 27H33.8892Z" fill="white"/>
<path d="M15.3454 27L21.3997 8.71714L25.0729 20.1696L28.2719 12.1339L24.4079 0H18.6962L12.4134 18.9771L9.53908 27H15.3454Z" fill="white"/>
<path d="M6.39707 0H0L1.6334 5.03566L6.84643 21.1071L10.3288 12.4017L6.39707 0Z" fill="white"/>
</svg>
