<svg width="60" height="60" viewBox="0 0 60 60" fill="none" xmlns="http://www.w3.org/2000/svg">
<path d="M15.5791 15.5769L16.9931 16.9914C16.9941 16.9903 16.9945 16.9902 16.9945 16.9901L16.9945 16.9901C16.9948 16.99 16.9955 16.9897 16.9966 16.9894C16.9976 16.9892 16.9983 16.9893 16.9984 16.9893C16.9984 16.9893 16.9984 16.9893 16.9984 16.9893L16.9986 16.9893L16.9994 16.9896L17.0001 16.9899L54.9861 32.1426L54.9865 32.1428C54.9882 32.1435 54.9899 32.1453 54.9901 32.1481L54.9901 32.1482C54.9903 32.1509 54.9891 32.1529 54.9871 32.1541L54.987 32.1541L46.4685 37.0745L44.2119 38.3779L46.0546 40.2206L57.9949 52.1614L57.995 52.1614C57.9958 52.1622 57.9963 52.1628 57.9967 52.1633C57.9968 52.1639 57.9969 52.1648 57.9969 52.1661C57.9969 52.1673 57.9968 52.1683 57.9967 52.1689C57.9963 52.1693 57.9958 52.17 57.995 52.1707L52.1686 57.9979L52.1683 57.9982C52.1672 57.9993 52.1658 57.9999 52.1641 57.9999C52.1627 57.9999 52.1609 57.9991 52.1599 57.9982L52.1596 57.9979L40.22 46.0571L38.3773 44.2142L37.0739 46.471L32.1539 54.9895L32.1535 54.9902C32.1525 54.9919 32.1508 54.9928 32.1488 54.9927L32.1477 54.9926C32.1453 54.9924 32.143 54.9909 32.142 54.9883C32.142 54.9883 32.142 54.9883 32.142 54.9883L16.9918 16.9981L16.9916 16.9976C16.9911 16.9963 16.9909 16.9935 16.9936 16.9909L15.5791 15.5769ZM15.5791 15.5769C15.012 16.1442 14.8369 16.9943 15.134 17.7389L50.7453 59.412C51.1215 59.7884 51.6322 59.9999 52.1641 59.9999C52.6965 59.9999 53.2068 59.7884 53.5829 59.412L59.4094 53.5848C60.1928 52.8011 60.1928 51.5308 59.4092 50.7472L48.9328 40.2704L48.4691 40.5382L47.4688 38.8064L48.883 37.3922L49.2616 37.7708L55.9874 33.886C56.653 33.5015 57.0403 32.7708 56.9849 32.0042C56.9296 31.2373 56.4411 30.5696 55.7272 30.285L17.7411 15.1322C16.9965 14.8349 16.1462 15.01 15.5791 15.5769Z" stroke="#FF9800" stroke-width="4"/>
<path d="M8.81012 5.97004C8.02648 5.18701 6.75638 5.18681 5.97234 5.97004C5.18891 6.75368 5.18891 8.02418 5.97234 8.80782L10.4307 13.2662C10.8224 13.6579 11.3358 13.8539 11.8495 13.8539C12.3628 13.8539 12.8764 13.6579 13.2681 13.2662C14.0517 12.4826 14.0517 11.2123 13.2681 10.4286L8.81012 5.97004Z" fill="#4EB8F4"/>
<path d="M10.3213 19.8414C10.3213 18.7335 9.42293 17.835 8.31465 17.835H2.0096C0.901516 17.835 0.00292969 18.7333 0.00292969 19.8414C0.00292969 20.9495 0.901314 21.8481 2.0096 21.8481H8.31465C9.42293 21.8479 10.3213 20.9495 10.3213 19.8414Z" fill="#4EB8F4"/>
<path d="M9.50848 26.0341L5.04949 30.4929C4.26606 31.2766 4.26606 32.5471 5.04949 33.3305C5.44141 33.7222 5.95494 33.9182 6.46828 33.9182C6.98161 33.9182 7.49535 33.7222 7.88707 33.3305L12.3459 28.8719C13.1295 28.0883 13.1295 26.8178 12.3459 26.0341C11.5624 25.2511 10.2925 25.2509 9.50848 26.0341Z" fill="#4EB8F4"/>
<path d="M19.8424 10.3188C20.9505 10.3188 21.8491 9.4204 21.8491 8.31212V2.00646C21.8491 0.898384 20.9507 0 19.8424 0C18.7345 0 17.8359 0.898182 17.8359 2.00646V8.31232C17.8359 9.4204 18.7343 10.3188 19.8424 10.3188Z" fill="#4EB8F4"/>
<path d="M27.4528 12.9305C27.9665 12.9305 28.4799 12.7345 28.8716 12.3428L33.3298 7.88443C34.1134 7.10079 34.1134 5.83029 33.3298 5.04665C32.5461 4.26342 31.2756 4.26342 30.4922 5.04665L26.034 9.50524C25.2504 10.2889 25.2504 11.5594 26.034 12.3428C26.4259 12.7345 26.9393 12.9305 27.4528 12.9305Z" fill="#4EB8F4"/>
</svg>
