<svg width="60" height="60" viewBox="0 0 60 60" fill="none" xmlns="http://www.w3.org/2000/svg">
<g clip-path="url(#clip0)">
<path d="M25.0135 4.01172C13.4199 4.01172 4.02148 13.4102 4.02148 25.0038C4.02148 36.5974 13.4199 45.9958 25.0135 45.9958C36.6071 45.9958 46.0056 36.5974 46.0056 25.0038C45.9929 13.4154 36.6019 4.02434 25.0135 4.01172ZM25.0135 6.01096C31.1882 6.01583 36.9744 9.02519 40.5236 14.0779L38.0246 16.577C37.4164 16.209 36.7202 16.012 36.0094 16.0072C33.8011 16.0072 32.0109 17.7974 32.0109 20.0057C32.0144 20.7173 32.2102 21.4146 32.5777 22.0239L26.0321 28.5694C24.7927 27.8137 23.2351 27.8137 21.9957 28.5694L17.4494 24.0231C17.8169 23.4139 18.0127 22.7165 18.0162 22.0049C18.0189 19.801 16.2346 18.0122 14.0307 18.0094C12.208 18.0072 10.6155 19.2401 10.1612 21.0053H6.45256C8.34522 12.2652 16.0709 6.02408 25.0135 6.01096ZM38.0086 20.0057C38.0086 21.1099 37.1136 22.0049 36.0094 22.0049C34.9051 22.0049 34.0101 21.1099 34.0101 20.0057C34.0101 18.9014 34.9051 18.0064 36.0094 18.0064C37.1136 18.0064 38.0086 18.9014 38.0086 20.0057ZM26.0131 32.0011C26.0131 33.1053 25.1181 34.0003 24.0139 34.0003C22.9097 34.0003 22.0147 33.1053 22.0147 32.0011C22.0147 30.8969 22.9097 30.0019 24.0139 30.0019C25.1181 30.0019 26.0131 30.8969 26.0131 32.0011ZM16.0169 22.0049C16.0169 23.1091 15.1219 24.0041 14.0177 24.0041C12.9135 24.0041 12.0185 23.1091 12.0185 22.0049C12.0185 20.9007 12.9135 20.0057 14.0177 20.0057C15.1219 20.0057 16.0169 20.9007 16.0169 22.0049ZM34.2418 41.6107C31.4188 43.1781 28.2425 43.9993 25.0135 43.9964C14.5312 44.0036 6.02785 35.5119 6.02073 25.0296C6.02023 24.3531 6.05596 23.677 6.12769 23.0044H10.1612C10.6156 24.7643 12.2 25.9964 14.0177 26.0033C14.7293 25.9998 15.4267 25.804 16.0359 25.4365L20.5822 29.9827C20.2147 30.592 20.0189 31.2894 20.0154 32.001C20.0154 34.2093 21.8056 35.9995 24.0139 35.9995C26.2222 35.9995 28.0124 34.2093 28.0124 32.001C28.0089 31.2894 27.8131 30.592 27.4456 29.9827L33.9911 23.4372C34.6004 23.8047 35.2978 24.0005 36.0094 24.004C38.2176 24.004 40.0078 22.2138 40.0078 20.0055C40.0043 19.2939 39.8085 18.5966 39.4411 17.9873L41.6202 15.8091C46.7077 24.9716 43.4042 36.5234 34.2418 41.6107Z" fill="#4EB8F4"/>
<path d="M50.0038 10.0094C51.8214 10.0026 53.4058 8.77065 53.8603 7.01057H60V5.01132H53.8603C53.4058 3.25124 51.8214 2.01933 50.0038 2.01246C47.7955 2.01246 46.0053 3.80266 46.0053 6.01095C46.0088 6.72255 46.2046 7.41991 46.5721 8.02918L44.8157 9.78551C36.412 -1.16296 20.724 -3.22593 9.77551 5.17776C-1.17297 13.5815 -3.23594 29.2696 5.16775 40.2181C13.1002 50.5526 27.6411 53.0595 38.5761 45.9778L41.5929 48.9946L43.0064 50.4081L51.0534 58.4551C53.1 60.5017 56.4179 60.5017 58.4645 58.4551C60.5111 56.4085 60.5111 53.0905 58.4645 51.0439L50.4176 42.9969L49.0041 41.5835L45.9873 38.5666C51.3426 30.3177 51.3426 19.6899 45.9873 11.4409L47.9865 9.44164C48.5954 9.80926 49.2925 10.0054 50.0038 10.0094ZM50.0038 4.0117C51.108 4.0117 52.003 4.90674 52.003 6.01095C52.003 7.11515 51.108 8.01019 50.0038 8.01019C48.8995 8.01019 48.0045 7.11515 48.0045 6.01095C48.0045 4.90674 48.8997 4.0117 50.0038 4.0117ZM57.0511 52.4573C58.3313 53.7089 58.3547 55.7613 57.1032 57.0416C55.8517 58.3219 53.7992 58.3452 52.5189 57.0937C52.5013 57.0766 52.4841 57.0592 52.4668 57.0416L44.4199 48.9946L49.0041 44.4104L57.0511 52.4573ZM47.5907 42.9969L43.0064 47.5812L40.2395 44.8142C40.3804 44.7063 40.5124 44.5873 40.6513 44.4764C40.7902 44.3654 40.9512 44.2325 41.1001 44.1075C41.319 43.9236 41.535 43.7376 41.7469 43.5467C41.8558 43.4468 41.9598 43.3468 42.0668 43.2468C42.4766 42.863 42.8735 42.4661 43.2573 42.0563C43.3573 41.9493 43.4572 41.8454 43.5572 41.7364C43.7481 41.5245 43.9341 41.3086 44.118 41.0896C44.2433 40.9417 44.3663 40.7921 44.4868 40.6408C44.5968 40.5029 44.7158 40.3709 44.8237 40.23L47.5907 42.9969ZM43.7141 38.3537C43.3993 38.7935 43.0744 39.2244 42.7315 39.6392C42.6315 39.7602 42.5246 39.8771 42.4216 39.9961C42.1157 40.3519 41.7999 40.6972 41.474 41.0317C41.332 41.1782 41.1877 41.3226 41.0412 41.4645C40.7079 41.7904 40.3628 42.1063 40.0055 42.4121C39.8866 42.5121 39.7696 42.6211 39.6487 42.722C39.2338 43.0649 38.803 43.3898 38.3632 43.7047C28.0151 51.0975 13.6332 48.7018 6.24035 38.3537C-1.15248 28.0056 1.24324 13.6237 11.5913 6.23086C21.9394 -1.16196 36.3213 1.23363 43.7141 11.5818C49.4346 19.589 49.4346 30.3465 43.7141 38.3537Z" fill="#4EB8F4"/>
<g clip-path="url(#clip1)">
<path d="M25.0135 4.01172C13.4199 4.01172 4.02148 13.4102 4.02148 25.0038C4.02148 36.5974 13.4199 45.9958 25.0135 45.9958C36.6071 45.9958 46.0056 36.5974 46.0056 25.0038C45.9929 13.4154 36.6019 4.02432 25.0135 4.01172ZM25.0135 6.01098C31.1882 6.01585 36.9744 9.02521 40.5236 14.0779L38.0246 16.577C37.4164 16.209 36.7202 16.012 36.0094 16.0072C33.8011 16.0072 32.0109 17.7974 32.0109 20.0057C32.0144 20.7173 32.2102 21.4146 32.5777 22.0239L26.0321 28.5694C24.7927 27.8137 23.2351 27.8137 21.9957 28.5694L17.4494 24.0231C17.8169 23.4139 18.0127 22.7165 18.0162 22.0049C18.0189 19.801 16.2346 18.0122 14.0307 18.0094C12.208 18.0072 10.6155 19.2401 10.1612 21.0053H6.45256C8.34522 12.2652 16.0709 6.0241 25.0135 6.01098ZM38.0086 20.0057C38.0086 21.1099 37.1136 22.0049 36.0094 22.0049C34.9051 22.0049 34.0101 21.1099 34.0101 20.0057C34.0101 18.9014 34.9051 18.0064 36.0094 18.0064C37.1136 18.0064 38.0086 18.9014 38.0086 20.0057ZM26.0131 32.0011C26.0131 33.1053 25.1181 34.0003 24.0139 34.0003C22.9097 34.0003 22.0147 33.1053 22.0147 32.0011C22.0147 30.8969 22.9097 30.0019 24.0139 30.0019C25.1181 30.0019 26.0131 30.8969 26.0131 32.0011ZM16.0169 22.0049C16.0169 23.1091 15.1219 24.0041 14.0177 24.0041C12.9135 24.0041 12.0185 23.1091 12.0185 22.0049C12.0185 20.9007 12.9135 20.0057 14.0177 20.0057C15.1219 20.0057 16.0169 20.9007 16.0169 22.0049ZM34.2418 41.6107C31.4188 43.1781 28.2426 43.9993 25.0135 43.9964C14.5312 44.0036 6.02785 35.5119 6.02073 25.0296C6.02023 24.3531 6.05596 23.677 6.12769 23.0044H10.1612C10.6156 24.7643 12.2 25.9964 14.0177 26.0033C14.7293 25.9998 15.4267 25.804 16.0359 25.4365L20.5822 29.9827C20.2147 30.592 20.0189 31.2894 20.0154 32.001C20.0154 34.2093 21.8056 35.9995 24.0139 35.9995C26.2222 35.9995 28.0124 34.2093 28.0124 32.001C28.0089 31.2894 27.8131 30.592 27.4456 29.9827L33.9911 23.4372C34.6004 23.8047 35.2978 24.0005 36.0094 24.004C38.2176 24.004 40.0078 22.2138 40.0078 20.0055C40.0043 19.2939 39.8085 18.5966 39.4411 17.9873L41.6202 15.8091C46.7077 24.9716 43.4042 36.5234 34.2418 41.6107Z" fill="#FF9800"/>
</g>
</g>
<defs>
<clipPath id="clip0">
<rect width="60" height="60" fill="white"/>
</clipPath>
<clipPath id="clip1">
<rect width="30" height="20" fill="white" transform="translate(10 16)"/>
</clipPath>
</defs>
</svg>
