<svg width="30" height="30" viewBox="0 0 30 30" fill="none" xmlns="http://www.w3.org/2000/svg">
<path d="M1.27193 21.8954L9.09614 14.2157C9.92193 13.4106 11.2432 13.4312 12.0483 14.2363L12.3167 14.5254L15.434 17.7046L15.7024 17.9937C16.5075 18.8195 16.4868 20.1408 15.6818 20.9458L7.85755 28.6255C7.03176 29.4306 5.71046 29.41 4.90537 28.6049L1.25133 24.8683C0.446239 24.0425 0.466845 22.7212 1.27193 21.9161V21.8954ZM10.9541 15.8673L10.6857 15.5782C10.6238 15.5163 10.5206 15.5163 10.4587 15.5782L2.63445 23.2579C2.57253 23.3198 2.57253 23.423 2.63445 23.4849L6.28849 27.2216C6.35041 27.2835 6.45363 27.2835 6.51555 27.2216L14.3398 19.5419C14.4017 19.48 14.4017 19.3768 14.3398 19.3149L14.0714 19.0258L10.9541 15.8466V15.8673Z" fill="#595959"/>
<path d="M14.3194 9.096L22.1436 1.41636C22.9694 0.611279 24.2907 0.631885 25.0958 1.43697L28.7498 5.17361C29.5549 5.9994 29.5343 7.3207 28.7292 8.12578L20.905 15.8054C20.0792 16.6105 18.7579 16.5899 17.9528 15.7848L17.6844 15.4957L14.5877 12.3165L14.5671 12.3371L14.2988 12.0481C13.4936 11.2224 13.5142 9.90108 14.3194 9.096ZM19.0469 14.1538L19.3152 14.4429C19.3771 14.5048 19.4804 14.5048 19.5423 14.4429L27.3665 6.76327C27.4284 6.70136 27.4284 6.59813 27.3665 6.53622L23.7124 2.79957C23.6505 2.73766 23.5473 2.73766 23.4854 2.79957L15.6612 10.4792C15.5993 10.5411 15.5993 10.6444 15.6612 10.7063L15.9295 10.9953L19.0469 14.1745V14.1538Z" fill="#595959"/>
<path d="M10.3761 17.8491L17.6429 10.7268C18.1177 10.2726 18.8815 10.2726 19.3357 10.7474C19.79 11.2222 19.79 11.9861 19.3151 12.4403L12.0483 19.5626C11.5735 20.0168 10.8097 20.0168 10.3555 19.542C9.90125 19.0672 9.90125 18.3033 10.3761 17.8491Z" fill="#595959"/>
<path d="M14.7321 16.9616L15.4339 17.6842L15.7023 17.9732C16.5074 18.799 16.4868 20.1203 15.6817 20.9254L7.85747 28.6049C7.03168 29.41 5.71038 29.3894 4.90529 28.5843L3.06787 26.7263L4.45109 25.3637L6.28851 27.2217C6.35043 27.2836 6.45365 27.2836 6.51557 27.2217L14.3398 19.5422C14.4017 19.4803 14.4017 19.377 14.3398 19.3151L14.0714 19.0261L13.3695 18.3035L14.7528 16.9409L14.7321 16.9616Z" fill="#777373"/>
<path d="M26.9327 3.29492L28.7702 5.15295C29.5752 5.97874 29.5546 7.30005 28.7496 8.10513L20.9253 15.7848C20.0995 16.5899 18.7782 16.5693 17.9732 15.7642L17.7048 15.4751L17.0029 14.7526L18.3861 13.4108L19.088 14.1333L19.3564 14.4224C19.4183 14.4843 19.5215 14.4843 19.5834 14.4224L27.4076 6.74272C27.4696 6.6808 27.4696 6.57758 27.4076 6.51566L25.5702 4.65763L26.9534 3.29502H26.9327V3.29492Z" fill="#777373"/>
<path d="M19.3565 10.7477C19.8107 11.2225 19.8107 11.9864 19.3359 12.4406L12.0691 19.5628C11.5943 20.017 10.8304 20.017 10.3762 19.5422L19.3565 10.7272V10.7477Z" fill="#FF9800"/>
</svg>
