<svg width="42" height="42" viewBox="0 0 42 42" fill="none" xmlns="http://www.w3.org/2000/svg">
<path d="M21 37.0474C29.8627 37.0474 37.0474 29.8627 37.0474 21C37.0474 12.1373 29.8627 4.95264 21 4.95264C12.1373 4.95264 4.95264 12.1373 4.95264 21C4.95264 29.8627 12.1373 37.0474 21 37.0474Z" fill="#F7F7F8"/>
<path d="M20.9994 4.7804C29.961 4.7804 37.2234 12.0428 37.2234 21.0044C37.2234 29.966 29.961 37.2284 20.9994 37.2284C12.0378 37.2284 4.77539 29.9662 4.77539 21.0046C4.77539 12.043 12.0378 4.7804 20.9994 4.7804ZM20.9994 6.19073C29.1776 6.19073 35.8082 12.8213 35.8082 20.9995C35.8082 29.1777 29.1776 35.8083 20.9994 35.8083C12.8212 35.8083 6.19061 29.1777 6.19061 20.9995C6.19061 12.8213 12.8214 6.19073 20.9994 6.19073Z" fill="#FF9800"/>
<path d="M2.06249 19.6971H8.99678C9.71171 19.6971 10.2995 20.2847 10.2995 20.9998C10.2995 21.7147 9.71191 22.3025 8.99678 22.3025H2.06249C1.34755 22.3025 0.759766 21.7149 0.759766 20.9998C0.759863 20.2847 1.34745 19.6971 2.06249 19.6971ZM19.697 39.9417V33.0074C19.697 32.2925 20.2845 31.7047 20.9997 31.7047C21.7146 31.7047 22.3024 32.2923 22.3024 33.0074V39.9417C22.3024 40.6566 21.7148 41.2444 20.9997 41.2444C20.2845 41.2443 19.697 40.6567 19.697 39.9417ZM19.697 2.06261V8.99691C19.697 9.71184 20.2845 10.2996 20.9997 10.2996C21.7146 10.2996 22.3024 9.71204 22.3024 8.99691V2.06261C22.3024 1.34767 21.7148 0.759888 20.9997 0.759888C20.2845 0.759985 19.697 1.34758 19.697 2.06261ZM39.9415 19.6971H33.0072C32.2923 19.6971 31.7045 20.2847 31.7045 20.9998C31.7045 21.7147 32.2921 22.3025 33.0072 22.3025H39.9415C40.6565 22.3025 41.2443 21.7149 41.2443 20.9998C41.2442 20.2847 40.6566 19.6971 39.9415 19.6971Z" fill="white"/>
<path d="M17.0768 23.3209H17.351L18.9573 22.4444L19.2168 21.4209C18.8348 21.034 18.4381 20.3778 18.0807 19.5748C18.0513 19.5796 18.022 19.5796 17.9925 19.5796C17.5665 19.5796 17.1454 19.1194 17.0523 18.5464C16.9788 18.1008 17.1258 17.7187 17.4 17.5767C17.0425 15.7452 16.8026 12.9294 19.9612 12.234C21.8564 11.8178 22.5322 13.2772 22.6154 13.4387C23.7613 12.7971 24.4911 13.7618 24.6771 14.2712C25.015 15.1919 24.9073 16.9107 24.7309 17.6698C24.9218 17.851 25.0149 18.1792 24.9513 18.5512C24.8583 19.1144 24.4518 19.5698 24.0306 19.5845C23.6927 20.324 23.2422 20.9606 22.7819 21.4209L23.0415 22.4444H23.066L24.6281 23.3209H24.9268C26.9885 23.3209 28.6779 24.9468 28.6779 26.9203V29.8389H13.3306V26.9203C13.3306 24.9419 15.02 23.3209 17.0817 23.3209H17.0768Z" fill="#595959"/>
<path d="M20.9995 12.1947C22.1062 12.3807 22.5421 13.3161 22.6107 13.4434C23.7566 12.8018 24.4864 13.7666 24.6724 14.2759C25.0103 15.1966 24.9026 16.9155 24.7262 17.6745C24.9171 17.8557 25.0102 18.1839 24.9466 18.556C24.8536 19.1191 24.4471 19.5745 24.0259 19.5893C23.6881 20.3287 23.2375 20.9653 22.7772 21.4257L23.0368 22.4491H23.0613L24.6234 23.3256H24.9221C26.9838 23.3256 28.6733 24.9515 28.6733 26.925V29.8436H20.9996V12.1996V12.1947H20.9995Z" fill="#777373"/>
</svg>
