<svg width="36" height="26" viewBox="0 0 36 26" fill="none" xmlns="http://www.w3.org/2000/svg">
<path d="M24.8554 0.212402C18.8141 0.212402 13.9116 3.69399 13.9116 7.97821C13.9116 12.2733 18.8141 15.744 24.8554 15.744C27.3392 15.744 29.6277 15.1583 31.4607 14.1713L35.7666 16.8829L33.8794 12.3709C35.0833 11.1237 35.7992 9.60519 35.7992 7.97821C35.7992 3.68315 30.8967 0.212402 24.8554 0.212402Z" fill="#F7F7F8"/>
<path d="M19.6816 4.97388H30.2024C30.5378 4.97388 30.8098 5.24342 30.8098 5.57585C30.8098 5.90828 30.5378 6.17782 30.2024 6.17782H19.6816C19.3462 6.17782 19.0742 5.90828 19.0742 5.57585C19.0742 5.24342 19.3462 4.97388 19.6816 4.97388Z" fill="#E6E6E6"/>
<path d="M19.6816 7.41443H30.2023C30.5378 7.41443 30.8097 7.68393 30.8097 8.01631C30.8097 8.34869 30.5378 8.61819 30.2023 8.61819H19.6816C19.3462 8.61819 19.0742 8.34869 19.0742 8.01631C19.0742 7.68393 19.3462 7.41443 19.6816 7.41443Z" fill="#E6E6E6"/>
<path d="M19.6816 9.84399H30.2023C30.5378 9.84399 30.8097 10.1135 30.8097 10.4459C30.8097 10.7783 30.5378 11.0478 30.2023 11.0478H19.6816C19.3462 11.0478 19.0742 10.7783 19.0742 10.4459C19.0742 10.1134 19.3462 9.84399 19.6816 9.84399Z" fill="#E6E6E6"/>
<path d="M19.5088 4.74634H30.0295C30.365 4.74634 30.637 5.01586 30.637 5.34826C30.637 5.68067 30.365 5.95019 30.0295 5.95019H19.5088C19.1733 5.95019 18.9014 5.68067 18.9014 5.34826C18.9015 5.01576 19.1733 4.74634 19.5088 4.74634Z" fill="#595959"/>
<path d="M19.5083 7.17578H30.029C30.3645 7.17578 30.6365 7.4453 30.6365 7.77771C30.6365 8.11011 30.3645 8.37963 30.029 8.37963H19.5083C19.1729 8.37963 18.9009 8.11011 18.9009 7.77771C18.901 7.4452 19.1729 7.17578 19.5083 7.17578Z" fill="#595959"/>
<path d="M19.5083 9.61609H30.029C30.3645 9.61609 30.6365 9.88563 30.6365 10.2181C30.6365 10.5505 30.3645 10.82 30.029 10.82H19.5083C19.1729 10.82 18.9009 10.5505 18.9009 10.2181C18.901 9.88563 19.1729 9.61609 19.5083 9.61609Z" fill="#595959"/>
<path d="M11.1459 9.10632C17.1872 9.10632 22.0897 12.5878 22.0897 16.872C22.0897 21.167 17.1872 24.6377 11.1459 24.6377C8.6621 24.6377 6.3736 24.052 4.54057 23.0651L0.234668 25.7766L2.12189 21.2647C0.917976 20.0174 0.202148 18.4991 0.202148 16.872C0.202148 12.5771 5.10464 9.10632 11.1459 9.10632Z" fill="#FF9800"/>
<path d="M5.79932 13.8676H16.3201C16.6555 13.8676 16.9275 14.1371 16.9275 14.4696C16.9275 14.802 16.6555 15.0716 16.3201 15.0716H5.79932C5.46387 15.0716 5.19189 14.802 5.19189 14.4696C5.19189 14.1371 5.46387 13.8676 5.79932 13.8676Z" fill="#FAC852"/>
<path d="M5.79884 16.297H16.3196C16.655 16.297 16.927 16.5665 16.927 16.899C16.927 17.2314 16.655 17.5009 16.3196 17.5009H5.79884C5.46338 17.5009 5.19141 17.2314 5.19141 16.899C5.19141 16.5665 5.46338 16.297 5.79884 16.297Z" fill="#FAC852"/>
<path d="M5.79884 18.7375H16.3196C16.655 18.7375 16.927 19.0071 16.927 19.3395C16.927 19.6719 16.655 19.9415 16.3196 19.9415H5.79884C5.46338 19.9415 5.19141 19.6719 5.19141 19.3395C5.19141 19.007 5.46338 18.7375 5.79884 18.7375Z" fill="#FAC852"/>
<path d="M5.97266 13.6399H16.4933C16.8288 13.6399 17.1007 13.9094 17.1007 14.2419C17.1007 14.5743 16.8288 14.8438 16.4933 14.8438H5.97266C5.63721 14.8438 5.36523 14.5743 5.36523 14.2419C5.36533 13.9093 5.63731 13.6399 5.97266 13.6399Z" fill="white"/>
<path d="M5.97217 16.0693H16.4929C16.8284 16.0693 17.1003 16.3389 17.1003 16.6714C17.1003 17.0039 16.8284 17.2735 16.4929 17.2735H5.97217C5.63672 17.2735 5.36475 17.0039 5.36475 16.6714C5.36484 16.3389 5.63682 16.0693 5.97217 16.0693Z" fill="white"/>
<path d="M5.97217 18.5096H16.4929C16.8284 18.5096 17.1003 18.7792 17.1003 19.1116C17.1003 19.444 16.8284 19.7136 16.4929 19.7136H5.97217C5.63672 19.7136 5.36475 19.444 5.36475 19.1116C5.36484 18.7792 5.63682 18.5096 5.97217 18.5096Z" fill="white"/>
</svg>
