<svg width="131" height="44" viewBox="0 0 131 44" fill="none" xmlns="http://www.w3.org/2000/svg">
<g clip-path="url(#clip0)">
<path d="M55.6846 22.5487C55.6846 28.6519 50.8937 33.1492 45.0142 33.1492C39.1346 33.1492 34.3438 28.6519 34.3438 22.5487C34.3438 16.4025 39.1346 11.9482 45.0142 11.9482C50.8937 11.9482 55.6846 16.4025 55.6846 22.5487ZM51.0136 22.5487C51.0136 18.7348 48.2369 16.1253 45.0142 16.1253C41.7915 16.1253 39.0147 18.7348 39.0147 22.5487C39.0147 26.3243 41.7915 28.9721 45.0142 28.9721C48.2369 28.9721 51.0136 26.3196 51.0136 22.5487Z" fill="#EA4335"/>
<path d="M78.7041 22.5487C78.7041 28.6519 73.9132 33.1492 68.0337 33.1492C62.1542 33.1492 57.3633 28.6519 57.3633 22.5487C57.3633 16.4073 62.1542 11.9482 68.0337 11.9482C73.9132 11.9482 78.7041 16.4025 78.7041 22.5487ZM74.0331 22.5487C74.0331 18.7348 71.2564 16.1253 68.0337 16.1253C64.811 16.1253 62.0343 18.7348 62.0343 22.5487C62.0343 26.3243 64.811 28.9721 68.0337 28.9721C71.2564 28.9721 74.0331 26.3196 74.0331 22.5487Z" fill="#FBBC05"/>
<path d="M100.764 12.5887V31.6198C100.764 39.4483 96.1317 42.6456 90.655 42.6456C85.4996 42.6456 82.3968 39.2093 81.2267 36.3991L85.2934 34.712C86.0176 36.4373 87.792 38.4733 90.6502 38.4733C94.1559 38.4733 96.3283 36.3178 96.3283 32.2602V30.7356H96.1653C95.1198 32.0213 93.1056 33.1444 90.5639 33.1444C85.2455 33.1444 80.373 28.5276 80.373 22.5869C80.373 16.6033 85.2455 11.9482 90.5639 11.9482C93.1008 11.9482 95.115 13.0714 96.1653 14.3188H96.3283V12.5934H100.764V12.5887ZM96.6592 22.5869C96.6592 18.8543 94.1607 16.1253 90.9811 16.1253C87.7584 16.1253 85.0584 18.8543 85.0584 22.5869C85.0584 26.2813 87.7584 28.9721 90.9811 28.9721C94.1607 28.9721 96.6592 26.2813 96.6592 22.5869Z" fill="#4285F4"/>
<path d="M108.078 1.43378V32.4992H103.522V1.43378H108.078Z" fill="#34A853"/>
<path d="M125.831 26.0376L129.457 28.4464C128.287 30.1717 125.467 33.1444 120.594 33.1444C114.552 33.1444 110.039 28.4894 110.039 22.5439C110.039 16.2401 114.59 11.9435 120.072 11.9435C125.591 11.9435 128.291 16.3213 129.174 18.6871L129.658 19.8914L115.439 25.7604C116.528 27.8872 118.221 28.9721 120.594 28.9721C122.973 28.9721 124.623 27.8059 125.831 26.0376ZM114.672 22.2237L124.177 18.2904C123.654 16.9665 122.081 16.0441 120.23 16.0441C117.856 16.0441 114.552 18.1327 114.672 22.2237Z" fill="#EA4335"/>
<path d="M17.099 19.791V15.2937H32.3061C32.4548 16.0775 32.5315 17.0047 32.5315 18.0083C32.5315 21.3825 31.606 25.5548 28.623 28.5276C25.7216 31.5385 22.0146 33.1444 17.1038 33.1444C8.00158 33.1444 0.347656 25.7556 0.347656 16.6845C0.347656 7.61339 8.00158 0.224609 17.1038 0.224609C22.1393 0.224609 25.7264 2.19368 28.4216 4.76016L25.2373 7.93361C23.3046 6.12703 20.6862 4.72192 17.099 4.72192C10.4522 4.72192 5.25365 10.0604 5.25365 16.6845C5.25365 23.3086 10.4522 28.647 17.099 28.647C21.4103 28.647 23.8657 26.9217 25.4387 25.3541C26.7144 24.0828 27.5536 22.2667 27.8845 19.7862L17.099 19.791Z" fill="#4285F4"/>
</g>
<defs>
<clipPath id="clip0">
<rect width="130.443" height="43.9695" fill="white" transform="translate(0.174805)"/>
</clipPath>
</defs>
</svg>
