<svg width="60" height="60" viewBox="0 0 60 60" fill="none" xmlns="http://www.w3.org/2000/svg">
<path d="M17.6735 24.9962C17.6735 24.9962 17.5889 24.0642 17.5473 23.5968C17.7675 23.4706 17.9784 23.3336 18.1758 23.1805C18.5263 23.382 19.2246 23.7862 19.2246 23.7862L20.4158 23.4733L21.7668 21.1379L21.4539 19.9467C21.4539 19.9467 20.5541 19.4243 20.1042 19.1665C20.0922 18.9073 20.064 18.6494 20.0116 18.4023C20.3688 18.0948 21.0806 17.4864 21.0806 17.4864V16.255L19.3226 14.2056H18.0912C18.0912 14.2056 17.507 14.7052 17.2156 14.9563C16.8986 14.8032 16.5642 14.677 16.2151 14.5817C16.1869 14.2352 16.1305 13.5409 16.1305 13.5409L15.2602 12.6707L12.5703 12.8882L11.7001 13.7584C11.7001 13.7584 11.774 14.673 11.8102 15.1296C11.547 15.2786 11.2986 15.4479 11.0662 15.6372C10.6889 15.4626 9.93011 15.1175 9.93011 15.1175L8.73892 15.4291L7.61219 17.884L7.57324 18.0518L7.92644 19.0751C7.92644 19.0751 8.80472 19.4767 9.24521 19.6781C9.26401 19.9682 9.30832 20.2489 9.38084 20.5242C9.04511 20.8062 8.37498 21.377 8.37498 21.377V22.6071L10.1195 24.6672C10.1195 24.6672 11.1334 24.788 11.1884 24.7571C11.2435 24.7276 11.3523 24.6672 11.3523 24.6672C11.3523 24.6672 11.9902 24.1273 12.3085 23.856C12.577 23.9769 12.8577 24.0776 13.1491 24.1568C13.1814 24.5194 13.2485 25.2433 13.2485 25.2433L14.1187 26.1135L16.8046 25.8678L17.6735 24.9962ZM14.5243 22.1062C13.0256 22.1062 11.8102 20.8908 11.8102 19.3921C11.8102 17.892 13.0256 16.6767 14.5243 16.6767C16.0257 16.6767 17.2411 17.892 17.2411 19.3921C17.2411 20.8895 16.0257 22.1062 14.5243 22.1062Z" fill="#595959"/>
<path d="M25.1376 33.826C25.1376 33.826 25.0731 33.121 25.0422 32.7664C25.2087 32.6724 25.3685 32.569 25.5176 32.4535C25.7822 32.6039 26.3099 32.9115 26.3099 32.9115L27.2111 32.6751L28.233 30.9091L27.9967 30.0094C27.9967 30.0094 27.3172 29.6145 26.976 29.4198C26.968 29.2237 26.9465 29.029 26.9062 28.8423C27.1761 28.6114 27.7147 28.1494 27.7147 28.1494V27.2187L26.3852 25.669H25.4531C25.4531 25.669 25.0113 26.0463 24.7911 26.2357C24.552 26.1202 24.2982 26.0249 24.035 25.9523C24.0135 25.6905 23.9719 25.1654 23.9719 25.1654L23.3138 24.5073L21.2806 24.6725L20.6226 25.3305C20.6226 25.3305 20.679 26.0222 20.7058 26.366C20.5071 26.4788 20.3177 26.6077 20.1432 26.75C19.8585 26.6184 19.285 26.3579 19.285 26.3579L18.3839 26.5943L17.5325 28.4502L17.5029 28.5764L17.7702 29.35C17.7702 29.35 18.4349 29.6535 18.7666 29.8052C18.7814 30.0255 18.815 30.235 18.87 30.4458C18.6162 30.6593 18.1099 31.0891 18.1099 31.0891V32.0197L19.4287 33.5776C19.4287 33.5776 20.1955 33.6689 20.2372 33.6461C20.2788 33.6232 20.3607 33.5776 20.3607 33.5776C20.3607 33.5776 20.8428 33.168 21.0832 32.9652C21.286 33.0552 21.4982 33.133 21.7198 33.1921C21.7453 33.4661 21.795 34.0127 21.795 34.0127L22.453 34.6707L24.4835 34.484L25.1376 33.826ZM22.7565 31.641C21.6231 31.641 20.7045 30.7198 20.7045 29.5877C20.7045 28.4542 21.6231 27.5357 22.7565 27.5357C23.8913 27.5357 24.8112 28.4556 24.8112 29.5877C24.8112 30.7198 23.8913 31.641 22.7565 31.641Z" fill="#595959"/>
<path d="M43.8514 8.22559C35.2324 8.22559 26.6147 8.22559 17.9957 8.22559C15.8309 8.22559 15.8309 11.5829 17.9957 11.5829C26.6147 11.5829 35.2324 11.5829 43.8514 11.5829C46.0162 11.5829 46.0162 8.22559 43.8514 8.22559Z" fill="#595959"/>
<path d="M43.851 16.1718C35.232 16.1718 40.0424 16.1718 31.4234 16.1718C29.2599 16.1718 29.2599 19.5291 31.4234 19.5291C40.0424 19.5291 35.232 19.5291 43.851 19.5291C46.0158 19.5291 46.0158 16.1718 43.851 16.1718Z" fill="#595959"/>
<path d="M9.66652 4.02883H48.6857V25.3373H52.7146V0H5.6377V13.1394H9.66652V4.02883Z" fill="#595959"/>
<path d="M45.6193 48.0679C45.6139 47.6395 45.5804 47.2125 45.5065 46.8015C46.1095 46.3167 47.3195 45.3485 47.3195 45.3485L47.3853 43.3193L44.5973 39.8464L42.5641 39.7806C42.5641 39.7806 41.5757 40.5756 41.0815 40.9718C40.5672 40.7032 40.0219 40.4763 39.4525 40.3003C39.4243 39.7269 39.3666 38.5787 39.3666 38.5787L37.9766 37.0988L33.5328 37.315L32.0502 38.7036C32.0502 38.7036 32.1241 40.2144 32.1576 40.9691C31.7172 41.2014 31.2968 41.4687 30.9047 41.7655C30.291 41.4593 29.0595 40.8483 29.0595 40.8483L27.0786 41.3008L25.0924 45.2894L25.0186 45.562L25.545 47.2689C25.545 47.2689 26.9725 47.9752 27.687 48.3311C27.7031 48.8106 27.7622 49.2779 27.8656 49.7318C27.2975 50.1804 26.1614 51.0868 26.1614 51.0868L26.0956 53.1133L28.8621 56.6023C28.8621 56.6023 30.5273 56.8548 30.6186 56.8078C30.7099 56.7608 30.8926 56.6681 30.8926 56.6681C30.8926 56.6681 31.9737 55.8113 32.5135 55.3829C32.9486 55.5978 33.4052 55.7791 33.8833 55.9228C33.9169 56.5217 33.9881 57.7196 33.9881 57.7196L35.378 59.1996L39.8164 58.939L41.2991 57.5531C41.2991 57.5531 41.2104 56.0101 41.1648 55.2379C41.5314 55.0418 41.8886 54.8243 42.2243 54.5839C42.7884 54.9357 43.9218 55.6394 43.9218 55.6394L45.9027 55.1855L48.2555 51.4078L47.8016 49.4256C47.8043 49.4243 46.3485 48.5191 45.6193 48.0679ZM36.2657 52.6151C33.7947 52.5359 31.8541 50.4677 31.9347 47.9981C32.0139 45.5217 34.0834 43.5852 36.5531 43.6631C39.0268 43.7436 40.9647 45.8104 40.8868 48.2855C40.8062 50.7578 38.7394 52.6943 36.2657 52.6151Z" fill="#595959"/>
<path d="M53.8732 38.5962C53.8732 38.5962 52.3073 37.6225 51.5231 37.1377C51.5177 36.6757 51.4841 36.2191 51.4022 35.7773C52.0522 35.2549 53.3535 34.2128 53.3535 34.2128L53.4247 32.0305L50.4245 28.2944L48.2396 28.2233C48.2396 28.2233 47.1746 29.076 46.6441 29.5058C46.0909 29.2144 45.5053 28.9699 44.8889 28.7819C44.8607 28.1642 44.8003 26.93 44.8003 26.93L43.3083 25.3359L38.5247 25.5696L36.932 27.063C36.932 27.063 37.0112 28.6866 37.0475 29.4977C36.5721 29.7488 36.1222 30.0336 35.7018 30.3572C35.0411 30.0268 33.7143 29.3715 33.7143 29.3715L31.5871 29.859L29.4478 34.1456L29.3672 34.4411L29.9353 36.2755C29.9353 36.2755 30.9371 36.7724 31.7281 37.1646L32.6144 36.3333L32.977 35.9962L33.4699 35.972L37.0367 35.7988C37.6612 33.7763 39.5574 32.3286 41.7733 32.4012C44.435 32.4858 46.5206 34.7097 46.4346 37.37C46.4132 38.0858 46.2252 38.7546 45.9257 39.3563L48.4303 42.4773L48.7418 42.8654L48.7257 43.3623L48.6841 44.6488C49.2038 44.9711 49.702 45.2813 49.702 45.2813L51.8319 44.7938L54.3607 40.7314L53.8732 38.5962Z" fill="#595959"/>
<path d="M7.95957 33.8274C8.3544 33.8274 8.68073 33.7199 8.93992 33.5077C9.19911 33.2969 9.39518 32.9961 9.52544 32.608C9.65571 32.2172 9.72151 31.7055 9.72151 31.0703C9.72151 30.5358 9.67988 30.1087 9.60065 29.7958C9.51873 29.4776 9.40592 29.2103 9.26491 28.9887C9.11988 28.7698 8.93992 28.6006 8.72236 28.4851C8.50346 28.3696 8.24965 28.3105 7.95957 28.3105C7.56609 28.3105 7.23976 28.4153 6.98057 28.6275C6.72138 28.8383 6.52531 29.1378 6.39236 29.5273C6.26344 29.9194 6.19629 30.4311 6.19629 31.0703C6.19629 32.0856 6.37356 32.8175 6.72809 33.2687C7.02757 33.6407 7.43717 33.8274 7.95957 33.8274ZM7.2223 29.2466C7.40359 28.9887 7.64801 28.8585 7.95286 28.8585C8.26173 28.8585 8.51958 29.0048 8.72908 29.2963C8.93589 29.589 9.04064 30.1799 9.04064 31.069C9.04064 31.9539 8.93589 32.5435 8.72908 32.8363C8.52092 33.1331 8.26442 33.2794 7.96092 33.2794C7.65607 33.2794 7.39957 33.1331 7.19275 32.8389C6.9846 32.5448 6.88119 31.9553 6.88119 31.069C6.8785 30.1853 6.99265 29.5756 7.2223 29.2466Z" fill="#595959"/>
<path d="M11.876 29.033C11.598 29.2815 11.273 29.4923 10.9023 29.6683V30.3088C11.1092 30.2336 11.3428 30.1195 11.602 29.9677C11.8612 29.816 12.0694 29.6615 12.2292 29.5111V33.7374H12.8926V28.3119H12.4642C12.35 28.5456 12.154 28.7846 11.876 29.033Z" fill="#595959"/>
<path d="M9.3915 37.0478C9.2478 36.8289 9.06919 36.6597 8.84895 36.5442C8.63005 36.4287 8.37623 36.3696 8.08616 36.3696C7.69402 36.3696 7.36634 36.4744 7.10715 36.6866C6.84797 36.8961 6.65458 37.1955 6.52163 37.5863C6.39137 37.9744 6.32422 38.4901 6.32422 39.1267C6.32422 40.142 6.50283 40.8752 6.85871 41.3237C7.1555 41.6971 7.56375 41.8851 8.08616 41.8851C8.48098 41.8851 8.80866 41.7777 9.06919 41.5655C9.3257 41.3533 9.52177 41.0511 9.65337 40.663C9.78364 40.2749 9.84944 39.7632 9.84944 39.1267C9.84944 38.5935 9.80915 38.1651 9.72858 37.8509C9.64532 37.534 9.53251 37.2681 9.3915 37.0478ZM8.85432 40.8967C8.64617 41.1921 8.39101 41.3399 8.08616 41.3399C7.78131 41.3399 7.52615 41.1921 7.318 40.898C7.10984 40.6053 7.00912 40.0144 7.00912 39.128C7.00912 38.243 7.12058 37.6347 7.34888 37.3043C7.53018 37.0478 7.7746 36.9162 8.07944 36.9162C8.38966 36.9162 8.64751 37.0626 8.85567 37.354C9.06382 37.6481 9.16723 38.2377 9.16723 39.1267C9.16589 40.0144 9.06248 40.6026 8.85432 40.8967Z" fill="#595959"/>
<path d="M13.0201 41.7938V36.3683H12.5918C12.4776 36.602 12.2802 36.8423 12.0035 37.0908C11.7269 37.3392 11.4019 37.5501 11.0312 37.726V38.3666C11.2367 38.2914 11.4704 38.1772 11.7296 38.0255C11.9888 37.8737 12.1983 37.7193 12.3567 37.5689V41.7951L13.0201 41.7938Z" fill="#595959"/>
<path d="M16.6565 41.7938V36.3683H16.2294C16.1153 36.602 15.9179 36.8423 15.6412 37.0908C15.3646 37.3392 15.0396 37.5501 14.6689 37.726V38.3666C14.8731 38.2914 15.1081 38.1772 15.3673 38.0255C15.6265 37.8737 15.8373 37.7193 15.9944 37.5689V41.7951L16.6565 41.7938Z" fill="#595959"/>
<path d="M21.4224 37.0478C21.2787 36.8289 21.1001 36.6597 20.8798 36.5442C20.6609 36.4287 20.4071 36.3696 20.1184 36.3696C19.7249 36.3696 19.3972 36.4744 19.138 36.6866C18.8789 36.8961 18.6855 37.1955 18.5525 37.5863C18.4222 37.9771 18.3564 38.4901 18.3564 39.128C18.3564 40.1433 18.5337 40.8752 18.8896 41.3264C19.1864 41.6984 19.596 41.8851 20.1184 41.8851C20.5119 41.8851 20.8395 41.7777 21.0987 41.5655C21.3579 41.3546 21.5513 41.0538 21.6829 40.6657C21.8132 40.2749 21.8803 39.7632 21.8803 39.128C21.8803 38.5935 21.8387 38.1665 21.7568 37.8536C21.6775 37.534 21.5661 37.2681 21.4224 37.0478ZM20.8852 40.8967C20.6771 41.1921 20.4219 41.3399 20.1184 41.3399C19.8122 41.3399 19.557 41.1921 19.3475 40.898C19.1394 40.6053 19.0387 40.0144 19.0387 39.128C19.0387 38.243 19.1528 37.6347 19.3784 37.3043C19.5624 37.0478 19.8041 36.9162 20.109 36.9162C20.4192 36.9162 20.6771 37.0626 20.8852 37.354C21.0934 37.6481 21.1968 38.2377 21.1968 39.1267C21.1981 40.0144 21.0947 40.6026 20.8852 40.8967Z" fill="#595959"/>
<path d="M9.3915 46.1059C9.2478 45.8857 9.06919 45.7178 8.84895 45.601C8.63005 45.4855 8.37623 45.4264 8.08616 45.4264C7.69402 45.4264 7.36634 45.5311 7.10715 45.7433C6.84797 45.9528 6.65458 46.255 6.52163 46.6431C6.39137 47.0339 6.32422 47.5456 6.32422 48.1848C6.32422 49.2014 6.50283 49.9333 6.85871 50.3818C7.1555 50.7552 7.56375 50.9445 8.08616 50.9445C8.48098 50.9445 8.80866 50.8371 9.06919 50.6249C9.3257 50.4127 9.52177 50.1106 9.65337 49.7225C9.78364 49.3344 9.84944 48.82 9.84944 48.1848C9.84944 47.653 9.80915 47.2232 9.72858 46.909C9.64532 46.5934 9.53251 46.3262 9.3915 46.1059ZM8.85432 49.9561C8.64617 50.2502 8.39101 50.3966 8.08616 50.3966C7.78131 50.3966 7.52615 50.2516 7.318 49.9561C7.10984 49.662 7.00912 49.0738 7.00912 48.1861C7.00912 47.3011 7.12058 46.6941 7.34888 46.3638C7.53018 46.1073 7.7746 45.9757 8.07944 45.9757C8.38966 45.9757 8.64751 46.122 8.85567 46.4135C9.06382 46.7076 9.16723 47.2971 9.16723 48.1861C9.16589 49.0711 9.06248 49.6607 8.85432 49.9561Z" fill="#595959"/>
<path d="M13.5891 46.1059C13.4441 45.8857 13.2641 45.7178 13.0466 45.601C12.8277 45.4855 12.5739 45.4264 12.2838 45.4264C11.8917 45.4264 11.564 45.5311 11.3048 45.7433C11.0456 45.9528 10.8495 46.255 10.7166 46.6431C10.5863 47.0339 10.5205 47.5456 10.5205 48.1835C10.5205 49.2001 10.6978 49.932 11.0523 50.3805C11.3504 50.7538 11.7587 50.9419 12.2811 50.9419C12.6759 50.9419 13.0036 50.8371 13.2615 50.6222C13.5206 50.4114 13.7167 50.1106 13.847 49.7198C13.9772 49.3317 14.043 48.82 14.043 48.1835C14.043 47.6503 14.0014 47.2219 13.9222 46.9077C13.8429 46.5934 13.7301 46.3262 13.5891 46.1059ZM13.052 49.9561C12.8438 50.2502 12.5886 50.3966 12.2838 50.3966C11.9789 50.3966 11.7224 50.2516 11.5156 49.9561C11.3075 49.662 11.2041 49.0738 11.2041 48.1861C11.2041 47.3011 11.3182 46.6941 11.5465 46.3638C11.7278 46.1073 11.9722 45.9757 12.2771 45.9757C12.5873 45.9757 12.8451 46.122 13.0533 46.4135C13.2601 46.7076 13.3649 47.2971 13.3649 48.1861C13.3635 49.0711 13.2588 49.6607 13.052 49.9561Z" fill="#595959"/>
<path d="M17.7847 46.1059C17.6423 45.8857 17.4624 45.7178 17.2448 45.601C17.0232 45.4855 16.7694 45.4264 16.482 45.4264C16.0899 45.4264 15.7622 45.5311 15.503 45.7433C15.2425 45.9528 15.0478 46.255 14.9148 46.6431C14.7846 47.0339 14.7188 47.5456 14.7188 48.1835C14.7188 49.2001 14.896 49.932 15.2506 50.3805C15.5487 50.7538 15.9569 50.9419 16.4793 50.9419C16.8728 50.9419 17.2019 50.8371 17.4597 50.6222C17.7189 50.4114 17.9123 50.1106 18.0439 49.7198C18.1741 49.3317 18.2413 48.82 18.2413 48.1835C18.2413 47.6503 18.1997 47.2219 18.1177 46.9077C18.0412 46.5934 17.9284 46.3262 17.7847 46.1059ZM17.2489 49.9561C17.042 50.2502 16.7842 50.3966 16.482 50.3966C16.1758 50.3966 15.9207 50.2516 15.7125 49.9561C15.5044 49.662 15.4023 49.0738 15.4023 48.1861C15.4023 47.3011 15.5165 46.6941 15.7434 46.3638C15.9261 46.1073 16.1705 45.9757 16.474 45.9757C16.7829 45.9757 17.042 46.122 17.2502 46.4135C17.4584 46.7076 17.5631 47.2971 17.5631 48.1861C17.5618 49.0711 17.457 49.6607 17.2489 49.9561Z" fill="#595959"/>
<path d="M21.417 50.8505V45.4264H20.9899C20.8745 45.6601 20.677 45.9004 20.399 46.1475C20.1211 46.3973 19.7974 46.6082 19.4268 46.7841V47.426C19.6336 47.3481 19.8659 47.234 20.1251 47.0822C20.3843 46.9305 20.5951 46.7761 20.7522 46.6256V50.8532H21.417V50.8505Z" fill="#595959"/>
<path d="M24.999 54.9425C24.721 55.1909 24.396 55.4018 24.0254 55.5777V56.2183C24.2322 56.1417 24.4659 56.0289 24.7251 55.8772C24.9843 55.7268 25.1924 55.5723 25.3522 55.4206V59.6468H26.0156V54.22H25.5872C25.4717 54.4536 25.2757 54.694 24.999 54.9425Z" fill="#595959"/>
<path d="M9.3915 55.1627C9.2478 54.9438 9.06919 54.7759 8.84895 54.6591C8.63005 54.5409 8.37623 54.4832 8.08616 54.4832C7.69402 54.4832 7.36634 54.5879 7.10715 54.7987C6.84797 55.0096 6.65458 55.3118 6.52163 55.6999C6.39137 56.0907 6.32422 56.605 6.32422 57.2429C6.32422 58.2582 6.50283 58.9887 6.85871 59.44C7.1555 59.8106 7.56375 59.9986 8.08616 59.9986C8.48098 59.9986 8.80866 59.8939 9.06919 59.6817C9.3257 59.4695 9.52177 59.166 9.65337 58.7765C9.78364 58.3884 9.84944 57.8754 9.84944 57.2429C9.84944 56.7071 9.80915 56.2787 9.72858 55.9658C9.64532 55.6502 9.53251 55.3829 9.3915 55.1627ZM8.85432 59.0129C8.64617 59.3083 8.39101 59.4561 8.08616 59.4561C7.78131 59.4561 7.52615 59.3083 7.318 59.0129C7.10984 58.7188 7.00912 58.1319 7.00912 57.2456C7.00912 56.3579 7.12058 55.7509 7.34888 55.4205C7.53018 55.164 7.7746 55.0351 8.07944 55.0351C8.38966 55.0351 8.64751 55.1788 8.85567 55.4729C9.06382 55.7643 9.16723 56.3552 9.16723 57.2456C9.16589 58.1292 9.06248 58.7188 8.85432 59.0129Z" fill="#595959"/>
<path d="M12.0035 55.2043C11.7256 55.4541 11.4019 55.6636 11.0312 55.8409V56.4815C11.2367 56.4049 11.4704 56.2921 11.7296 56.1403C11.9888 55.9899 12.1983 55.8342 12.3567 55.6837V59.91H13.0201V54.4832H12.5918C12.4776 54.7182 12.2802 54.9572 12.0035 55.2043Z" fill="#595959"/>
<path d="M15.6412 55.2043C15.3632 55.4541 15.0396 55.6636 14.6689 55.8409V56.4815C14.8731 56.4049 15.1081 56.2921 15.3673 56.1403C15.6265 55.9899 15.8373 55.8342 15.9944 55.6837V59.91H16.6578V54.4832H16.2308C16.1153 54.7182 15.9179 54.9572 15.6412 55.2043Z" fill="#595959"/>
<path d="M21.4224 55.1627C21.2787 54.9438 21.1001 54.7759 20.8798 54.6591C20.6609 54.5409 20.4071 54.4832 20.1184 54.4832C19.7249 54.4832 19.3972 54.5879 19.138 54.7987C18.8789 55.0096 18.6855 55.3118 18.5525 55.6999C18.4222 56.0907 18.3564 56.605 18.3564 57.2429C18.3564 58.2582 18.5337 58.9887 18.8896 59.44C19.1864 59.8106 19.596 59.9986 20.1184 59.9986C20.5119 59.9986 20.8395 59.8939 21.0987 59.6817C21.3579 59.4695 21.5513 59.166 21.6829 58.7765C21.8132 58.3884 21.8803 57.8754 21.8803 57.2429C21.8803 56.7071 21.8387 56.2787 21.7568 55.9658C21.6775 55.6502 21.5661 55.3829 21.4224 55.1627ZM20.8852 59.0129C20.6771 59.3083 20.4219 59.4561 20.1184 59.4561C19.8122 59.4561 19.557 59.3083 19.3475 59.0129C19.1394 58.7188 19.0387 58.1319 19.0387 57.2456C19.0387 56.3579 19.1528 55.7509 19.3784 55.4205C19.5624 55.164 19.8041 55.0351 20.109 55.0351C20.4192 55.0351 20.6771 55.1788 20.8852 55.4729C21.0934 55.7643 21.1968 56.3552 21.1968 57.2456C21.1981 58.1292 21.0947 58.7188 20.8852 59.0129Z" fill="#595959"/>
</svg>
