<svg width="60" height="60" viewBox="0 0 60 60" fill="none" xmlns="http://www.w3.org/2000/svg">
<g clip-path="url(#clip0)">
<path d="M59.6277 29.0991L44.3147 13.7861C43.8385 13.3099 42.996 13.3099 42.5199 13.7861L39.2 17.1059C38.7042 17.6018 38.7042 18.4056 39.2 18.9014L50.296 29.9962L39.2006 41.0929C38.7048 41.5887 38.7048 42.3925 39.2006 42.8883L42.5205 46.2082C42.7586 46.4463 43.0818 46.5809 43.4182 46.5809C43.7541 46.5809 44.0779 46.4463 44.316 46.2082L59.6277 30.8958C60.1236 30.3993 60.1236 29.5949 59.6277 29.0991Z" fill="#595959"/>
<path d="M20.798 41.0928L9.70385 29.9974L20.7999 18.9027C21.038 18.6646 21.1719 18.3421 21.1719 18.0049C21.1719 17.6684 21.0386 17.3453 20.7999 17.1072L17.48 13.7873C17.2419 13.5492 16.9188 13.4153 16.5823 13.4153C16.2458 13.4153 15.9226 13.5492 15.6846 13.7873L0.370912 29.0991C-0.12494 29.5949 -0.12494 30.3987 0.370912 30.8952L15.6839 46.2075C15.922 46.4456 16.2452 46.5802 16.5817 46.5802C16.9181 46.5802 17.2413 46.4456 17.4794 46.2075L20.7993 42.8877C21.2951 42.3925 21.2951 41.5887 20.798 41.0928Z" fill="#595959"/>
<path d="M38.7076 8.63458C38.5463 8.33872 38.2746 8.11904 37.9521 8.02381L35.2607 7.22956C34.589 7.0302 33.8818 7.41558 33.6837 8.08793L21.1896 50.3992C21.0944 50.7223 21.1312 51.0696 21.2918 51.3648C21.4524 51.6613 21.7248 51.8804 22.0473 51.9762L24.7387 52.7705C24.8586 52.806 24.9799 52.8232 25.0986 52.8232C25.6466 52.8232 26.1526 52.4651 26.3157 51.9121L38.8098 9.60025C38.905 9.27709 38.8688 8.9298 38.7076 8.63458Z" fill="#595959"/>
</g>
<defs>
<clipPath id="clip0">
<rect width="60" height="60" fill="white"/>
</clipPath>
</defs>
</svg>
