<svg width="100" height="100" viewBox="0 0 100 100" fill="none" xmlns="http://www.w3.org/2000/svg">
<path d="M98.0469 76.6846C99.1254 76.6846 100 75.81 100 74.7315V71.3161C99.9998 66.103 96.9971 61.5805 92.632 59.379C94.9029 57.4563 96.3484 54.5876 96.3484 51.386V48.9517C96.3484 43.1769 91.6502 38.4786 85.8754 38.4786C80.1006 38.4786 75.4024 43.1769 75.4024 48.9517V51.386C75.4024 54.169 76.4956 56.6999 78.2723 58.5774C74.8385 59.3434 71.5917 60.8052 68.6913 62.921L51.0054 75.8233C50.6397 76.0901 50.3046 76.3899 49.9999 76.7155C49.6952 76.3899 49.3599 76.0901 48.9944 75.8233L31.3085 62.921C28.4081 60.8052 25.1613 59.3434 21.7275 58.5774C23.5043 56.6999 24.5976 54.169 24.5976 51.386V48.9517C24.5976 43.1769 19.8994 38.4786 14.1246 38.4786C8.34979 38.4786 3.65156 43.1769 3.65156 48.9517V51.386C3.65156 54.5876 5.09706 57.4563 7.36795 59.379C3.00273 61.5805 0 66.103 0 71.3163V98.0426C0 99.1211 0.874608 99.9957 1.95312 99.9957H26.2958C27.3744 99.9957 28.249 99.1211 28.249 98.0426V80.1084L41.028 87.8135C43.2833 89.1733 45.9983 89.2117 48.2913 87.917C48.939 87.5512 49.5097 87.0993 49.9999 86.5832C50.4901 87.0994 51.0608 87.5514 51.7085 87.917C52.8243 88.5473 54.0401 88.8616 55.254 88.8616C56.5349 88.8616 57.814 88.5116 58.9716 87.8135L71.7508 80.1084V98.0426C71.7508 99.1211 72.6254 99.9957 73.704 99.9957H98.0467C99.1252 99.9957 99.9998 99.1211 99.9998 98.0426V90.986C99.9998 89.9075 99.1252 89.0328 98.0467 89.0328C96.9682 89.0328 96.0936 89.9075 96.0936 90.986V96.0895H75.6571V78.0651C75.6571 77.9639 75.6469 77.8653 75.6323 77.7682L77.7553 76.4881C78.6791 75.9311 78.9764 74.7309 78.4194 73.8071C77.8622 72.8833 76.6614 72.5854 75.7383 73.143L56.9546 84.4684C55.922 85.0911 54.6788 85.1086 53.6294 84.5157C52.5798 83.9229 51.953 82.8493 51.953 81.6436C51.953 80.5938 52.4595 79.5975 53.3077 78.9788L70.9936 66.0764C74.7758 63.3171 79.2496 61.8587 83.9317 61.8587H86.6362C91.851 61.8587 96.0938 66.1012 96.0938 71.3161V74.7315C96.0938 75.81 96.9684 76.6846 98.0469 76.6846ZM7.5576 48.9517C7.5576 45.3308 10.5035 42.3849 14.1244 42.3849C17.7453 42.3849 20.6912 45.3308 20.6912 48.9517V51.386C20.6912 55.0069 17.7453 57.9528 14.1244 57.9528C10.5035 57.9528 7.5576 55.0069 7.5576 51.386V48.9517ZM46.3704 84.5157C45.3204 85.1084 44.0775 85.0907 43.045 84.4684L24.2615 73.143C23.3378 72.5856 22.1373 72.8835 21.5804 73.8071C21.0234 74.7307 21.3207 75.9311 22.2445 76.4881L24.3652 77.7668C24.3503 77.8641 24.3425 77.9637 24.3425 78.0651V96.0895H3.90624V71.3163C3.90624 66.1014 8.14901 61.8589 13.3638 61.8589H16.0683C20.7504 61.8589 25.2242 63.3173 29.0064 66.0766L46.6923 78.979C47.5405 79.5977 48.047 80.594 48.047 81.6438C48.0468 82.8493 47.42 83.9229 46.3704 84.5157ZM92.4422 51.386C92.4422 55.0069 89.4963 57.9528 85.8754 57.9528C82.2545 57.9528 79.3086 55.0069 79.3086 51.386V48.9517C79.3086 45.3308 82.2545 42.3849 85.8754 42.3849C89.4963 42.3849 92.4422 45.3308 92.4422 48.9517V51.386Z" fill="#FF9800"/>
<path d="M80.6725 0.00427246H74.2272C73.1487 0.00427246 72.2741 0.878685 72.2741 1.95739C72.2741 3.0361 73.1487 3.91052 74.2272 3.91052H75.9571L53.1329 26.7349L38.1968 11.7988C37.8304 11.4326 37.3337 11.2267 36.8158 11.2267C36.2978 11.2267 35.8011 11.4326 35.4347 11.7988L21.5171 25.7163C20.7545 26.4792 20.7545 27.7157 21.5171 28.4786C22.28 29.2415 23.5164 29.2413 24.2794 28.4786L36.8159 15.9419L51.7521 30.878C52.1335 31.2595 52.6333 31.4501 53.1331 31.4501C53.6329 31.4501 54.1327 31.2595 54.5142 30.878L78.7194 6.67281V8.40269C78.7194 9.4814 79.594 10.3558 80.6725 10.3558C81.751 10.3558 82.6256 9.4814 82.6256 8.40269V1.95739C82.6256 0.878685 81.751 0.00427246 80.6725 0.00427246Z" fill="#64C1F5"/>
</svg>
