<svg width="183" height="141" viewBox="0 0 183 141" fill="none" xmlns="http://www.w3.org/2000/svg">
<g clip-path="url(#clip0)">
<path d="M175.661 62.126C175.661 65.0864 173.28 67.4808 170.336 67.4808H107.022C105.521 67.4808 104.167 66.8596 103.197 65.8482L61.4102 22.479L18.2155 65.9135C17.2491 66.8847 15.9195 67.4825 14.4483 67.4825C11.5059 67.4825 9.125 65.0864 9.125 62.1277C9.125 60.6491 9.72148 59.3113 10.6828 58.3451L57.7063 11.0611C58.671 10.095 60.004 9.49219 61.4735 9.49219C62.9747 9.49219 64.3309 10.1167 65.2973 11.1214L77.5401 23.8336H110.363V8.93796H124.49V23.8336H141.63C143.224 23.8336 144.659 24.5419 145.637 25.6571L174.343 58.598C175.164 59.5423 175.661 60.7814 175.661 62.126ZM46.7248 60.2657H58.3445V48.5816H46.7248V60.2657ZM64.2443 60.2657H75.8623V48.5816H64.2443V60.2657ZM46.7248 76.9865H58.3445V65.3024H46.7248V76.9865ZM64.2443 77.0468H75.8623V65.361H64.2443V77.0468Z" fill="url(#paint0_linear)"/>
<path d="M177.664 112.445H9.13818V114.708H177.664V112.445Z" fill="black"/>
</g>
<path d="M37.768 126.298V127.376H35.612V136H34.352V127.376H32.196V126.298H37.768ZM43.0053 132.332C43.0053 132.911 42.954 133.438 42.8513 133.914C42.7486 134.381 42.59 134.782 42.3753 135.118C42.17 135.454 41.904 135.715 41.5773 135.902C41.26 136.089 40.882 136.182 40.4433 136.182C40.0046 136.182 39.622 136.089 39.2953 135.902C38.9686 135.715 38.698 135.454 38.4833 135.118C38.278 134.782 38.124 134.381 38.0213 133.914C37.9186 133.438 37.8673 132.911 37.8673 132.332C37.8673 131.763 37.9186 131.24 38.0213 130.764C38.124 130.288 38.278 129.882 38.4833 129.546C38.698 129.201 38.9686 128.935 39.2953 128.748C39.622 128.561 40.0046 128.468 40.4433 128.468C40.882 128.468 41.26 128.561 41.5773 128.748C41.904 128.935 42.17 129.201 42.3753 129.546C42.59 129.882 42.7486 130.288 42.8513 130.764C42.954 131.24 43.0053 131.763 43.0053 132.332ZM41.7453 132.332C41.7453 131.921 41.722 131.548 41.6753 131.212C41.6286 130.867 41.554 130.573 41.4513 130.33C41.3486 130.078 41.2133 129.887 41.0453 129.756C40.8773 129.616 40.6766 129.546 40.4433 129.546C40.2006 129.546 39.9953 129.616 39.8273 129.756C39.6686 129.887 39.5333 130.078 39.4213 130.33C39.3186 130.573 39.244 130.867 39.1973 131.212C39.1506 131.548 39.1273 131.921 39.1273 132.332C39.1273 132.743 39.1506 133.121 39.1973 133.466C39.244 133.802 39.3186 134.091 39.4213 134.334C39.5333 134.577 39.6686 134.768 39.8273 134.908C39.9953 135.039 40.2006 135.104 40.4433 135.104C40.6766 135.104 40.8773 135.039 41.0453 134.908C41.2133 134.768 41.3486 134.577 41.4513 134.334C41.554 134.091 41.6286 133.802 41.6753 133.466C41.722 133.121 41.7453 132.743 41.7453 132.332ZM46.2098 127.936C46.1258 128.141 46.0558 128.375 45.9998 128.636C45.9531 128.888 45.9111 129.177 45.8738 129.504C46.0791 129.383 46.3031 129.294 46.5458 129.238C46.7884 129.182 47.0311 129.154 47.2738 129.154C48.0018 129.154 48.5758 129.429 48.9958 129.98C49.4158 130.521 49.6258 131.399 49.6258 132.612C49.6258 133.732 49.4204 134.609 49.0098 135.244C48.6084 135.869 47.9878 136.182 47.1478 136.182C46.6531 136.182 46.2424 136.07 45.9158 135.846C45.5891 135.622 45.3278 135.309 45.1318 134.908C44.9358 134.507 44.7958 134.026 44.7118 133.466C44.6278 132.897 44.5858 132.276 44.5858 131.604C44.5858 131.277 44.5904 130.941 44.5998 130.596C44.6091 130.251 44.6278 129.91 44.6558 129.574C44.6931 129.229 44.7444 128.893 44.8098 128.566C44.8751 128.239 44.9638 127.927 45.0758 127.628C45.2904 127.077 45.5611 126.653 45.8878 126.354C46.2144 126.046 46.5598 125.817 46.9238 125.668C47.2878 125.509 47.6518 125.402 48.0158 125.346C48.3798 125.281 48.7158 125.211 49.0238 125.136L49.2198 126.214C48.9024 126.289 48.5944 126.354 48.2958 126.41C48.0064 126.457 47.7311 126.531 47.4698 126.634C47.2084 126.737 46.9704 126.886 46.7558 127.082C46.5411 127.278 46.3591 127.563 46.2098 127.936ZM47.1058 130.204C46.8351 130.204 46.5971 130.246 46.3918 130.33C46.1864 130.414 46.0044 130.517 45.8458 130.638C45.8364 130.797 45.8318 130.96 45.8318 131.128C45.8318 131.296 45.8318 131.469 45.8318 131.646C45.8318 132.766 45.9251 133.629 46.1118 134.236C46.3078 134.833 46.6718 135.132 47.2038 135.132C47.5864 135.132 47.8758 134.945 48.0718 134.572C48.2678 134.189 48.3658 133.536 48.3658 132.612C48.3658 131.837 48.2678 131.245 48.0718 130.834C47.8758 130.414 47.5538 130.204 47.1058 130.204ZM56.0893 132.332C56.0893 132.911 56.038 133.438 55.9353 133.914C55.8326 134.381 55.674 134.782 55.4593 135.118C55.254 135.454 54.988 135.715 54.6613 135.902C54.344 136.089 53.966 136.182 53.5273 136.182C53.0886 136.182 52.706 136.089 52.3793 135.902C52.0526 135.715 51.782 135.454 51.5673 135.118C51.362 134.782 51.208 134.381 51.1053 133.914C51.0026 133.438 50.9513 132.911 50.9513 132.332C50.9513 131.763 51.0026 131.24 51.1053 130.764C51.208 130.288 51.362 129.882 51.5673 129.546C51.782 129.201 52.0526 128.935 52.3793 128.748C52.706 128.561 53.0886 128.468 53.5273 128.468C53.966 128.468 54.344 128.561 54.6613 128.748C54.988 128.935 55.254 129.201 55.4593 129.546C55.674 129.882 55.8326 130.288 55.9353 130.764C56.038 131.24 56.0893 131.763 56.0893 132.332ZM54.8293 132.332C54.8293 131.921 54.806 131.548 54.7593 131.212C54.7126 130.867 54.638 130.573 54.5353 130.33C54.4326 130.078 54.2973 129.887 54.1293 129.756C53.9613 129.616 53.7606 129.546 53.5273 129.546C53.2846 129.546 53.0793 129.616 52.9113 129.756C52.7526 129.887 52.6173 130.078 52.5053 130.33C52.4026 130.573 52.328 130.867 52.2813 131.212C52.2346 131.548 52.2113 131.921 52.2113 132.332C52.2113 132.743 52.2346 133.121 52.2813 133.466C52.328 133.802 52.4026 134.091 52.5053 134.334C52.6173 134.577 52.7526 134.768 52.9113 134.908C53.0793 135.039 53.2846 135.104 53.5273 135.104C53.7606 135.104 53.9613 135.039 54.1293 134.908C54.2973 134.768 54.4326 134.577 54.5353 134.334C54.638 134.091 54.7126 133.802 54.7593 133.466C54.806 133.121 54.8293 132.743 54.8293 132.332ZM61.285 136V129.686H59.773V130.428C59.773 131.324 59.717 132.122 59.605 132.822C59.5024 133.522 59.3297 134.124 59.087 134.628C58.8444 135.123 58.5457 135.496 58.191 135.748C57.8364 135.991 57.393 136.121 56.861 136.14L56.721 135.062C57.1224 134.997 57.4257 134.866 57.631 134.67C57.8457 134.465 58.0184 134.203 58.149 133.886C58.3077 133.466 58.4197 132.943 58.485 132.318C58.5504 131.683 58.583 130.974 58.583 130.19V128.65H62.489V136H61.285ZM65.878 135.048C65.99 135.067 66.0974 135.085 66.2 135.104C66.3027 135.113 66.4147 135.118 66.536 135.118C67.012 135.118 67.3667 135.011 67.6 134.796C67.8427 134.572 67.964 134.213 67.964 133.718C67.964 133.522 67.9407 133.34 67.894 133.172C67.8474 133.004 67.7727 132.859 67.67 132.738C67.5674 132.607 67.4274 132.505 67.25 132.43C67.0727 132.355 66.8534 132.318 66.592 132.318C66.4894 132.318 66.3774 132.327 66.256 132.346C66.1347 132.355 66.0087 132.369 65.878 132.388V135.048ZM64.674 128.65H65.878V131.366C66.158 131.31 66.4334 131.282 66.704 131.282C67.4507 131.282 68.0527 131.492 68.51 131.912C68.9767 132.332 69.21 132.929 69.21 133.704C69.21 134.161 69.14 134.549 69 134.866C68.8694 135.174 68.6827 135.426 68.44 135.622C68.1974 135.809 67.9127 135.944 67.586 136.028C67.2594 136.112 66.9 136.154 66.508 136.154C66.1814 136.154 65.864 136.131 65.556 136.084C65.2574 136.037 64.9634 135.977 64.674 135.902V128.65ZM72.9297 136.182C72.4257 136.182 72.0057 136.084 71.6697 135.888C71.3337 135.692 71.0583 135.426 70.8437 135.09C70.6383 134.745 70.489 134.339 70.3957 133.872C70.3117 133.405 70.2697 132.897 70.2697 132.346C70.2697 131.133 70.489 130.185 70.9277 129.504C71.3757 128.813 72.0477 128.468 72.9437 128.468C73.2143 128.468 73.457 128.501 73.6717 128.566C73.8863 128.631 74.087 128.715 74.2737 128.818L73.9657 129.812C73.6763 129.625 73.3543 129.532 72.9997 129.532C72.4957 129.532 72.1223 129.761 71.8797 130.218C71.6463 130.675 71.5297 131.385 71.5297 132.346C71.5297 132.747 71.553 133.121 71.5997 133.466C71.6463 133.802 71.7257 134.091 71.8377 134.334C71.959 134.577 72.113 134.768 72.2997 134.908C72.4957 135.048 72.743 135.118 73.0417 135.118C73.247 135.118 73.429 135.095 73.5877 135.048C73.7557 134.992 73.9143 134.922 74.0637 134.838L74.3297 135.776C74.1803 135.879 73.9797 135.972 73.7277 136.056C73.485 136.14 73.219 136.182 72.9297 136.182ZM80.1752 128.65C79.7832 129.322 79.4052 129.938 79.0412 130.498C78.6865 131.049 78.3319 131.567 77.9772 132.052C78.2012 132.313 78.4299 132.607 78.6632 132.934C78.8965 133.261 79.1205 133.601 79.3352 133.956C79.5499 134.301 79.7505 134.651 79.9372 135.006C80.1239 135.351 80.2825 135.683 80.4132 136H79.0972C78.9572 135.692 78.7939 135.37 78.6072 135.034C78.4205 134.698 78.2245 134.371 78.0192 134.054C77.8139 133.727 77.6085 133.419 77.4032 133.13C77.1979 132.841 77.0065 132.598 76.8292 132.402V136H75.6252V128.65H76.8292V131.814C76.9972 131.59 77.1745 131.338 77.3612 131.058C77.5572 130.778 77.7485 130.498 77.9352 130.218C78.1219 129.929 78.2992 129.649 78.4672 129.378C78.6352 129.107 78.7752 128.865 78.8872 128.65H80.1752ZM87.5402 136.21C86.4015 136.21 85.5289 135.785 84.9222 134.936C84.3155 134.087 84.0122 132.775 84.0122 131.002C84.0122 130.097 84.0962 129.331 84.2642 128.706C84.4415 128.081 84.6842 127.572 84.9922 127.18C85.3002 126.788 85.6642 126.508 86.0842 126.34C86.5042 126.163 86.9615 126.074 87.4562 126.074C87.8669 126.074 88.2495 126.13 88.6042 126.242C88.9589 126.345 89.2482 126.475 89.4722 126.634L89.0942 127.684C88.8702 127.535 88.6275 127.413 88.3662 127.32C88.1142 127.227 87.8202 127.18 87.4842 127.18C86.7375 127.18 86.1962 127.493 85.8602 128.118C85.5242 128.734 85.3562 129.695 85.3562 131.002C85.3562 132.318 85.5335 133.331 85.8882 134.04C86.2429 134.749 86.8215 135.104 87.6242 135.104C88.0069 135.104 88.3149 135.057 88.5482 134.964C88.7909 134.871 89.0242 134.749 89.2482 134.6L89.5982 135.594C89.3835 135.762 89.0989 135.907 88.7442 136.028C88.3989 136.149 87.9975 136.21 87.5402 136.21ZM89.864 128.65H94.736V129.686H92.902V136H91.698V129.686H89.864V128.65ZM97.2136 134.894C97.4843 135.043 97.7736 135.118 98.0816 135.118C98.315 135.118 98.5203 135.071 98.6976 134.978C98.875 134.885 99.0243 134.731 99.1456 134.516C99.2763 134.301 99.3743 134.017 99.4396 133.662C99.505 133.307 99.5376 132.869 99.5376 132.346C99.5376 131.338 99.407 130.619 99.1456 130.19C98.8936 129.751 98.4876 129.532 97.9276 129.532C97.825 129.532 97.713 129.541 97.5916 129.56C97.4703 129.569 97.3443 129.593 97.2136 129.63V134.894ZM97.2136 138.59H96.0096V128.846C96.271 128.734 96.565 128.645 96.8916 128.58C97.2276 128.505 97.5683 128.468 97.9136 128.468C98.427 128.468 98.8656 128.557 99.2296 128.734C99.603 128.911 99.9016 129.168 100.126 129.504C100.359 129.831 100.527 130.237 100.63 130.722C100.742 131.198 100.798 131.744 100.798 132.36C100.798 133.601 100.597 134.549 100.196 135.202C99.8036 135.855 99.1596 136.182 98.2636 136.182C98.049 136.182 97.8576 136.159 97.6896 136.112C97.5216 136.075 97.363 136.019 97.2136 135.944V138.59ZM107.277 132.332C107.277 132.911 107.225 133.438 107.123 133.914C107.02 134.381 106.861 134.782 106.647 135.118C106.441 135.454 106.175 135.715 105.849 135.902C105.531 136.089 105.153 136.182 104.715 136.182C104.276 136.182 103.893 136.089 103.567 135.902C103.24 135.715 102.969 135.454 102.755 135.118C102.549 134.782 102.395 134.381 102.293 133.914C102.19 133.438 102.139 132.911 102.139 132.332C102.139 131.763 102.19 131.24 102.293 130.764C102.395 130.288 102.549 129.882 102.755 129.546C102.969 129.201 103.24 128.935 103.567 128.748C103.893 128.561 104.276 128.468 104.715 128.468C105.153 128.468 105.531 128.561 105.849 128.748C106.175 128.935 106.441 129.201 106.647 129.546C106.861 129.882 107.02 130.288 107.123 130.764C107.225 131.24 107.277 131.763 107.277 132.332ZM106.017 132.332C106.017 131.921 105.993 131.548 105.947 131.212C105.9 130.867 105.825 130.573 105.723 130.33C105.62 130.078 105.485 129.887 105.317 129.756C105.149 129.616 104.948 129.546 104.715 129.546C104.472 129.546 104.267 129.616 104.099 129.756C103.94 129.887 103.805 130.078 103.693 130.33C103.59 130.573 103.515 130.867 103.469 131.212C103.422 131.548 103.399 131.921 103.399 132.332C103.399 132.743 103.422 133.121 103.469 133.466C103.515 133.802 103.59 134.091 103.693 134.334C103.805 134.577 103.94 134.768 104.099 134.908C104.267 135.039 104.472 135.104 104.715 135.104C104.948 135.104 105.149 135.039 105.317 134.908C105.485 134.768 105.62 134.577 105.723 134.334C105.825 134.091 105.9 133.802 105.947 133.466C105.993 133.121 106.017 132.743 106.017 132.332ZM113.701 128.608V136H112.567V130.68C112.371 131.044 112.152 131.459 111.909 131.926C111.667 132.393 111.424 132.869 111.181 133.354C110.948 133.839 110.724 134.315 110.509 134.782C110.304 135.239 110.131 135.645 109.991 136H109.039V128.608H110.159V133.452C110.327 133.069 110.523 132.659 110.747 132.22C110.971 131.772 111.2 131.333 111.433 130.904C111.667 130.465 111.895 130.05 112.119 129.658C112.353 129.257 112.567 128.907 112.763 128.608H113.701ZM111.377 126.592C111.629 126.592 111.825 126.513 111.965 126.354C112.105 126.195 112.203 125.939 112.259 125.584L113.141 125.78C113.048 126.387 112.843 126.821 112.525 127.082C112.208 127.343 111.825 127.474 111.377 127.474C110.929 127.474 110.547 127.343 110.229 127.082C109.912 126.821 109.707 126.387 109.613 125.78L110.495 125.584C110.551 125.939 110.649 126.195 110.789 126.354C110.929 126.513 111.125 126.592 111.377 126.592ZM121.829 136.21C120.691 136.21 119.818 135.785 119.211 134.936C118.605 134.087 118.301 132.775 118.301 131.002C118.301 130.097 118.385 129.331 118.553 128.706C118.731 128.081 118.973 127.572 119.281 127.18C119.589 126.788 119.953 126.508 120.373 126.34C120.793 126.163 121.251 126.074 121.745 126.074C122.156 126.074 122.539 126.13 122.893 126.242C123.248 126.345 123.537 126.475 123.761 126.634L123.383 127.684C123.159 127.535 122.917 127.413 122.655 127.32C122.403 127.227 122.109 127.18 121.773 127.18C121.027 127.18 120.485 127.493 120.149 128.118C119.813 128.734 119.645 129.695 119.645 131.002C119.645 132.318 119.823 133.331 120.177 134.04C120.532 134.749 121.111 135.104 121.913 135.104C122.296 135.104 122.604 135.057 122.837 134.964C123.08 134.871 123.313 134.749 123.537 134.6L123.887 135.594C123.673 135.762 123.388 135.907 123.033 136.028C122.688 136.149 122.287 136.21 121.829 136.21ZM125.943 132.682C125.953 133.037 125.985 133.363 126.041 133.662C126.097 133.951 126.186 134.208 126.307 134.432C126.438 134.647 126.606 134.815 126.811 134.936C127.026 135.057 127.297 135.118 127.623 135.118C127.894 135.118 128.141 135.081 128.365 135.006C128.599 134.922 128.767 134.852 128.869 134.796L129.093 135.762C128.972 135.846 128.767 135.935 128.477 136.028C128.197 136.131 127.861 136.182 127.469 136.182C126.956 136.182 126.522 136.089 126.167 135.902C125.822 135.715 125.537 135.454 125.313 135.118C125.099 134.782 124.945 134.381 124.851 133.914C124.758 133.447 124.711 132.934 124.711 132.374C124.711 131.021 124.935 130.031 125.383 129.406C125.831 128.781 126.424 128.468 127.161 128.468C127.992 128.468 128.58 128.781 128.925 129.406C129.271 130.031 129.443 130.909 129.443 132.038C129.443 132.141 129.443 132.248 129.443 132.36C129.443 132.463 129.439 132.57 129.429 132.682H125.943ZM127.161 129.49C126.76 129.49 126.466 129.691 126.279 130.092C126.102 130.493 125.995 131.03 125.957 131.702H128.183C128.183 131.021 128.113 130.484 127.973 130.092C127.833 129.691 127.563 129.49 127.161 129.49ZM132.405 134.894C132.676 135.043 132.965 135.118 133.273 135.118C133.506 135.118 133.712 135.071 133.889 134.978C134.066 134.885 134.216 134.731 134.337 134.516C134.468 134.301 134.566 134.017 134.631 133.662C134.696 133.307 134.729 132.869 134.729 132.346C134.729 131.338 134.598 130.619 134.337 130.19C134.085 129.751 133.679 129.532 133.119 129.532C133.016 129.532 132.904 129.541 132.783 129.56C132.662 129.569 132.536 129.593 132.405 129.63V134.894ZM132.405 138.59H131.201V128.846C131.462 128.734 131.756 128.645 132.083 128.58C132.419 128.505 132.76 128.468 133.105 128.468C133.618 128.468 134.057 128.557 134.421 128.734C134.794 128.911 135.093 129.168 135.317 129.504C135.55 129.831 135.718 130.237 135.821 130.722C135.933 131.198 135.989 131.744 135.989 132.36C135.989 133.601 135.788 134.549 135.387 135.202C134.995 135.855 134.351 136.182 133.455 136.182C133.24 136.182 133.049 136.159 132.881 136.112C132.713 136.075 132.554 136.019 132.405 135.944V138.59ZM139.99 136.182C139.486 136.182 139.066 136.084 138.73 135.888C138.394 135.692 138.119 135.426 137.904 135.09C137.699 134.745 137.55 134.339 137.456 133.872C137.372 133.405 137.33 132.897 137.33 132.346C137.33 131.133 137.55 130.185 137.988 129.504C138.436 128.813 139.108 128.468 140.004 128.468C140.275 128.468 140.518 128.501 140.732 128.566C140.947 128.631 141.148 128.715 141.334 128.818L141.026 129.812C140.737 129.625 140.415 129.532 140.06 129.532C139.556 129.532 139.183 129.761 138.94 130.218C138.707 130.675 138.59 131.385 138.59 132.346C138.59 132.747 138.614 133.121 138.66 133.466C138.707 133.802 138.786 134.091 138.898 134.334C139.02 134.577 139.174 134.768 139.36 134.908C139.556 135.048 139.804 135.118 140.102 135.118C140.308 135.118 140.49 135.095 140.648 135.048C140.816 134.992 140.975 134.922 141.124 134.838L141.39 135.776C141.241 135.879 141.04 135.972 140.788 136.056C140.546 136.14 140.28 136.182 139.99 136.182ZM147.348 128.608V136H146.214V130.68C146.018 131.044 145.798 131.459 145.556 131.926C145.313 132.393 145.07 132.869 144.828 133.354C144.594 133.839 144.37 134.315 144.156 134.782C143.95 135.239 143.778 135.645 143.638 136H142.686V128.608H143.806V133.452C143.974 133.069 144.17 132.659 144.394 132.22C144.618 131.772 144.846 131.333 145.08 130.904C145.313 130.465 145.542 130.05 145.766 129.658C145.999 129.257 146.214 128.907 146.41 128.608H147.348ZM151.775 136.182C151.271 136.182 150.851 136.084 150.515 135.888C150.179 135.692 149.904 135.426 149.689 135.09C149.484 134.745 149.335 134.339 149.241 133.872C149.157 133.405 149.115 132.897 149.115 132.346C149.115 131.133 149.335 130.185 149.773 129.504C150.221 128.813 150.893 128.468 151.789 128.468C152.06 128.468 152.303 128.501 152.517 128.566C152.732 128.631 152.933 128.715 153.119 128.818L152.811 129.812C152.522 129.625 152.2 129.532 151.845 129.532C151.341 129.532 150.968 129.761 150.725 130.218C150.492 130.675 150.375 131.385 150.375 132.346C150.375 132.747 150.399 133.121 150.445 133.466C150.492 133.802 150.571 134.091 150.683 134.334C150.805 134.577 150.959 134.768 151.145 134.908C151.341 135.048 151.589 135.118 151.887 135.118C152.093 135.118 152.275 135.095 152.433 135.048C152.601 134.992 152.76 134.922 152.909 134.838L153.175 135.776C153.026 135.879 152.825 135.972 152.573 136.056C152.331 136.14 152.065 136.182 151.775 136.182Z" fill="black"/>
<defs>
<linearGradient id="paint0_linear" x1="12.5" y1="9.49997" x2="164.5" y2="56" gradientUnits="userSpaceOnUse">
<stop offset="0.140874" stop-color="#828282"/>
<stop offset="1" stop-color="#4B4B4B"/>
</linearGradient>
<clipPath id="clip0">
<rect width="183" height="116" fill="white"/>
</clipPath>
</defs>
</svg>
