<svg width="150" height="148" viewBox="0 0 150 148" fill="none" xmlns="http://www.w3.org/2000/svg">
<path d="M75 147.262C116.421 147.262 150 114.318 150 73.68C150 33.042 116.421 0.0983276 75 0.0983276C33.5786 0.0983276 0 33.042 0 73.68C0 114.318 33.5786 147.262 75 147.262Z" fill="white"/>
<path d="M81.0847 147.072L42.0636 108.741L39.9867 103.861L31.9216 91.7794L28.2993 75.1016L30.714 60.224L37.7648 45.0148L54.2813 32.7907L71.2805 27.9105L88.2797 29.6635L111.026 41.2719L149.758 79.3182C147.005 115.375 117.739 144.182 81.0358 147.072L81.0847 147.072Z" fill="white"/>
<path d="M38.4414 105.33C30.8594 96.8967 26.2231 85.8094 26.2231 73.6803C26.2231 54.9178 37.1857 38.7135 53.219 30.8483L74.9998 73.68L38.4414 105.33Z" fill="#34ABEE"/>
<path d="M74.9998 25.8732C101.948 25.8732 123.776 47.2892 123.776 73.7275C123.776 100.166 101.948 121.581 74.9998 121.581C48.052 121.581 26.2231 100.166 26.2231 73.7275C26.2231 47.2892 48.052 25.8732 74.9998 25.8732ZM77.1247 30.8009V43.4041C92.5302 44.4463 104.845 56.5283 105.908 71.6428H118.754C117.692 49.5634 99.6297 31.8434 77.1247 30.8009ZM77.1247 47.3367V61.9774C82.1474 62.8302 86.1074 66.7154 86.9767 71.643H101.9C100.885 58.7079 90.3572 48.3314 77.1247 47.3367ZM77.1247 65.7203V71.6428H83.1613C82.3888 68.7527 80.0705 66.4785 77.1247 65.7203ZM118.754 75.7648H105.908C104.845 90.8789 92.5305 102.961 77.1247 104.003V116.607C99.6297 115.564 117.692 97.8441 118.754 75.7648ZM101.899 75.7648H86.9764C86.1071 80.6924 82.1471 84.5776 77.1244 85.4304V100.071C90.3089 99.0761 100.885 88.747 101.899 75.7648ZM83.1613 75.7648H77.1247V81.6872C80.0705 80.9293 82.3888 78.6549 83.1613 75.7648ZM72.9233 116.607V104.003C57.5178 102.961 45.2025 90.8792 44.1402 75.7648H31.2941C32.3567 97.8441 50.4183 115.564 72.9233 116.607ZM72.9233 100.071V85.4301C67.9006 84.5773 63.9405 80.6922 63.0713 75.7645H48.1483C49.1626 88.6996 59.6907 99.0761 72.9233 100.071ZM72.9233 81.6872V75.7648H66.8866C67.6595 78.6549 69.9775 80.9293 72.9233 81.6872ZM31.2941 71.6428H44.1402C45.2025 56.5286 57.5175 44.4463 72.9233 43.4041V30.8009C50.4183 31.8434 32.3567 49.5634 31.2941 71.6428ZM48.1486 71.6428H63.0716C63.9408 66.7151 67.9009 62.8299 72.9235 61.9771V47.3364C59.7391 48.3314 49.1626 58.6605 48.1486 71.6428ZM66.8866 71.6428H72.9233V65.7203C69.9775 66.4785 67.6595 68.7527 66.8866 71.6428Z" fill="#FF9800"/>
<path d="M95.8615 99.029C98.8754 99.029 101.319 96.6319 101.319 93.675C101.319 90.7181 98.8754 88.321 95.8615 88.321C92.8476 88.321 90.4043 90.7181 90.4043 93.675C90.4043 96.6319 92.8476 99.029 95.8615 99.029Z" fill="#34ABEE"/>
<path d="M87.7496 85.7147H92.9173V86.8521H88.9086V90.7847H87.7493V85.7147H87.7496ZM98.8086 85.7147H103.976V90.7847H102.817V86.8521H98.8086V85.7147ZM103.976 96.5648V101.635H98.8086V100.497H102.817V96.5645H103.976V96.5648ZM92.9167 101.634H87.749V96.5645H88.9083V100.497H92.9167V101.634Z" fill="#595959"/>
<path d="M90.4068 54.2545C93.4207 54.2545 95.864 51.8574 95.864 48.9005C95.864 45.9437 93.4207 43.5466 90.4068 43.5466C87.3929 43.5466 84.9497 45.9437 84.9497 48.9005C84.9497 51.8574 87.3929 54.2545 90.4068 54.2545Z" fill="#34ABEE"/>
<path d="M82.2437 40.9402H87.4113V42.0773H83.4029V46.0099H82.2439V40.9402H82.2437ZM93.3032 40.9402H98.4709V46.0102H97.3116V42.0775H93.3032V40.9402ZM98.4703 51.7904V56.8604H93.3026V55.7233H97.311V51.7907L98.4703 51.7904ZM87.4113 56.8601H82.2437V51.7901H83.4026V55.7227H87.411V56.8601H87.4113Z" fill="#595959"/>
</svg>
