<svg width="150" height="149" viewBox="0 0 150 149" fill="none" xmlns="http://www.w3.org/2000/svg">
<path d="M75 148.106C116.421 148.106 150 115.17 150 74.5409C150 33.912 116.421 0.975769 75 0.975769C33.5786 0.975769 0 33.912 0 74.5409C0 115.17 33.5786 148.106 75 148.106Z" fill="white"/>
<path d="M47.7328 59.0303L31.0731 72.2753L52.8412 93.627L20.7583 97.2655L72.6569 148.107C73.4378 148.139 74.2187 148.139 74.9997 148.139C111.898 148.139 142.549 122 148.829 87.5947L110.987 50.4773C103.959 44.8282 73.633 17.2213 39.0123 50.4773L47.7653 59.0628L47.7328 59.0303Z" fill="white"/>
<path d="M100.9 81.5949H101.584L105.521 79.4883L106.172 77.0308C105.228 76.1053 104.284 74.5414 103.373 72.5946C103.308 72.5946 103.243 72.6265 103.145 72.6265C102.104 72.6265 101.063 71.5093 100.835 70.1371C100.64 69.0518 101.03 68.1582 101.681 67.8072C100.803 63.4029 100.217 56.6688 107.928 55.0089C112.549 54.0195 114.208 57.4983 114.404 57.8814C117.202 56.3494 118.991 58.6474 119.447 59.8604C120.26 62.0627 120 66.1798 119.577 67.9989C120.033 68.4459 120.26 69.2119 120.13 70.1055C119.903 71.4461 118.894 72.5311 117.885 72.5949C117.072 74.3822 115.965 75.8823 114.826 76.9992L115.477 79.4567H115.542L119.349 81.5633H120.065C125.108 81.5633 129.24 85.4568 129.24 90.1807V97.1704H91.7246V90.1804C91.7246 85.4249 95.857 81.563 100.9 81.563V81.5949H100.9Z" fill="#595959"/>
<path d="M110.499 54.9135C113.2 55.3604 114.273 57.5946 114.436 57.9137C117.234 56.3817 119.024 58.6797 119.479 59.8926C120.293 62.0949 120.033 66.212 119.609 68.0312C120.065 68.4781 120.293 69.2441 120.163 70.1377C119.935 71.4783 118.926 72.5634 117.917 72.6272C117.104 74.4144 115.998 75.9145 114.859 77.0314L115.51 79.489H115.575L119.381 81.5955H120.097C125.141 81.5955 129.273 85.489 129.273 90.2129V97.2026H110.531V54.9132H110.499V54.9135Z" fill="#777373"/>
<path d="M29.9014 81.5949H30.5848L34.5217 79.4883L35.1725 77.0308C34.2289 76.1053 33.2851 74.5414 32.374 72.5946C32.309 72.5946 32.2439 72.6265 32.1463 72.6265C31.1052 72.6265 30.0963 71.5093 29.836 70.1371C29.6409 69.0518 30.0312 68.1582 30.682 67.8072C29.8035 63.4029 29.2177 56.6688 36.9293 55.0089C41.5495 54.0195 43.2093 57.4983 43.4044 57.8814C46.2029 56.3494 47.9922 58.6474 48.4479 59.8604C49.2613 62.0627 49.0011 66.1798 48.578 67.9989C49.0337 68.4459 49.2613 69.2119 49.1312 70.1055C48.9035 71.4461 47.8946 72.5311 46.886 72.5949C46.0725 74.3822 44.966 75.8823 43.8276 76.9992L44.4784 79.4567H44.5435L48.3503 81.5633H49.0662C54.1096 81.5633 58.2417 85.4568 58.2417 90.1807V97.1704H20.7256V90.1804C20.7256 85.4249 24.858 81.563 29.9011 81.563C29.9014 81.563 29.9014 81.5949 29.9014 81.5949Z" fill="#595959"/>
<path d="M39.5005 54.9135C42.2014 55.3604 43.2748 57.5946 43.4374 57.9137C46.2359 56.3817 48.0252 58.6797 48.4808 59.8926C49.2943 62.0949 49.0341 66.212 48.611 68.0312C49.0666 68.4781 49.2943 69.2441 49.1642 70.1377C48.9365 71.4783 47.9276 72.5634 46.919 72.6272C46.1055 74.4144 44.999 75.9145 43.8606 77.0314L44.5114 79.489H44.5764L48.3833 81.5955H49.0991C54.1426 81.5955 58.2747 85.489 58.2747 90.2129V97.2026H39.5327V54.9132H39.5005V54.9135Z" fill="#777373"/>
<path d="M63.9364 80.9565H64.7173L69.24 78.5309L69.9884 75.6902C68.9148 74.6052 67.8083 72.8177 66.7674 70.5838C66.6698 70.5838 66.6048 70.6157 66.5072 70.6157C65.3031 70.6157 64.1318 69.3389 63.8388 67.7431C63.6437 66.4983 64.034 65.4451 64.8149 65.062C63.8063 59.9874 63.1229 52.1998 72.0385 50.2853C77.3747 49.1361 79.2947 53.1897 79.5224 53.6045C82.7434 51.8173 84.826 54.4981 85.3467 55.9025C86.2903 58.456 85.9976 63.2112 85.5094 65.3175C86.0301 65.8283 86.3228 66.7219 86.1277 67.7431C85.8674 69.307 84.6959 70.5519 83.5243 70.6157C82.5808 72.6584 81.3116 74.4135 80.0103 75.6902L80.7587 78.5309H80.8237L85.2163 80.9565H86.0623C91.8867 80.9565 96.6371 85.4565 96.6371 90.9142V98.9889H53.3291V90.9142C53.3291 85.4246 58.0795 80.9565 63.9039 80.9565H63.9364Z" fill="#FF9800"/>
<path d="M74.9995 50.158C78.123 50.6687 79.3596 53.2536 79.5547 53.6048C82.7758 51.8176 84.8584 54.4984 85.3791 55.9028C86.3227 58.4563 86.0299 63.2115 85.5417 65.3178C86.0625 65.8285 86.3552 66.7222 86.16 67.7434C85.8998 69.3073 84.7283 70.5521 83.5567 70.6159C82.6131 72.6587 81.344 74.4137 80.0426 75.6905L80.7911 78.5311H80.8561L85.2812 80.9568H86.1272C91.9516 80.9568 96.702 85.4567 96.702 90.9144V98.9891H75.0317V50.158H74.9995Z" fill="#F5BE18"/>
<path d="M74.9997 32.3489C87.2342 32.3489 98.3297 37.232 106.367 45.0834C108.059 46.743 109.588 48.5302 110.987 50.4132H104.447C103.894 49.8067 103.341 49.2002 102.722 48.626C95.6288 41.6682 85.8024 37.3596 74.9672 37.3596C64.1319 37.3596 54.3053 41.6682 47.212 48.626C46.6263 49.2005 46.0405 49.807 45.4875 50.4132H38.9473C40.3465 48.53 41.9084 46.743 43.5676 45.0834C51.6046 37.2001 62.7001 32.3489 74.9346 32.3489H74.9997ZM110.987 101.287C109.588 103.17 108.026 104.957 106.367 106.617C98.3297 114.5 87.2342 119.351 74.9997 119.351C62.7652 119.351 51.6697 114.468 43.6326 106.617C41.9406 104.957 40.4116 103.17 39.0123 101.287H45.5526C46.1058 101.893 46.6591 102.5 47.2771 103.074C54.3706 110.032 64.197 114.34 75.0322 114.34C85.8675 114.34 95.6941 110.032 102.787 103.074C103.373 102.5 103.959 101.893 104.512 101.287H111.052H110.987Z" fill="#FF9800"/>
</svg>
