<svg width="150" height="149" viewBox="0 0 150 149" fill="none" xmlns="http://www.w3.org/2000/svg">
<path d="M74.9996 148.11C116.421 148.11 149.999 115.166 149.999 74.5285C149.999 33.8906 116.421 0.947083 74.9996 0.947083C33.5785 0.947083 0 33.8906 0 74.5285C0 115.166 33.5785 148.11 74.9996 148.11Z" fill="white"/>
<path d="M149.944 71.8338L115.769 38.3051L98.6268 45.598L35.0508 48.5668L31.9964 89.65L35.4903 92.7979L26.8999 107.823L67.5984 147.753C70.0332 147.987 72.5021 148.11 75.0002 148.11C116.421 148.11 150 115.166 150 74.5281C150 73.6256 149.978 72.7283 149.945 71.8332L149.944 71.8338Z" fill="white"/>
<path d="M35.293 45.598H104.985C107.211 45.598 109.031 47.3843 109.031 49.5673V87.3571C109.031 89.5404 107.211 91.3276 104.985 91.3276H35.293C33.0676 91.3276 31.2471 89.5413 31.2471 87.3571V49.5673C31.2471 47.384 33.0679 45.598 35.293 45.598Z" fill="#777373"/>
<path d="M107.843 46.7641C108.577 47.4839 109.033 48.4761 109.033 49.5686V87.3583C109.033 89.5416 107.212 91.3288 104.987 91.3288H35.2938C33.9377 91.3288 32.7324 90.6651 31.9971 89.652L107.844 46.7639L107.843 46.7641Z" fill="#595959"/>
<path d="M35.0508 48.5679H105.23V88.3591H35.0508V48.5679Z" fill="#4EB8F4"/>
<path d="M30.9237 92.7979H69.9718H70.309H109.356C110.37 92.7979 116.31 101.357 117.311 102.54C117.939 103.282 117.553 103.83 116.552 103.827L70.1403 103.714L23.7281 103.827C22.7261 103.83 22.3415 103.282 22.9684 102.54C23.9689 101.358 29.9091 92.7979 30.9237 92.7979Z" fill="#595959"/>
<path d="M30.9225 92.7979C29.9088 92.7979 23.9686 101.357 22.9684 102.54C22.3406 103.282 22.7258 103.83 23.7281 103.827L70.1394 103.714L116.551 103.827C117.242 103.829 117.639 103.568 117.615 103.164L30.9228 92.7991L30.9225 92.7979Z" fill="#777373"/>
<path d="M26.8997 107.824C25.8957 107.822 22.8749 105.133 22.7155 103.797L22.647 103.233C53.9488 103.233 86.3135 103.233 117.616 103.233L117.547 103.797C117.388 105.129 114.687 107.822 113.683 107.824C84.6881 107.913 55.895 107.913 26.8997 107.824Z" fill="#595959"/>
<path d="M62.6352 99.4437H66.7678H74.5616H78.693L79.9944 102.716H74.5619H66.7681H61.3345L62.6352 99.4437Z" fill="white"/>
<path d="M48.8936 91.328H54.0017V92.799H48.8936V91.328ZM86.2788 91.328H91.3882V92.799H86.2788V91.328Z" fill="#333333"/>
<path d="M89.4828 53.6951H125.057C126.325 53.6951 127.352 54.7031 127.352 55.9466V79.3078C127.352 80.5512 126.325 81.5592 125.057 81.5592H89.4828C88.2154 81.5592 87.188 80.5512 87.188 79.3078V55.9466C87.188 54.7031 88.2157 53.6951 89.4828 53.6951Z" fill="#595959"/>
<path d="M126.697 54.3751C127.102 54.7815 127.351 55.3366 127.351 55.9462V79.3074C127.351 80.5459 126.319 81.5588 125.056 81.5588H89.4831C88.8225 81.5588 88.2239 81.2806 87.8047 80.8391L126.697 54.3751Z" fill="#777373"/>
<path d="M124.11 55.9462H90.4365V76.9543H124.11V55.9462Z" fill="#F7F7F8"/>
<path d="M107.27 80.6776C108.112 80.6776 108.795 80.0079 108.795 79.1818C108.795 78.3557 108.112 77.686 107.27 77.686C106.428 77.686 105.746 78.3557 105.746 79.1818C105.746 80.0079 106.428 80.6776 107.27 80.6776Z" fill="#F5BE18"/>
<path d="M98.627 67.1809C98.627 68.2085 99.4836 69.0478 100.531 69.0478H114.01C115.058 69.0478 115.914 68.2082 115.914 67.1809C115.914 57.7959 115.914 48.4065 115.914 39.0191C115.914 37.9927 115.058 37.1522 114.01 37.1522H100.531C99.4836 37.1522 98.627 37.9927 98.627 39.0191C98.627 48.4047 98.627 57.7938 98.627 67.1809Z" fill="#FF9800"/>
<path d="M99.1838 68.4979C99.5295 68.8371 100.006 69.0478 100.529 69.0478H114.009C115.056 69.0478 115.913 68.2082 115.913 67.181C115.913 57.7959 115.913 48.4065 115.913 39.0191C115.913 38.5055 115.699 38.0381 115.353 37.701L99.1826 68.4988L99.1838 68.4979Z" fill="#F5BE18"/>
<path d="M105.503 64.8312C105.503 66.4655 105.85 66.4862 107.539 66.4862C108.43 66.4862 108.948 66.2962 109.012 65.4328C109.067 64.6975 109.139 63.6174 108.638 63.2598C108.261 62.9931 106.895 62.9879 106.357 63.0882C105.433 63.2601 105.503 63.9174 105.503 64.8312Z" fill="white"/>
<path d="M102.86 38.9242C103.376 38.9242 103.795 39.3358 103.795 39.8422C103.795 40.3487 103.377 40.7603 102.86 40.7603C102.343 40.7603 101.924 40.3498 101.924 39.8422C101.924 39.3355 102.342 38.9242 102.86 38.9242Z" fill="white"/>
<path d="M105.712 40.6887H109.142C109.307 40.6887 109.441 40.8198 109.441 40.9833C109.441 41.1446 109.308 41.2771 109.142 41.2771H105.712C105.547 41.2771 105.413 41.1449 105.413 40.9833C105.413 40.8212 105.547 40.6887 105.712 40.6887Z" fill="white"/>
<path d="M107.314 63.9476H107.331C107.805 63.9476 108.192 64.3282 108.192 64.7924C108.192 65.2566 107.804 65.6371 107.331 65.6371H107.314C106.841 65.6371 106.453 65.2566 106.453 64.7924C106.453 64.3268 106.841 63.9476 107.314 63.9476Z" fill="#4EB8F4"/>
<path d="M100.655 41.8281H113.886V61.9609H100.655V41.8281Z" fill="#F7F7F8"/>
<path d="M63.3762 64.4947V60.5408L60.4334 60.2514C60.2336 59.5204 59.9383 58.8277 59.5621 58.1871L61.4344 55.9417L58.5842 53.1453L56.2955 54.9834C55.6425 54.6132 54.9373 54.3252 54.1926 54.1274H54.1914L53.8964 51.2414H49.8663L49.5713 54.1274C48.8263 54.3246 48.1203 54.6144 47.4672 54.9834L45.1786 53.1465L42.3283 55.9417L44.2018 58.1871C43.8245 58.828 43.5309 59.5207 43.3294 60.2514L40.3877 60.5408V64.4947L43.3294 64.7841C43.5304 65.515 43.8257 66.2066 44.2018 66.8484L42.3295 69.0938L45.1786 71.8902L47.4672 70.0532C48.1206 70.4223 48.8266 70.7114 49.5713 70.908L49.8663 73.7952H53.8964L54.1914 70.908C54.9364 70.712 55.6413 70.4223 56.2955 70.0532L58.5842 71.8902L61.4344 69.0938L59.5621 66.8484C59.9383 66.2066 60.233 65.5147 60.4334 64.7841L63.3762 64.4947ZM51.8831 67.0921C49.3071 67.0921 47.2185 65.0434 47.2185 62.5157C47.2185 59.9884 49.3077 57.9393 51.8831 57.9393C54.4592 57.9393 56.5477 59.989 56.5477 62.5157C56.5477 65.0434 54.4592 67.0921 51.8831 67.0921Z" fill="#F5BE18"/>
<path d="M77.0812 64.6214V62.2067L75.0952 62.0116C75.0184 61.7779 74.9238 61.5514 74.8107 61.3355L76.0742 59.8202L74.3334 58.1123L72.7889 59.352C72.5698 59.2413 72.3389 59.1473 72.0999 59.0718L71.9018 57.1241H69.4394L69.2414 59.0718C69.0029 59.1471 68.7723 59.241 68.5523 59.352L67.0078 58.1123L65.267 59.8202L66.5306 61.3355C66.4178 61.5517 66.322 61.7782 66.2449 62.0116L64.2598 62.2067V64.6214L66.2449 64.8166C66.3217 65.0505 66.4175 65.2767 66.5306 65.4926L65.2661 67.0079L67.0078 68.7158L68.5523 67.4761C68.7726 67.5868 69.0035 67.6808 69.2414 67.7564L69.4394 69.704H71.9018L72.0999 67.7564C72.3392 67.6811 72.5698 67.5871 72.7889 67.4761L74.3334 68.7158L76.0742 67.0079L74.8107 65.4926C74.9223 65.2762 75.0181 65.05 75.0952 64.8166L77.0812 64.6214ZM70.6708 65.8165C69.3178 65.8165 68.221 64.7404 68.221 63.4142C68.2213 62.0869 69.3178 61.0107 70.6708 61.0107C72.0237 61.0107 73.1194 62.0869 73.1194 63.4142C73.1194 64.7415 72.0225 65.8165 70.6708 65.8165Z" fill="#FF9800"/>
<path d="M71.4106 77.914V75.2335L70.2232 75.1116C70.1198 74.7664 69.9798 74.4347 69.809 74.1234L70.5962 73.2356L68.6638 71.3397L67.7377 72.0778C67.4216 71.9074 67.0856 71.7685 66.7325 71.6653V71.665H66.7346L66.6514 70.4909H63.9191L63.7949 71.6547C63.4419 71.755 63.1047 71.8927 62.7865 72.0611L61.8815 71.2888L59.9491 73.1835L60.7015 74.0932C60.5277 74.4034 60.3862 74.733 60.2811 75.0794L59.084 75.161V77.8416L60.2702 77.9626C60.3725 78.3089 60.5128 78.6406 60.6845 78.9519L59.8973 79.8398L61.8285 81.7345L62.7558 80.9964C63.0719 81.1668 63.4079 81.3068 63.7609 81.41L63.8441 82.5844H66.5764L66.6997 81.4206C67.0527 81.3203 67.3899 81.1829 67.7081 81.0142L68.6131 81.7865L70.5443 79.8918L69.792 78.9821C69.9657 78.672 70.1084 78.3423 70.2136 77.9959L71.4106 77.914ZM65.2457 78.4733C64.1564 78.4733 63.2734 77.607 63.2734 76.5392C63.2734 75.4706 64.1564 74.6043 65.2457 74.6043C66.335 74.6043 67.218 75.4706 67.218 76.5392C67.218 77.607 66.335 78.4733 65.2457 78.4733Z" fill="#FF9800"/>
</svg>
