<svg width="60" height="60" viewBox="0 0 60 60" fill="none" xmlns="http://www.w3.org/2000/svg">
<path d="M43.7208 13.3449L43.7788 13.7904L43.1112 13.9286L43.0224 14.8775H43.822L44.8856 14.7751L45.4347 14.1223L44.8511 13.8953L44.5315 13.5276L44.0515 12.7502L43.822 11.6508L42.92 11.8346L42.667 12.2221V12.6589L43.1013 12.9563L43.7208 13.3449Z" fill="#4EB8F4"/>
<path d="M42.9523 13.7106L43.0005 13.1156L42.4711 12.8872L41.7307 13.0588L41.1816 13.9402V14.5118H41.8221L42.9523 13.7106Z" fill="#4EB8F4"/>
<path d="M27.7131 16.2362L27.5502 16.6559H26.7617V17.0633H26.9493C26.9493 17.0633 26.9604 17.1497 26.9764 17.2633L27.4601 17.2225L27.7624 17.0349L27.8414 16.6559L28.2326 16.6225L28.3868 16.3041L28.0277 16.23L27.7131 16.2362Z" fill="#4EB8F4"/>
<path d="M25.6803 16.9754L25.6494 17.3741L26.2207 17.326L26.28 16.926L25.9369 16.6556L25.6803 16.9754Z" fill="#4EB8F4"/>
<path d="M59.9926 29.6897C59.984 28.8123 59.9395 27.9412 59.8569 27.0836C59.5792 24.2246 58.8956 21.484 57.8715 18.915C57.795 18.7237 57.7246 18.53 57.6432 18.3412C56.2785 15.1169 54.3622 12.1814 52.0165 9.64812C51.8622 9.48278 51.7055 9.3199 51.5488 9.15949C51.1058 8.69923 50.6505 8.25008 50.1791 7.81943C44.8461 2.96391 37.7633 0 29.9994 0C22.1701 0 15.0367 3.01697 9.68884 7.94653C8.44257 9.09532 7.29748 10.349 6.25851 11.6915C2.33954 16.7605 0 23.1103 0 29.9994C0 46.5427 13.4585 60 30.0006 60C41.6366 60 51.7388 53.3368 56.7116 43.6282C57.7752 41.5527 58.6032 39.3403 59.1609 37.0217C59.3028 36.4331 59.425 35.8421 59.5311 35.2436C59.8334 33.5395 59.9988 31.7874 59.9988 29.9994C60 29.8957 59.9938 29.7933 59.9926 29.6897ZM54.3461 17.6995L54.5201 17.5046C54.7484 17.9476 54.9619 18.3979 55.1655 18.8545L54.8816 18.8434L54.3461 18.9174V17.6995ZM50.0113 12.4652L50.0163 11.1251C50.4876 11.6249 50.9417 12.1394 51.376 12.6725L50.8356 13.477L48.9464 13.4597L48.828 13.0661L50.0113 12.4652ZM13.8225 9.13481V9.08422H14.4234L14.4753 8.87815H15.4587V9.30756L15.1761 9.68514H13.8213L13.8225 9.13481ZM14.7825 10.4736C14.7825 10.4736 15.3834 10.3712 15.4353 10.3712C15.4871 10.3712 15.4353 10.9709 15.4353 10.9709L14.0804 11.056L13.8225 10.7476L14.7825 10.4736ZM56.2575 22.3823H54.0623L52.7247 21.3865L51.3168 21.5235V22.3823H50.8714L50.3901 22.0393L47.9519 21.4211V19.8416L44.8621 20.0823L43.9046 20.5968H42.6781L42.0771 20.5364L40.5878 21.3631V22.9191L37.5437 25.1155L37.7966 26.0533H38.4136L38.2519 26.9466L37.8176 27.1058L37.7941 29.4404L40.4249 32.4364H41.57L41.6391 32.2538H43.6973L44.2908 31.7047H45.4581L46.0985 32.3463L47.8384 32.5265L47.6076 34.8401L49.5387 38.2495L48.522 40.1929L48.5911 41.1085L49.3919 41.9068V44.1082L50.4432 45.5223V47.351H51.3514C46.2972 53.5564 38.6048 57.5309 29.9982 57.5309C14.8183 57.5321 2.46787 45.1805 2.46787 29.9994C2.46787 26.1779 3.25265 22.5353 4.6655 19.2247V18.3659L5.65018 17.1702C5.99198 16.5248 6.35846 15.8955 6.74961 15.2823L6.79404 15.782L5.65141 17.1702C5.29728 17.839 4.96658 18.5226 4.66674 19.2247V20.7918L5.81059 21.3421V23.52L6.90756 25.3919L7.79969 25.5288L7.91445 24.8872L6.8619 23.2633L6.65584 21.6851H7.2728L7.53316 23.309L9.0546 25.5288L8.66221 26.2458L9.62961 27.7252L12.0321 28.32V27.9313L12.9933 28.0683L12.902 28.7543L13.6572 28.8925L14.8232 29.2109L16.4705 31.0877L18.5744 31.2469L18.7805 32.9633L17.3405 33.9702L17.2726 35.5027L17.0665 36.4405L19.1494 39.0478L19.3086 39.9412C19.3086 39.9412 20.0638 40.146 20.1563 40.146C20.2476 40.146 21.8493 41.359 21.8493 41.359V46.0714L22.4206 46.2318L22.0319 48.406L22.9931 49.688L22.8154 51.8425L24.0851 54.0747L25.7152 55.4986L27.3538 55.5282L27.5142 55.0013L26.3099 53.987L26.379 53.4836L26.595 52.8666L26.6406 52.2373L25.8262 52.2127L25.4153 51.6969L26.0915 51.0466L26.1828 50.5555L25.4277 50.3395L25.4721 49.883L26.5481 49.7201L28.1843 48.9341L28.7334 47.9272L30.4498 45.7308L30.0598 44.0132L30.5867 43.0988L32.1649 43.1469L33.2274 42.3054L33.5704 38.9911L34.7488 37.4943L34.9549 36.5331L33.8801 36.1888L33.1706 35.0252L30.7459 35.0005L28.8234 34.2676L28.7321 32.8967L28.0905 31.775L26.3519 31.7491L25.3475 30.1721L24.4553 29.7366L24.4097 30.2178L22.7858 30.314L22.1911 29.4861L20.4969 29.1418L19.1013 30.7546L16.9049 30.3819L16.7457 27.9066L15.1428 27.6327L15.7857 26.4185L15.6019 25.7213L13.4955 27.1293L12.1703 26.9676L11.6977 25.9323L11.9864 24.865L12.7169 23.5188L14.3988 22.6674L17.6465 22.6661L17.6378 23.657L18.8051 24.1999L18.7126 22.5069L19.5541 21.6605L21.252 20.545L21.368 19.7602L23.061 17.9981L24.8613 17.0011L24.7021 16.8703L25.9212 15.7228L26.3679 15.8412L26.5728 16.0979L27.0355 15.5846L27.149 15.534L26.6419 15.4624L26.1273 15.2909V14.7973L26.4 14.574H27.0009L27.2761 14.6949L27.5142 15.1761L27.8055 15.1317V15.0898L27.8894 15.1181L28.7334 14.9886L28.8531 14.5765L29.3343 14.6974V15.1441L28.8876 15.4513H28.8888L28.9542 15.9412L30.4831 16.4125C30.4831 16.4125 30.4843 16.4187 30.4868 16.4311L30.8385 16.4014L30.8619 15.7388L29.6502 15.1872L29.5811 14.8689L30.5867 14.5259L30.6312 13.5634L29.5798 12.923L29.5107 11.3004L28.0695 12.0086H27.5439L27.6821 10.7735L25.7201 10.3107L24.9082 10.924V12.7947L23.4484 13.2574L22.8635 14.4765L22.2293 14.5789V13.0192L20.8572 12.8292L20.1711 12.3825L19.8947 11.3719L22.349 9.93563L23.5496 9.57039L23.6705 10.3774L24.3393 10.3428L24.3912 9.93686L25.0908 9.83692L25.1031 9.69501L24.8021 9.57039L24.733 9.14098L25.593 9.06818L26.1125 8.52771L26.1409 8.48823L26.147 8.49069L26.305 8.32782L28.1127 8.09954L28.9123 8.7782L26.8158 9.89491L29.4836 10.5242L29.8291 9.63208H30.9952L31.4073 8.8547L30.583 8.64864V7.66519L27.9979 6.5201L26.2137 6.72617L25.2068 7.25306L25.2759 8.53388L24.2233 8.37347L24.0617 7.66519L25.0698 6.74961L23.2399 6.6583L22.7142 6.81748L22.486 7.43445L23.172 7.55044L23.0351 8.2365L21.869 8.3056L21.6864 8.76216L19.9947 8.80905C19.9947 8.80905 19.9478 7.84905 19.8799 7.84905C19.812 7.84905 21.2064 7.8256 21.2064 7.8256L22.2145 6.84093L21.6642 6.56576L20.9324 7.2765L19.7183 7.2074L18.9865 6.20051H17.4305L15.8067 7.41347H17.2948L17.4305 7.84905L17.0443 8.20812L18.6916 8.25378L18.9433 8.84853L17.0887 8.77943L16.9987 8.32165L15.8326 8.06992L15.2144 7.72689L13.8262 7.738C18.3708 4.42735 23.9593 2.46787 29.9994 2.46787C36.9612 2.46787 43.3222 5.07023 48.1752 9.34581L47.8482 9.93069L46.5785 10.428L46.043 11.0092L46.1664 11.6866L46.8216 11.7779L47.2165 12.765L48.3467 12.3097L48.5331 13.63H48.1925L47.2646 13.4931L46.2355 13.6658L45.2397 15.0725L43.8157 15.2958L43.6097 16.515L44.2106 16.6569L44.0366 17.4404L42.6225 17.1566L41.3257 17.4404L41.0505 18.1623L41.2751 19.6775L42.0364 20.0341L43.3135 20.0267L44.176 19.949L44.4389 19.2629L45.7863 17.512L46.6735 17.6934L47.5471 16.9037L47.71 17.5206L49.8595 18.9705L49.5967 19.3234L48.6281 19.2716L49.0007 19.7997L49.5967 19.9305L50.2951 19.6393L50.2803 18.7977L50.59 18.6423L50.3408 18.3782L48.9069 17.5786L48.5294 16.5162H49.7213L50.1026 16.8938L51.1293 17.7785L51.1724 18.8483L52.2361 19.9811L52.6322 18.4288L53.3688 18.0265L53.507 19.2962L54.2264 20.086L55.6615 20.0613C55.9391 20.7757 56.1884 21.5025 56.4068 22.2441L56.2575 22.3823ZM16.3632 13.63L17.0838 13.287L17.7353 13.4425L17.5107 14.3173L16.8074 14.5407L16.3632 13.63ZM20.1871 15.6895V16.2558H18.5411L17.9241 16.0843L18.0784 15.6895L18.8693 15.3625H19.9502V15.6895H20.1871ZM20.9448 16.4792V17.0283L20.5326 17.2936L20.0193 17.3886C20.0193 17.3886 20.0193 16.5656 20.0193 16.4792H20.9448ZM20.4808 16.2558V15.6031L21.0472 16.1189L20.4808 16.2558ZM20.7387 17.5761V18.1104L20.3451 18.5053H19.4702L19.6072 17.9056L20.0206 17.8698L20.1057 17.6638L20.7387 17.5761ZM18.5596 16.4792H19.469L18.3029 18.1092L17.8217 17.8513L17.9253 17.1652L18.5596 16.4792ZM22.2836 17.3886V17.9216H21.4087L21.1694 17.5761V17.0801H21.2385L22.2836 17.3886ZM21.4754 16.6556L21.7246 16.394L22.1454 16.6556L21.8085 16.9333L21.4754 16.6556ZM56.7042 23.7717L56.7905 23.6705C56.8263 23.826 56.8646 23.9815 56.8991 24.1394L56.7042 23.7717Z" fill="#4EB8F4"/>
<path d="M4.66699 18.3664V19.2256C4.96684 18.5244 5.29753 17.8405 5.65167 17.1702L4.66699 18.3664Z" fill="#4EB8F4"/>
</svg>
