<svg width="60" height="60" viewBox="0 0 60 60" fill="none" xmlns="http://www.w3.org/2000/svg">
<g clip-path="url(#clip0)">
<path d="M23.9395 5.35078C24.4343 5.22748 24.9387 5.11798 25.4394 5.02576C26.7483 4.78238 27.6136 3.52357 27.3715 2.21355C27.2519 1.56905 26.8859 1.03225 26.389 0.681819C25.8768 0.321329 25.2249 0.15856 24.5607 0.28212C23.9644 0.392782 23.3635 0.522919 22.7739 0.670082C21.4814 0.99175 20.694 2.30112 21.0164 3.59296C21.3381 4.88595 22.6463 5.67271 23.9395 5.35078Z" fill="#595959"/>
<path d="M6.10175 37.681C5.93279 37.1718 5.61022 36.7561 5.20278 36.4689C4.59865 36.0434 3.80815 35.9002 3.05376 36.1497C1.78902 36.5696 1.10376 37.9334 1.52216 39.1975C1.71279 39.7738 1.92432 40.3519 2.14964 40.9147C2.64439 42.1516 4.0474 42.7538 5.28494 42.259C6.52118 41.7646 7.12363 40.3612 6.62849 39.1239C6.43915 38.6508 6.26181 38.1652 6.10175 37.681Z" fill="#595959"/>
<path d="M16.101 8.79465C16.5265 8.51374 16.9657 8.24186 17.4081 7.98713C18.5623 7.32135 18.9576 5.84598 18.2921 4.69229C18.1114 4.37849 17.8707 4.12195 17.5936 3.92591C16.8495 3.40239 15.839 3.32397 14.9976 3.80867C14.4717 4.11202 13.9487 4.43472 13.4419 4.7698C12.3309 5.50381 12.0251 7.00033 12.7595 8.11185C13.4938 9.22376 14.9896 9.52918 16.101 8.79465Z" fill="#595959"/>
<path d="M0.0225742 30.9443C0.0750676 32.2756 1.19639 33.3118 2.52808 33.2598C3.85809 33.2074 4.89507 32.0856 4.84284 30.7549C4.82285 30.246 4.81769 29.7296 4.82942 29.2213C4.84812 28.3865 4.43978 27.6423 3.80521 27.195C3.42718 26.9288 2.96841 26.7677 2.47095 26.7563C1.13964 26.7268 0.0363736 27.7827 0.00683773 29.1147C-0.00644701 29.722 -0.00141547 30.3374 0.0225742 30.9443Z" fill="#595959"/>
<path d="M6.49591 15.1398C7.56345 15.9408 9.07378 15.7233 9.8733 14.6577C10.1795 14.2496 10.5019 13.8466 10.8321 13.4585C11.695 12.4447 11.5731 10.922 10.5593 10.0585C10.5016 10.0095 10.4431 9.9645 10.3825 9.9222C9.37468 9.21167 7.97399 9.37495 7.15911 10.3312C6.76483 10.7942 6.38047 11.2757 6.01457 11.7631C5.21491 12.8287 5.43133 14.34 6.49591 15.1398Z" fill="#595959"/>
<path d="M2.95044 23.859C4.2215 24.2575 5.57512 23.55 5.9734 22.2789C6.12585 21.7933 6.29481 21.3054 6.47718 20.8275C6.87765 19.7756 6.49395 18.6181 5.61433 17.9979C5.45298 17.8845 5.27525 17.7884 5.08217 17.7154C3.83767 17.2405 2.44408 17.8649 1.9697 19.1099C1.75315 19.6781 1.5522 20.2586 1.37047 20.8359C0.972577 22.1072 1.67963 23.4605 2.95044 23.859Z" fill="#595959"/>
<path d="M34.4628 5.00406C36.6193 5.39124 38.6879 6.05058 40.6495 6.97018C40.6728 6.98231 40.6935 6.9961 40.7179 7.0072C41.1801 7.22478 41.6416 7.45784 42.0889 7.70135C42.0905 7.70315 42.0933 7.70432 42.0958 7.70535C42.9164 8.15728 43.7174 8.65733 44.4955 9.20509C55.8418 17.1978 58.57 32.9314 50.5767 44.2776C48.8387 46.7439 46.7353 48.8015 44.3904 50.4323C44.3615 50.4524 44.3326 50.4724 44.304 50.4926C36.0408 56.1862 24.8207 56.5699 16.0466 50.7192L17.931 47.9964C18.4549 47.2385 18.1326 46.6863 17.2155 46.7688L9.02971 47.5016C8.11139 47.5842 7.56221 48.3786 7.8092 49.2654L10.0074 57.1854C10.2534 58.0732 10.8835 58.1795 11.4079 57.4218L13.2968 54.6925C19.7358 59.0149 27.4588 60.6631 35.1243 59.3339C35.8964 59.2002 36.6576 59.0367 37.4083 58.8463C37.4142 58.8453 37.4188 58.8446 37.4234 58.8436C37.4525 58.8365 37.4819 58.8271 37.5101 58.8192C44.1202 57.1218 49.8874 53.2665 54.0026 47.7659C54.0373 47.7248 54.0731 47.6845 54.1058 47.6398C54.2427 47.4555 54.3785 47.2669 54.5114 47.0784C54.7289 46.7693 54.9433 46.4526 55.1483 46.1358C55.174 46.0976 55.1936 46.0588 55.216 46.0202C58.612 40.7578 60.25 34.674 59.9691 28.4803C59.9685 28.4599 59.9696 28.4394 59.9691 28.4185C59.9419 27.8135 59.8939 27.2001 59.8288 26.5962C59.8253 26.5572 59.8166 26.5204 59.8101 26.4814C59.7427 25.8742 59.6583 25.2655 59.5524 24.657C58.4762 18.4483 55.5474 12.8615 51.1587 8.51429C51.1485 8.5041 51.1379 8.49301 51.1276 8.48243C51.124 8.47843 51.12 8.47637 51.1165 8.47263C49.9374 7.30965 48.6549 6.23398 47.2739 5.26137C43.66 2.71485 39.6358 1.03158 35.314 0.256037C34.0027 0.0203949 32.7501 0.893312 32.5148 2.20397C32.2797 3.51554 33.1519 4.76919 34.4628 5.00406Z" fill="#4EB8F4"/>
<path d="M28.5207 10.7307C27.442 10.7307 26.5684 11.6052 26.5684 12.6823V32.1251L44.3504 41.3174C44.6366 41.4656 44.943 41.5354 45.2446 41.5354C45.9509 41.5354 46.633 41.1508 46.9798 40.4797C47.4745 39.5219 47.1002 38.3453 46.1424 37.8507L30.4708 29.7486V12.6823C30.4707 11.6052 29.598 10.7307 28.5207 10.7307Z" fill="#4EB8F4"/>
</g>
<defs>
<clipPath id="clip0">
<rect width="60" height="60" fill="white"/>
</clipPath>
</defs>
</svg>
