<svg width="69" height="82" viewBox="0 0 69 82" fill="none" xmlns="http://www.w3.org/2000/svg">
<g clip-path="url(#clip0)">
<path d="M34.0135 26.0117C22.4199 26.0117 13.0215 35.4102 13.0215 47.0038C13.0215 58.5974 22.4199 67.9958 34.0135 67.9958C45.6071 67.9958 55.0056 58.5974 55.0056 47.0038C54.9929 35.4154 45.6019 26.0243 34.0135 26.0117ZM34.0135 28.011C40.1882 28.0158 45.9744 31.0252 49.5236 36.0779L47.0246 38.577C46.4164 38.209 45.7202 38.012 45.0094 38.0072C42.8011 38.0072 41.0109 39.7974 41.0109 42.0057C41.0144 42.7173 41.2102 43.4146 41.5777 44.0239L35.0321 50.5694C33.7927 49.8137 32.2351 49.8137 30.9957 50.5694L26.4494 46.0231C26.8169 45.4139 27.0127 44.7165 27.0162 44.0049C27.0189 41.801 25.2346 40.0122 23.0307 40.0094C21.208 40.0072 19.6155 41.2401 19.1612 43.0053H15.4526C17.3452 34.2652 25.0709 28.0241 34.0135 28.011ZM47.0086 42.0057C47.0086 43.1099 46.1136 44.0049 45.0094 44.0049C43.9051 44.0049 43.0101 43.1099 43.0101 42.0057C43.0101 40.9014 43.9051 40.0064 45.0094 40.0064C46.1136 40.0064 47.0086 40.9014 47.0086 42.0057ZM35.0131 54.0011C35.0131 55.1053 34.1181 56.0003 33.0139 56.0003C31.9097 56.0003 31.0147 55.1053 31.0147 54.0011C31.0147 52.8969 31.9097 52.0019 33.0139 52.0019C34.1181 52.0019 35.0131 52.8969 35.0131 54.0011ZM25.0169 44.0049C25.0169 45.1091 24.1219 46.0041 23.0177 46.0041C21.9135 46.0041 21.0185 45.1091 21.0185 44.0049C21.0185 42.9007 21.9135 42.0057 23.0177 42.0057C24.1219 42.0057 25.0169 42.9007 25.0169 44.0049ZM43.2418 63.6107C40.4188 65.1781 37.2425 65.9993 34.0135 65.9964C23.5312 66.0036 15.0278 57.5119 15.0207 47.0296C15.0202 46.3531 15.056 45.677 15.1277 45.0044H19.1612C19.6156 46.7643 21.2 47.9964 23.0177 48.0033C23.7293 47.9998 24.4267 47.804 25.0359 47.4365L29.5822 51.9827C29.2147 52.592 29.0189 53.2894 29.0154 54.001C29.0154 56.2093 30.8056 57.9995 33.0139 57.9995C35.2222 57.9995 37.0124 56.2093 37.0124 54.001C37.0089 53.2894 36.8131 52.592 36.4456 51.9827L42.9911 45.4372C43.6004 45.8047 44.2978 46.0005 45.0094 46.004C47.2176 46.004 49.0078 44.2138 49.0078 42.0055C49.0043 41.2939 48.8085 40.5966 48.4411 39.9873L50.6202 37.8091C55.7077 46.9716 52.4042 58.5234 43.2418 63.6107Z" fill="#4EB8F4"/>
<path d="M59.0038 32.0094C60.8214 32.0026 62.4058 30.7706 62.8603 29.0106H69V27.0113H62.8603C62.4058 25.2512 60.8214 24.0193 59.0038 24.0125C56.7955 24.0125 55.0053 25.8027 55.0053 28.0109C55.0088 28.7226 55.2046 29.4199 55.5721 30.0292L53.8157 31.7855C45.412 20.837 29.724 18.7741 18.7755 27.1778C7.82703 35.5815 5.76406 51.2696 14.1678 62.2181C22.1002 72.5526 36.6411 75.0595 47.5761 67.9778L50.5929 70.9946L52.0064 72.4081L60.0534 80.4551C62.1 82.5017 65.4179 82.5017 67.4645 80.4551C69.5111 78.4085 69.5111 75.0905 67.4645 73.0439L59.4176 64.9969L58.0041 63.5835L54.9873 60.5666C60.3426 52.3177 60.3426 41.6899 54.9873 33.4409L56.9865 31.4416C57.5954 31.8093 58.2925 32.0054 59.0038 32.0094ZM59.0038 26.0117C60.108 26.0117 61.003 26.9067 61.003 28.0109C61.003 29.1152 60.108 30.0102 59.0038 30.0102C57.8995 30.0102 57.0045 29.1152 57.0045 28.0109C57.0045 26.9067 57.8997 26.0117 59.0038 26.0117ZM66.0511 74.4573C67.3313 75.7089 67.3547 77.7613 66.1032 79.0416C64.8517 80.3219 62.7992 80.3452 61.5189 79.0937C61.5013 79.0766 61.4841 79.0592 61.4668 79.0416L53.4199 70.9946L58.0041 66.4104L66.0511 74.4573ZM56.5907 64.9969L52.0064 69.5812L49.2395 66.8142C49.3804 66.7063 49.5124 66.5873 49.6513 66.4764C49.7902 66.3654 49.9512 66.2325 50.1001 66.1075C50.319 65.9236 50.535 65.7376 50.7469 65.5467C50.8558 65.4468 50.9598 65.3468 51.0668 65.2468C51.4766 64.863 51.8735 64.4661 52.2573 64.0563C52.3573 63.9493 52.4572 63.8454 52.5572 63.7364C52.7481 63.5245 52.9341 63.3086 53.118 63.0896C53.2433 62.9417 53.3663 62.7921 53.4868 62.6408C53.5968 62.5029 53.7158 62.3709 53.8237 62.23L56.5907 64.9969ZM52.7141 60.3537C52.3993 60.7935 52.0744 61.2244 51.7315 61.6392C51.6315 61.7602 51.5246 61.8771 51.4216 61.9961C51.1157 62.3519 50.7999 62.6972 50.474 63.0317C50.332 63.1782 50.1877 63.3226 50.0412 63.4645C49.7079 63.7904 49.3628 64.1063 49.0055 64.4121C48.8866 64.5121 48.7696 64.6211 48.6487 64.722C48.2338 65.0649 47.803 65.3898 47.3632 65.7047C37.0151 73.0975 22.6332 70.7018 15.2403 60.3537C7.84752 50.0056 10.2432 35.6237 20.5913 28.2309C30.9394 20.838 45.3213 23.2336 52.7141 33.5818C58.4346 41.589 58.4346 52.3465 52.7141 60.3537Z" fill="#4EB8F4"/>
<g clip-path="url(#clip1)">
<path d="M34.0135 26.0117C22.4199 26.0117 13.0215 35.4102 13.0215 47.0038C13.0215 58.5974 22.4199 67.9958 34.0135 67.9958C45.6071 67.9958 55.0056 58.5974 55.0056 47.0038C54.9929 35.4154 45.6019 26.0243 34.0135 26.0117ZM34.0135 28.011C40.1882 28.0158 45.9744 31.0252 49.5236 36.0779L47.0246 38.577C46.4164 38.209 45.7202 38.012 45.0094 38.0072C42.8011 38.0072 41.0109 39.7974 41.0109 42.0057C41.0144 42.7173 41.2102 43.4146 41.5777 44.0239L35.0321 50.5694C33.7927 49.8137 32.2351 49.8137 30.9957 50.5694L26.4494 46.0231C26.8169 45.4139 27.0127 44.7165 27.0162 44.0049C27.0189 41.801 25.2346 40.0122 23.0307 40.0094C21.208 40.0072 19.6155 41.2401 19.1612 43.0053H15.4526C17.3452 34.2652 25.0709 28.0241 34.0135 28.011ZM47.0086 42.0057C47.0086 43.1099 46.1136 44.0049 45.0094 44.0049C43.9051 44.0049 43.0101 43.1099 43.0101 42.0057C43.0101 40.9014 43.9051 40.0064 45.0094 40.0064C46.1136 40.0064 47.0086 40.9014 47.0086 42.0057ZM35.0131 54.0011C35.0131 55.1053 34.1181 56.0003 33.0139 56.0003C31.9097 56.0003 31.0147 55.1053 31.0147 54.0011C31.0147 52.8969 31.9097 52.0019 33.0139 52.0019C34.1181 52.0019 35.0131 52.8969 35.0131 54.0011ZM25.0169 44.0049C25.0169 45.1091 24.1219 46.0041 23.0177 46.0041C21.9135 46.0041 21.0185 45.1091 21.0185 44.0049C21.0185 42.9007 21.9135 42.0057 23.0177 42.0057C24.1219 42.0057 25.0169 42.9007 25.0169 44.0049ZM43.2418 63.6107C40.4188 65.1781 37.2426 65.9993 34.0135 65.9964C23.5312 66.0036 15.0279 57.5119 15.0207 47.0296C15.0202 46.3531 15.056 45.677 15.1277 45.0044H19.1612C19.6156 46.7643 21.2 47.9964 23.0177 48.0033C23.7293 47.9998 24.4267 47.804 25.0359 47.4365L29.5822 51.9827C29.2147 52.592 29.0189 53.2894 29.0154 54.001C29.0154 56.2093 30.8056 57.9995 33.0139 57.9995C35.2222 57.9995 37.0124 56.2093 37.0124 54.001C37.0089 53.2894 36.8131 52.592 36.4456 51.9827L42.9911 45.4372C43.6004 45.8047 44.2978 46.0005 45.0094 46.004C47.2176 46.004 49.0078 44.2138 49.0078 42.0055C49.0043 41.2939 48.8085 40.5966 48.4411 39.9873L50.6202 37.8091C55.7077 46.9716 52.4042 58.5234 43.2418 63.6107Z" fill="#FF9800"/>
</g>
</g>
<g clip-path="url(#clip2)">
<path d="M16.0135 -10.9883C4.41992 -10.9883 -4.97852 -1.58982 -4.97852 10.0038C-4.97852 21.5974 4.41992 30.9958 16.0135 30.9958C27.6071 30.9958 37.0056 21.5974 37.0056 10.0038C36.9929 -1.58458 27.6019 -10.9757 16.0135 -10.9883ZM16.0135 -8.98902C22.1882 -8.98415 27.9744 -5.97479 31.5236 -0.922079L29.0246 1.57697C28.4164 1.20899 27.7202 1.01206 27.0094 1.00719C24.8011 1.00719 23.0109 2.79739 23.0109 5.00567C23.0144 5.71728 23.2102 6.41464 23.5777 7.02391L17.0321 13.5694C15.7927 12.8137 14.2351 12.8137 12.9957 13.5694L8.44939 9.02315C8.81688 8.41388 9.01268 7.71652 9.01618 7.00492C9.01893 4.801 7.2346 3.01218 5.03069 3.00943C3.20802 3.00718 1.61548 4.24009 1.16116 6.0053H-2.54744C-0.654776 -2.73477 7.07092 -8.9759 16.0135 -8.98902ZM29.0086 5.00567C29.0086 6.10988 28.1136 7.00492 27.0094 7.00492C25.9051 7.00492 25.0101 6.10988 25.0101 5.00567C25.0101 3.90147 25.9051 3.00643 27.0094 3.00643C28.1136 3.00643 29.0086 3.90147 29.0086 5.00567ZM17.0131 17.0011C17.0131 18.1053 16.1181 19.0003 15.0139 19.0003C13.9097 19.0003 13.0147 18.1053 13.0147 17.0011C13.0147 15.8969 13.9097 15.0019 15.0139 15.0019C16.1181 15.0019 17.0131 15.8969 17.0131 17.0011ZM7.01694 7.00492C7.01694 8.10912 6.1219 9.00416 5.01769 9.00416C3.91349 9.00416 3.01845 8.10912 3.01845 7.00492C3.01845 5.90071 3.91349 5.00567 5.01769 5.00567C6.1219 5.00567 7.01694 5.90071 7.01694 7.00492ZM25.2418 26.6107C22.4188 28.1781 19.2426 28.9993 16.0135 28.9964C5.53125 29.0036 -2.97215 20.5119 -2.97927 10.0296C-2.97977 9.35315 -2.94404 8.67703 -2.87231 8.00441H1.16116C1.61561 9.76437 3.20001 10.9964 5.01769 11.0033C5.7293 10.9998 6.42666 10.804 7.03593 10.4365L11.5822 14.9827C11.2147 15.592 11.0189 16.2894 11.0154 17.001C11.0154 19.2093 12.8056 20.9995 15.0139 20.9995C17.2222 20.9995 19.0124 19.2093 19.0124 17.001C19.0089 16.2894 18.8131 15.592 18.4456 14.9827L24.9911 8.43725C25.6004 8.80473 26.2978 9.00053 27.0094 9.00403C29.2176 9.00403 31.0078 7.21384 31.0078 5.00555C31.0043 4.29394 30.8085 3.59658 30.4411 2.98731L32.6202 0.809141C37.7077 9.97167 34.4042 21.5234 25.2418 26.6107Z" fill="#595959"/>
<path d="M41.0038 -4.99057C42.8214 -4.99744 44.4058 -6.22935 44.8603 -7.98943H51V-9.98868H44.8603C44.4058 -11.7488 42.8214 -12.9807 41.0038 -12.9875C38.7955 -12.9875 37.0053 -11.1973 37.0053 -8.98905C37.0088 -8.27745 37.2046 -7.58009 37.5721 -6.97082L35.8157 -5.21448C27.412 -16.163 11.724 -18.2259 0.7755 -9.82224C-10.173 -1.41855 -12.2359 14.2696 -3.83225 25.2181C4.10023 35.5526 18.6411 38.0595 29.5761 30.9778L32.5929 33.9946L34.0064 35.4081L42.0534 43.4551C44.1 45.5017 47.4179 45.5017 49.4645 43.4551C51.5111 41.4085 51.5111 38.0905 49.4645 36.0439L41.4176 27.9969L40.0041 26.5835L36.9873 23.5666C42.3426 15.3177 42.3426 4.68988 36.9873 -3.55911L38.9865 -5.55836C39.5954 -5.19074 40.2925 -4.99457 41.0038 -4.99057ZM41.0038 -10.9883C42.108 -10.9883 43.003 -10.0933 43.003 -8.98905C43.003 -7.88485 42.108 -6.98981 41.0038 -6.98981C39.8995 -6.98981 39.0045 -7.88485 39.0045 -8.98905C39.0045 -10.0933 39.8997 -10.9883 41.0038 -10.9883ZM48.0511 37.4573C49.3313 38.7089 49.3547 40.7613 48.1032 42.0416C46.8517 43.3219 44.7992 43.3452 43.5189 42.0937C43.5013 42.0766 43.4841 42.0592 43.4668 42.0416L35.4199 33.9946L40.0041 29.4104L48.0511 37.4573ZM38.5907 27.9969L34.0064 32.5812L31.2395 29.8142C31.3804 29.7063 31.5124 29.5873 31.6513 29.4764C31.7902 29.3654 31.9512 29.2325 32.1001 29.1075C32.319 28.9236 32.535 28.7376 32.7469 28.5467C32.8558 28.4468 32.9598 28.3468 33.0668 28.2468C33.4766 27.863 33.8735 27.4661 34.2573 27.0563C34.3573 26.9493 34.4572 26.8454 34.5572 26.7364C34.7481 26.5245 34.9341 26.3086 35.118 26.0896C35.2433 25.9417 35.3663 25.7921 35.4868 25.6408C35.5968 25.5029 35.7158 25.3709 35.8237 25.23L38.5907 27.9969ZM34.7141 23.3537C34.3993 23.7935 34.0744 24.2244 33.7315 24.6392C33.6315 24.7602 33.5246 24.8771 33.4216 24.9961C33.1157 25.3519 32.7999 25.6972 32.474 26.0317C32.332 26.1782 32.1877 26.3226 32.0412 26.4645C31.7079 26.7904 31.3628 27.1063 31.0055 27.4121C30.8866 27.5121 30.7696 27.6211 30.6487 27.722C30.2338 28.0649 29.803 28.3898 29.3632 28.7047C19.0151 36.0975 4.63317 33.7018 -2.75965 23.3537C-10.1525 13.0056 -7.75676 -1.37632 2.59132 -8.76914C12.9394 -16.162 27.3213 -13.7664 34.7141 -3.41817C40.4346 4.58905 40.4346 15.3465 34.7141 23.3537Z" fill="#595959"/>
</g>
<defs>
<clipPath id="clip0">
<rect width="60" height="60" fill="white" transform="translate(9 22)"/>
</clipPath>
<clipPath id="clip1">
<rect width="30" height="20" fill="white" transform="translate(19 38)"/>
</clipPath>
<clipPath id="clip2">
<rect width="30" height="20" fill="white"/>
</clipPath>
</defs>
</svg>
