<svg width="308" height="45" fill="none" xmlns="http://www.w3.org/2000/svg"><path d="M15.457.064C15.792.02 16.317 0 17.028 0h1.634c2.807 0 5.55.213 8.231.64 1.383.212 2.45.425 3.205.638v9.141c-.628-.043-1.676-.15-3.142-.32-1.969-.213-3.686-.32-5.152-.32-1.634 0-2.953.065-3.959.193-.963.085-1.76.255-2.388.511V.063zM18.662 45c-4.189 0-7.52-.362-9.99-1.087-2.43-.767-4.274-2.024-5.53-3.771-1.215-1.662-2.053-3.857-2.514-6.584C.21 30.788 0 27.102 0 22.5c0-4.048.147-7.33.44-9.844.335-2.514.921-4.623 1.76-6.328.879-1.747 2.157-3.09 3.832-4.027 1.718-.98 3.98-1.64 6.786-1.981V22.5c0 2.386.042 4.688.126 6.903.084 1.705.398 2.983.942 3.836.587.852 1.488 1.385 2.702 1.598 1.173.255 2.912.383 5.216.383 2.387 0 4.42-.106 6.095-.32.67-.042 1.487-.149 2.45-.319v9.268c-2.052.47-4.377.789-6.974.96a52.988 52.988 0 01-4.713.191z" fill="url(#paint0_angular)"/><path d="M46.332 29.979l-.566-1.279-1.633-3.26-1.571-3.387a14.148 14.148 0 01-.628-1.343l-2.577-5.433L32.445.511h12.819l13.635 29.532v14.446H46.332v-14.51zm8.106-15.853L60.28.511h12.567l-4.9 10.356-2.074 4.346-5.53 11.697-5.906-12.784z" fill="url(#paint1_angular)"/><path d="M76.606.511h12.568V44.49H76.606V.51zM91.814 34.71h2.576c1.173 0 2.052-.022 2.639-.064.628-.085 1.089-.256 1.382-.512.294-.255.482-.617.566-1.086.125-.469.188-1.15.188-2.046 0-.937-.063-1.64-.188-2.109-.084-.469-.272-.83-.566-1.087-.502-.426-1.843-.639-4.021-.639h-2.576v-9.78h2.199c1.173 0 2.052-.02 2.639-.064.628-.085 1.089-.255 1.382-.51.293-.257.482-.598.566-1.024.125-.468.188-1.108.188-1.917 0-.853-.063-1.492-.188-1.918-.084-.469-.273-.83-.566-1.086-.293-.256-.754-.405-1.382-.448-.587-.085-1.466-.128-2.64-.128h-2.198V.511h7.163c8.42 0 12.63 3.686 12.63 11.059 0 3.11-.608 5.454-1.823 7.03-1.173 1.578-3.058 2.685-5.655 3.325v.255c2.723.64 4.671 1.641 5.844 3.005 1.34 1.619 2.011 4.133 2.011 7.542 0 3.92-1.027 6.861-3.079 8.821-2.053 1.96-5.341 2.94-9.865 2.94h-7.226v-9.78z" fill="url(#paint2_angular)"/><path d="M118.701.511h12.567V44.49h-12.567V.51zm15.206 0h15.96v9.78h-15.96V.511zm0 16.875h13.007v9.78h-13.007v-9.78zm0 17.323h15.96v9.78h-15.96v-9.78z" fill="url(#paint3_angular)"/><path d="M157.421.511h12.567V44.49h-12.567V.51zm17.719 29.02h-2.513v-9.78h2.136c1.299 0 2.283-.042 2.953-.127.67-.128 1.194-.341 1.571-.64.335-.298.566-.745.691-1.342.126-.596.189-1.47.189-2.62 0-1.151-.063-2.025-.189-2.621-.125-.64-.356-1.108-.691-1.407-.335-.298-.838-.49-1.508-.575-.628-.085-1.634-.128-3.016-.128h-2.136V.511h6.472c2.974 0 5.382.299 7.226.895 1.843.597 3.267 1.513 4.272 2.749.922 1.15 1.529 2.578 1.823 4.282.335 1.705.502 3.9.502 6.584 0 3.452-.314 6.115-.942 7.99-.88 2.387-2.43 4.07-4.65 5.05l6.535 16.428h-13.196L175.14 29.53z" fill="url(#paint4_angular)"/><path d="M199.761.511h12.566V44.49h-12.566V.51zm15.206 0h14.703v9.78h-14.703V.511zm0 18.154h12.378v9.78h-12.378v-9.78z" fill="url(#paint5_angular)"/><path d="M253.558 45c-4.398 0-7.792-.362-10.179-1.087-2.388-.724-4.147-1.896-5.278-3.515-1.048-1.492-1.697-3.388-1.948-5.69-.252-2.3-.377-5.73-.377-10.29V.51h12.567v26.463c0 1.577.042 3.09.125 4.539.084 1.15.273 1.981.566 2.493.293.511.796.83 1.508.959.628.17 1.634.255 3.016.255h1.445c.335 0 .712-.042 1.131-.128v9.844a9.335 9.335 0 01-1.256.064h-1.32zM258.773.511h12.567v23.907c0 4.176-.083 7.33-.251 9.46-.168 2.13-.628 3.92-1.382 5.37-.838 1.661-2.116 2.94-3.833 3.834-1.718.895-4.085 1.47-7.101 1.726V.511z" fill="url(#paint6_angular)"/><path d="M279.347.511h12.567V44.49h-12.567V.51zm15.206 33.686H308V44.49h-13.447V34.197z" fill="url(#paint7_angular)"/><defs><radialGradient id="paint0_angular" cx="0" cy="0" r="1" gradientUnits="userSpaceOnUse" gradientTransform="scale(154 22.5) rotate(90 0 1)"><stop offset=".014" stop-color="#A30000" stop-opacity=".78"/><stop offset=".428" stop-color="#D60000" stop-opacity=".46"/></radialGradient><radialGradient id="paint1_angular" cx="0" cy="0" r="1" gradientUnits="userSpaceOnUse" gradientTransform="scale(154 22.5) rotate(90 0 1)"><stop offset=".014" stop-color="#A30000" stop-opacity=".78"/><stop offset=".428" stop-color="#D60000" stop-opacity=".46"/></radialGradient><radialGradient id="paint2_angular" cx="0" cy="0" r="1" gradientUnits="userSpaceOnUse" gradientTransform="scale(154 22.5) rotate(90 0 1)"><stop offset=".014" stop-color="#A30000" stop-opacity=".78"/><stop offset=".428" stop-color="#D60000" stop-opacity=".46"/></radialGradient><radialGradient id="paint3_angular" cx="0" cy="0" r="1" gradientUnits="userSpaceOnUse" gradientTransform="scale(154 22.5) rotate(90 0 1)"><stop offset=".014" stop-color="#A30000" stop-opacity=".78"/><stop offset=".428" stop-color="#D60000" stop-opacity=".46"/></radialGradient><radialGradient id="paint4_angular" cx="0" cy="0" r="1" gradientUnits="userSpaceOnUse" gradientTransform="scale(154 22.5) rotate(90 0 1)"><stop offset=".014" stop-color="#A30000" stop-opacity=".78"/><stop offset=".428" stop-color="#D60000" stop-opacity=".46"/></radialGradient><radialGradient id="paint5_angular" cx="0" cy="0" r="1" gradientUnits="userSpaceOnUse" gradientTransform="scale(154 22.5) rotate(90 0 1)"><stop offset=".014" stop-color="#A30000" stop-opacity=".78"/><stop offset=".428" stop-color="#D60000" stop-opacity=".46"/></radialGradient><radialGradient id="paint6_angular" cx="0" cy="0" r="1" gradientUnits="userSpaceOnUse" gradientTransform="scale(154 22.5) rotate(90 0 1)"><stop offset=".014" stop-color="#A30000" stop-opacity=".78"/><stop offset=".428" stop-color="#D60000" stop-opacity=".46"/></radialGradient><radialGradient id="paint7_angular" cx="0" cy="0" r="1" gradientUnits="userSpaceOnUse" gradientTransform="scale(154 22.5) rotate(90 0 1)"><stop offset=".014" stop-color="#A30000" stop-opacity=".78"/><stop offset=".428" stop-color="#D60000" stop-opacity=".46"/></radialGradient></defs></svg>