<svg width="34" height="34" viewBox="0 0 34 34" fill="none" xmlns="http://www.w3.org/2000/svg">
<path d="M17 33.6904C26.2179 33.6904 33.6904 26.2178 33.6904 17C33.6904 7.78212 26.2179 0.30957 17 0.30957C7.78213 0.30957 0.30957 7.78212 0.30957 17C0.30957 26.2178 7.78213 33.6904 17 33.6904Z" fill="#595959"/>
<path d="M17.0002 31.5997C25.0634 31.5997 31.6 25.0631 31.6 16.9999C31.6 8.93659 25.0634 2.40002 17.0002 2.40002C8.93694 2.40002 2.40039 8.93659 2.40039 16.9999C2.40039 25.0631 8.93694 31.5997 17.0002 31.5997Z" fill="#4EB8F4"/>
<path d="M17.4364 5.64648C20.1556 5.64648 22.7733 6.46836 25.0663 7.89893C23.7574 9.23819 21.9413 11.1152 20.6325 12.5053C14.9507 9.83692 7.07724 11.6834 4.92627 18.0045C5.11904 10.2935 10.1008 5.64648 17.4263 5.64648H17.4364Z" fill="#FF9800"/>
<path d="M21.0076 19.4148C21.5453 20.6121 21.454 22.063 20.6423 23.2196C19.4147 24.9647 17.0101 25.3808 15.2649 24.1632C13.5197 22.9355 13.1037 20.5309 14.3213 18.7857C15.133 17.6291 16.4621 17.0507 17.7812 17.1521L26.5169 8.14246L21.0076 19.4148ZM17.6492 19.4959C18.4609 19.4959 19.1203 20.1555 19.1304 20.9671C19.1304 21.7788 18.4708 22.4383 17.6592 22.4483C16.8475 22.4483 16.188 21.7888 16.178 20.9771C16.1781 20.1656 16.8375 19.5061 17.6492 19.4959Z" fill="#595959"/>
</svg>
