<svg width="28" height="33" viewBox="0 0 28 33" fill="none" xmlns="http://www.w3.org/2000/svg">
<path d="M22.8506 32.096L22.2648 23.9831C22.2648 23.9831 28.2736 18.2022 27.6011 10.7943C26.9287 3.38639 19.4558 -1.27744 11.8852 0.739967C4.30378 2.75737 3.04556 8.83118 3.01304 9.82895C2.98052 10.8267 3.91334 13.3756 3.24078 15.1109C2.56831 16.8463 0.149722 19.5687 0.377361 20.3929C0.605098 21.2064 2.67671 21.3474 2.67671 21.3474C2.67671 21.3474 2.69839 22.1393 2.42719 22.302C2.156 22.4646 2.30785 23.1263 2.76343 23.4841C3.219 23.8528 3.97819 24.0915 3.97819 24.0915C3.97819 24.0915 3.1105 24.2867 3.2189 24.905C3.3274 25.5233 3.64195 25.827 4.2818 25.8595C4.93259 25.892 5.09529 25.5775 5.20379 25.9137C5.31229 26.2499 5.38817 26.2825 5.38817 26.2825C5.38817 26.2825 4.74822 27.9528 5.30135 29.1892C5.86542 30.4257 6.73301 30.4257 7.74171 30.1763C8.75032 29.9268 10.7136 29.3628 10.7136 29.3628L11.2559 32.1069H22.8504L22.8506 32.096Z" fill="#4EB8F4"/>
<path d="M22.8504 32.096L22.2647 23.9831C22.2647 23.9831 28.2734 18.2022 27.601 10.7943C27.037 4.62283 21.7767 0.360279 15.6487 0.27356V32.096H22.8504Z" fill="#34AEF4"/>
<path d="M22.6986 10.2844L22.6769 11.0003L20.627 10.9353L20.6487 10.2193L22.6986 10.2844ZM14.1518 16.9874H17.167V17.7467H14.1518V16.9874ZM15.4643 19.0915V19.1674H15.2148V19.0915H15.1172C15.0195 19.0915 14.9436 19.0373 14.9003 18.9505H14.8894C14.7593 18.9505 14.6509 18.842 14.6509 18.701C14.6509 18.6141 14.6942 18.5383 14.7594 18.4949H14.3906C14.2604 18.4949 14.152 18.3864 14.152 18.2454C14.152 18.1152 14.2605 17.9959 14.3906 17.9959H16.9286C17.0588 17.9959 17.1673 18.1044 17.1673 18.2454C17.1673 18.3864 17.0588 18.4949 16.9286 18.4949H16.5599C16.6249 18.5383 16.6684 18.6142 16.6684 18.701C16.6684 18.8311 16.5599 18.9505 16.4297 18.9505H16.4188C16.3755 19.0373 16.2995 19.0915 16.2019 19.0915H16.1043V19.1674H15.8548V19.0915H15.4643ZM15.5511 6.34734C17.8287 6.34734 19.6834 8.23457 19.6834 10.5665C19.6834 12.1392 18.8374 13.5167 17.5793 14.2433V16.1739C17.5793 16.4016 17.3949 16.5969 17.1671 16.5969H14.1411C13.9133 16.5969 13.7289 16.4126 13.7289 16.1739V14.3518C12.3623 13.6685 11.4186 12.226 11.4186 10.5557C11.4186 8.22372 13.2733 6.3365 15.551 6.3365L15.5511 6.34734ZM20.6595 15.393L20.1281 15.8703L18.7506 14.341L19.2821 13.8637L20.6595 15.393ZM10.6594 5.26276L10.1605 5.78337L11.6355 7.21502L12.1344 6.69441L10.6594 5.26276ZM8.39258 10.2735L8.41426 10.9895L10.4642 10.9244L10.4425 10.2085L8.39258 10.2735ZM10.4208 15.3822L10.9523 15.8594L12.3297 14.3301L11.7983 13.8529L10.4208 15.3822ZM15.2365 3.39722H15.9524V5.44714H15.2365V3.39722ZM20.4101 5.25192L20.909 5.77253L19.434 7.20418L18.9351 6.68357L20.4101 5.25192Z" fill="#F7F7F8"/>
<path d="M22.6986 10.2844L22.677 11.0004L20.627 10.9353L20.6487 10.2194L22.6986 10.2844ZM15.6162 3.40808V5.45801H15.9741V3.40808H15.6162ZM15.6162 6.34738L15.6271 16.597H17.1672C17.3949 16.597 17.5794 16.4126 17.5794 16.174V14.2325C18.8376 13.5058 19.6836 12.1284 19.6836 10.5557C19.6836 8.24545 17.8723 6.36915 15.6162 6.33654V6.34738ZM15.6271 16.9766V17.7359H17.1564V16.9766H15.6271ZM15.6271 17.9961V19.0806H15.8331V19.1565H16.0826V19.0806H16.1803C16.2779 19.0806 16.3538 19.0264 16.3972 18.9396H16.408C16.5382 18.9396 16.6466 18.8311 16.6466 18.6901C16.6466 18.6033 16.6032 18.5274 16.5381 18.4841H16.9069C17.037 18.4841 17.1454 18.3756 17.1454 18.2345C17.1454 18.1044 17.0369 17.985 16.9069 17.985H15.6163L15.6271 17.9961ZM20.6487 15.3823L20.1173 15.8595L18.7398 14.341L19.2713 13.8638L20.6487 15.3823ZM20.421 5.25195L20.9199 5.77256L19.4449 7.20422L18.946 6.68361L20.421 5.25195Z" fill="#E6E6E6"/>
</svg>
