<svg width="31" height="31" viewBox="0 0 31 31" fill="none" xmlns="http://www.w3.org/2000/svg">
<path d="M11.5827 4.43176C18.8836 4.43176 25.2738 10.2201 26.116 17.4482C26.9582 24.6372 21.8119 30.4647 14.6236 30.4647C7.43534 30.4647 0.927553 24.6372 0.090251 17.4482C-0.751934 10.2594 4.39444 4.43176 11.5827 4.43176ZM12.7139 11.4445C15.4903 10.8764 18.4136 12.6296 19.2412 15.3525C20.0687 18.0753 18.4871 20.7441 15.7107 21.3074C12.9343 21.8755 10.011 20.1223 9.18348 17.3994C8.35595 14.6765 9.93749 12.0076 12.7139 11.4445ZM12.8755 7.93324C8.05722 7.93324 4.60498 11.8412 5.17295 16.6599C5.73613 21.4786 10.099 25.3865 14.9173 25.3865C19.7355 25.3865 23.1829 21.4786 22.6198 16.6599C22.0665 11.9488 17.6546 7.93324 12.8755 7.93324Z" fill="#4EB8F4"/>
<path d="M21.5818 8.51599C24.0302 10.8422 25.7146 13.9762 26.1211 17.4434C26.9633 24.6323 21.8169 30.4599 14.6286 30.4599C10.5056 30.4599 6.60293 28.5402 3.87061 25.5481L7.59697 21.9683C9.4333 24.0447 12.1019 25.3866 14.9224 25.3866C19.7406 25.3866 23.188 21.4786 22.6249 16.66C22.3556 14.3387 21.1461 12.189 19.4176 10.6023L21.5868 8.51619H21.5819V8.51599H21.5818ZM10.2804 19.3827L17.3364 12.6001C18.2179 13.2955 18.9034 14.2455 19.2412 15.3572C20.0687 18.08 18.4871 20.7489 15.7107 21.3121C13.6885 21.7235 11.5927 20.9105 10.2804 19.3827Z" fill="#34ABEE"/>
<path d="M26.1258 0.00478593L21.7236 4.17713L22.4238 6.80207L26.5126 2.64447L26.1258 0V0.00478593ZM30.1509 3.95182L26.067 8.43268L23.4276 7.78624L27.5017 3.61878L30.1557 3.95182H30.1509Z" fill="#F7F7F8"/>
<path d="M27.3499 2.80105C27.6388 3.08018 27.6829 3.5013 27.4478 3.73638L15.1376 16.2582C14.9026 16.4982 14.4765 16.4639 14.1876 16.1896C13.8986 15.9105 13.8545 15.4894 14.0896 15.2543L26.3999 2.73249C26.6349 2.49253 27.0609 2.52681 27.3499 2.80105Z" fill="#595959"/>
</svg>
