<svg width="60" height="60" viewBox="0 0 60 60" fill="none" xmlns="http://www.w3.org/2000/svg">
<g clip-path="url(#clip0)">
<path d="M17.6176 0.638409C17.3184 0.647093 17.0339 0.769843 16.8222 0.98131L13.3017 4.50186C12.8381 4.95484 12.8294 5.69791 13.2824 6.16145C13.7354 6.62498 14.4785 6.63367 14.942 6.18069C14.9486 6.17435 14.9551 6.16778 14.9615 6.16121L16.4784 4.64432V14.7197H14.1313C13.4833 14.7105 12.9503 15.2285 12.9411 15.8765C12.932 16.5245 13.45 17.0575 14.098 17.0667C14.109 17.0669 14.1201 17.0669 14.1311 17.0667H17.4597C17.5852 17.0873 17.7131 17.0873 17.8387 17.0667H19.9987C20.6467 17.0758 21.1797 16.5579 21.1889 15.9098C21.198 15.2618 20.68 14.7288 20.032 14.7197C20.021 14.7194 20.0099 14.7194 19.9989 14.7197H18.8254V1.81099C18.8252 1.16274 18.2994 0.637705 17.6512 0.63794C17.6401 0.63794 17.6289 0.638174 17.6176 0.638409ZM30.5599 0.638409C30.2606 0.647093 29.9761 0.769843 29.7644 0.98131L26.2439 4.50186C25.7764 4.95085 25.7611 5.69368 26.2101 6.16121C26.6591 6.62874 27.4019 6.64399 27.8694 6.19501C27.8809 6.18398 27.8922 6.17271 27.9032 6.16121L29.4206 4.64385V14.7197H27.0736C26.4256 14.7105 25.8925 15.2285 25.8834 15.8765C25.8742 16.5245 26.3922 17.0575 27.0402 17.0667C27.0513 17.0669 27.0623 17.0669 27.0733 17.0667H30.4019C30.5279 17.0873 30.6563 17.0873 30.7823 17.0667H32.9409C33.5889 17.0758 34.1219 16.5579 34.1311 15.9098C34.1402 15.2618 33.6223 14.7288 32.9742 14.7197C32.9632 14.7194 32.9522 14.7194 32.9411 14.7197H31.7676V1.81099C31.7674 1.16274 31.2417 0.637705 30.5934 0.63794C30.5824 0.63794 30.5711 0.638174 30.5599 0.638409ZM4.12311 0.646389C1.86785 0.646389 0.0158068 2.49843 0.0158068 4.7537V12.9683C0.0158068 15.2236 1.86785 17.0756 4.12311 17.0756C6.37838 17.0756 8.23042 15.2236 8.23042 12.9683V4.7537C8.23042 2.49843 6.37838 0.646389 4.12311 0.646389ZM42.9496 0.646389C40.6943 0.646389 38.8423 2.49843 38.8423 4.7537V12.9683C38.8423 15.2236 40.6943 17.0756 42.9496 17.0756C45.2049 17.0756 47.0569 15.2236 47.0569 12.9683V4.7537C47.0569 2.49843 45.2046 0.646389 42.9496 0.646389ZM55.8918 0.646389C53.6366 0.646389 51.7845 2.49843 51.7845 4.7537V12.9683C51.7845 15.2236 53.6366 17.0756 55.8918 17.0756C58.1471 17.0756 59.9991 15.2236 59.9991 12.9683V4.7537C59.9991 2.49843 58.1469 0.646389 55.8918 0.646389ZM4.12311 2.99342C5.11849 2.99342 5.88339 3.75832 5.88339 4.7537V12.9683C5.88339 13.9637 5.11849 14.7286 4.12311 14.7286C3.12774 14.7286 2.36284 13.9637 2.36284 12.9683V4.7537C2.36284 3.75808 3.12774 2.99342 4.12311 2.99342ZM42.9496 2.99342C43.945 2.99342 44.7099 3.75832 44.7099 4.7537V12.9683C44.7099 13.9637 43.945 14.7286 42.9496 14.7286C41.9542 14.7286 41.1893 13.9637 41.1893 12.9683V4.7537C41.1893 3.75808 41.954 2.99342 42.9496 2.99342ZM55.8918 2.99342C56.8872 2.99342 57.6521 3.75832 57.6521 4.7537V12.9683C57.6521 13.9637 56.8872 14.7286 55.8918 14.7286C54.8965 14.7286 54.1316 13.9637 54.1316 12.9683V4.7537C54.1316 3.75808 54.8962 2.99342 55.8918 2.99342ZM4.6756 21.7784C4.37636 21.787 4.0919 21.9098 3.8802 22.1213L0.359647 25.6418C-0.0984936 26.1004 -0.0977895 26.8437 0.360821 27.3016C0.818961 27.7593 1.56133 27.7593 2.01947 27.3016L3.53636 25.7847V35.8601H1.18932C0.541307 35.8509 0.00829633 36.3689 -0.000857095 37.0169C-0.0100105 37.665 0.507979 38.198 1.156 38.2071C1.16703 38.2074 1.17806 38.2074 1.18909 38.2071H4.51765C4.64369 38.2278 4.77207 38.2278 4.8981 38.2071H7.05667C7.70468 38.2163 8.23769 37.6983 8.24685 37.0503C8.256 36.4022 7.73801 35.8692 7.09 35.8601C7.07897 35.8599 7.06793 35.8599 7.0569 35.8601H5.88339V22.9514C5.88339 22.3032 5.35789 21.7779 4.70964 21.7779C4.69837 21.7779 4.68687 21.7779 4.6756 21.7784ZM30.5599 21.7784C30.2606 21.787 29.9761 21.9098 29.7644 22.1213L26.2439 25.6418C25.7801 26.0948 25.7714 26.8376 26.2242 27.3014C26.6772 27.7652 27.42 27.7739 27.8838 27.3211C27.8903 27.3148 27.8969 27.3082 27.9032 27.3016L29.4206 25.7843V35.8601H27.0736C26.4256 35.8509 25.8925 36.3689 25.8834 37.0169C25.8742 37.665 26.3922 38.198 27.0402 38.2071C27.0513 38.2074 27.0623 38.2074 27.0733 38.2071H30.4019C30.5279 38.2278 30.6563 38.2278 30.7823 38.2071H32.9409C33.5889 38.2163 34.1219 37.6983 34.1311 37.0503C34.1402 36.4022 33.6223 35.8692 32.9742 35.8601C32.9632 35.8599 32.9522 35.8599 32.9411 35.8601H31.7676V22.9514C31.7676 22.3032 31.2421 21.7779 30.5939 21.7779C30.5826 21.7779 30.5711 21.7779 30.5599 21.7784ZM43.5019 21.7784C43.2026 21.787 42.9181 21.9098 42.7064 22.1213L39.1859 25.6418C38.7221 26.0948 38.7134 26.8376 39.1662 27.3014C39.6192 27.7652 40.362 27.7739 40.8258 27.3211C40.8323 27.3148 40.8389 27.3082 40.8452 27.3016L42.3626 25.7843V35.8601H40.0156C39.3676 35.8509 38.8345 36.3689 38.8254 37.0169C38.8162 37.665 39.3342 38.198 39.9822 38.2071C39.9933 38.2074 40.0043 38.2074 40.0153 38.2071H43.3439C43.4699 38.2278 43.5983 38.2278 43.7244 38.2071H45.8829C46.5309 38.2163 47.0639 37.6983 47.0731 37.0503C47.0822 36.4022 46.5643 35.8692 45.9162 35.8601C45.9052 35.8599 45.8942 35.8599 45.8832 35.8601H44.7096V22.9514C44.7096 22.3032 44.1841 21.7779 43.5359 21.7779C43.5249 21.7779 43.5134 21.7779 43.5019 21.7784ZM17.0654 21.7861C14.8101 21.7861 12.958 23.6381 12.958 25.8934V34.108C12.958 36.3633 14.8101 38.2153 17.0654 38.2153C19.3206 38.2153 21.1727 36.3633 21.1727 34.108V25.8934C21.1727 23.6381 19.3204 21.7861 17.0654 21.7861ZM55.8918 21.7861C53.6366 21.7861 51.7845 23.6381 51.7845 25.8934V34.108C51.7845 36.3633 53.6366 38.2153 55.8918 38.2153C58.1471 38.2153 59.9991 36.3633 59.9991 34.108V25.8934C59.9991 23.6381 58.1469 21.7861 55.8918 21.7861ZM17.0654 24.1331C18.0607 24.1331 18.8256 24.898 18.8256 25.8934V34.108C18.8256 35.1034 18.0607 35.8683 17.0654 35.8683C16.07 35.8683 15.3051 35.1034 15.3051 34.108V25.8934C15.3051 24.8978 16.0697 24.1331 17.0654 24.1331ZM55.8918 24.1331C56.8872 24.1331 57.6521 24.898 57.6521 25.8934V34.108C57.6521 35.1034 56.8872 35.8683 55.8918 35.8683C54.8965 35.8683 54.1316 35.1034 54.1316 34.108V25.8934C54.1316 24.8978 54.8962 24.1331 55.8918 24.1331ZM4.6756 42.9181C4.37636 42.9268 4.0919 43.0495 3.8802 43.261L0.359647 46.7815C-0.0987283 47.2399 -0.0987283 47.983 0.359647 48.4413C0.818022 48.8997 1.56109 48.8997 2.01947 48.4413L3.53636 46.9245V56.9993H1.18932C0.541307 56.9902 0.00829633 57.5082 -0.000857095 58.1562C-0.0100105 58.8042 0.507979 59.3372 1.156 59.3464C1.16703 59.3466 1.17806 59.3466 1.18909 59.3464H4.51765C4.64369 59.367 4.77207 59.367 4.8981 59.3464H7.05667C7.70468 59.3555 8.23769 58.8375 8.24685 58.1895C8.256 57.5415 7.73801 57.0085 7.09 56.9993C7.07897 56.9991 7.06793 56.9991 7.0569 56.9993H5.88339V44.0907C5.88315 43.4424 5.35742 42.9174 4.70917 42.9176C4.69814 42.9176 4.68687 42.9178 4.6756 42.9181ZM17.6176 42.9181C17.3184 42.9268 17.0339 43.0495 16.8222 43.261L13.3017 46.7815C12.8433 47.2399 12.8433 47.983 13.3017 48.4413C13.76 48.8997 14.5031 48.8997 14.9615 48.4413L16.4784 46.9245V56.9993H14.1313C13.4833 56.9902 12.9503 57.5082 12.9411 58.1562C12.932 58.8042 13.45 59.3372 14.098 59.3464C14.109 59.3466 14.1201 59.3466 14.1311 59.3464H17.4597C17.5852 59.367 17.7131 59.367 17.8387 59.3464H19.9987C20.6467 59.3555 21.1797 58.8375 21.1889 58.1895C21.198 57.5415 20.68 57.0085 20.032 56.9993C20.021 56.9991 20.0099 56.9991 19.9989 56.9993H18.8254V44.0907C18.8252 43.4424 18.2994 42.9174 17.6512 42.9176C17.6401 42.9176 17.6289 42.9178 17.6176 42.9181ZM30.5599 42.9181C30.2606 42.9268 29.9761 43.0495 29.7644 43.261L26.2439 46.7815C25.7801 47.2345 25.7714 47.9773 26.2242 48.4411C26.6772 48.9049 27.42 48.9136 27.8838 48.4608C27.8903 48.4545 27.8969 48.4479 27.9032 48.4413L29.4206 46.924V56.9993H27.0736C26.4256 56.9902 25.8925 57.5082 25.8834 58.1562C25.8742 58.8042 26.3922 59.3372 27.0402 59.3464C27.0513 59.3466 27.0623 59.3466 27.0733 59.3464H30.4019C30.5279 59.367 30.6563 59.367 30.7823 59.3464H32.9409C33.5889 59.3555 34.1219 58.8375 34.1311 58.1895C34.1402 57.5415 33.6223 57.0085 32.9742 56.9993C32.9632 56.9991 32.9522 56.9991 32.9411 56.9993H31.7676V44.0907C31.7674 43.4424 31.2417 42.9174 30.5934 42.9176C30.5824 42.9176 30.5711 42.9178 30.5599 42.9181ZM43.5019 42.9181C43.2026 42.9268 42.9181 43.0495 42.7064 43.261L39.1859 46.7815C38.7221 47.2345 38.7134 47.9773 39.1662 48.4411C39.6192 48.9049 40.362 48.9136 40.8258 48.4608C40.8323 48.4545 40.8389 48.4479 40.8452 48.4413L42.3626 46.924V56.9993H40.0156C39.3676 56.9902 38.8345 57.5082 38.8254 58.1562C38.8162 58.8042 39.3342 59.3372 39.9822 59.3464C39.9933 59.3466 40.0043 59.3466 40.0153 59.3464H43.3439C43.4699 59.367 43.5983 59.367 43.7244 59.3464H45.8829C46.5309 59.3555 47.0639 58.8375 47.0731 58.1895C47.0822 57.5415 46.5643 57.0085 45.9162 56.9993C45.9052 56.9991 45.8942 56.9991 45.8832 56.9993H44.7096V44.0907C44.7094 43.4424 44.1837 42.9174 43.5354 42.9176C43.5244 42.9176 43.5131 42.9178 43.5019 42.9181ZM55.8918 42.9258C53.6366 42.9258 51.7845 44.7779 51.7845 47.0331V55.2477C51.7845 57.503 53.6366 59.355 55.8918 59.355C58.1471 59.355 59.9991 57.503 59.9991 55.2477V47.0331C59.9991 44.7781 58.1469 42.9258 55.8918 42.9258ZM55.8918 45.2729C56.8872 45.2729 57.6521 46.0378 57.6521 47.0331V55.2477C57.6521 56.2431 56.8872 57.008 55.8918 57.008C54.8965 57.008 54.1316 56.2431 54.1316 55.2477V47.0331C54.1316 46.0378 54.8962 45.2729 55.8918 45.2729Z" fill="#595959"/>
</g>
<defs>
<clipPath id="clip0">
<rect width="60" height="60" fill="white"/>
</clipPath>
</defs>
</svg>
