<svg width="223" height="47" viewBox="0 0 223 47" fill="none" xmlns="http://www.w3.org/2000/svg">
<path d="M42.6211 5.78075C43.6329 0.377005 40.5975 0 40.5975 0H22.8914C17.3267 2.63904 20.362 8.41979 22.8914 8.41979L25.2943 8.92246C26.9385 8.92246 27.318 12.3155 25.2943 12.9439H3.92057C-1.39119 16.0856 1.3912 20.7353 3.92057 21.4893H24.5355C24.5355 21.4893 27.8238 23.5 24.5355 25.5107H14.7972C11.2559 26.6417 10.2442 31.5428 13.9119 34.3075L20.9943 34.5588C22.8914 36.0668 21.8796 37.1979 20.9943 38.4545H16.9472C14.7972 37.5749 9.99122 43.8583 15.9354 47H33.0091C33.0091 47 34.7798 47 35.6651 44.8636L42.6211 5.78075Z" fill="#4EB8F4"/>
<path d="M9.61188 29.5321C9.61188 32.1695 7.46018 34.3075 4.80594 34.3075C2.15169 34.3075 0 32.1695 0 29.5321C0 26.8947 2.15169 24.7567 4.80594 24.7567C7.46018 24.7567 9.61188 26.8947 9.61188 29.5321Z" fill="#4EB8F4"/>
<path d="M53.4198 6.13765C53.614 6.11352 53.9176 6.10145 54.3304 6.10145H55.2774C56.9043 6.10145 58.4948 6.22209 60.0489 6.46338C60.8503 6.58402 61.4695 6.70466 61.9065 6.8253V12.0008C61.5423 11.9767 60.9352 11.9164 60.0854 11.8199C58.9441 11.6992 57.9485 11.6389 57.0986 11.6389C56.1516 11.6389 55.3867 11.6751 54.8039 11.7475C54.2454 11.7957 53.784 11.8923 53.4198 12.037V6.13765ZM55.2774 31.581C52.8491 31.581 50.9187 31.3759 49.486 30.9657C48.0776 30.5314 47.0092 29.8196 46.2807 28.8304C45.5765 27.8893 45.0908 26.6467 44.8237 25.1025C44.5809 23.5342 44.4595 21.4471 44.4595 18.8412C44.4595 16.549 44.5445 14.6911 44.7144 13.2676C44.9087 11.844 45.2487 10.6496 45.7343 9.68451C46.2442 8.69525 46.9849 7.93521 47.9562 7.40438C48.9518 6.84943 50.263 6.47544 51.89 6.28242V18.8412C51.89 20.1924 51.9142 21.4953 51.9628 22.75C52.0114 23.7151 52.1935 24.439 52.5092 24.9216C52.8491 25.4041 53.3712 25.7057 54.0754 25.8264C54.7553 25.9711 55.763 26.0435 57.0986 26.0435C58.4827 26.0435 59.6604 25.9832 60.6317 25.8626C61.0202 25.8384 61.4937 25.7781 62.0522 25.6816V30.9295C60.8624 31.1949 59.5147 31.3759 58.0092 31.4724C57.1836 31.5448 56.273 31.581 55.2774 31.581Z" fill="#4EB8F4"/>
<path d="M71.317 23.0757L70.9892 22.3519L70.0422 20.5061L69.1316 18.5879C69.0344 18.419 68.913 18.1656 68.7673 17.8278L67.274 14.7515L63.2673 6.39099H70.6978L78.6018 23.1119V31.2914H71.317V23.0757ZM76.0157 14.1L79.4031 6.39099H86.6879L83.8469 12.2542L82.6449 14.7153L79.4396 21.3385L76.0157 14.1Z" fill="#4EB8F4"/>
<path d="M88.8665 6.39099H96.1513V31.2914H88.8665V6.39099ZM97.6811 25.754H99.1745C99.8544 25.754 100.364 25.7419 100.704 25.7178C101.069 25.6695 101.336 25.573 101.506 25.4283C101.676 25.2835 101.785 25.0784 101.833 24.813C101.906 24.5476 101.943 24.1615 101.943 23.6548C101.943 23.124 101.906 22.7259 101.833 22.4605C101.785 22.1951 101.676 21.99 101.506 21.8452C101.214 21.6039 100.437 21.4833 99.1745 21.4833H97.6811V15.9458H98.956C99.6359 15.9458 100.146 15.9338 100.486 15.9096C100.85 15.8614 101.117 15.7649 101.287 15.6201C101.457 15.4753 101.566 15.2823 101.615 15.041C101.688 14.7756 101.724 14.4137 101.724 13.9552C101.724 13.4727 101.688 13.1107 101.615 12.8695C101.566 12.604 101.457 12.399 101.287 12.2542C101.117 12.1094 100.85 12.025 100.486 12.0008C100.146 11.9526 99.6359 11.9284 98.956 11.9284H97.6811V6.39099H101.833C106.714 6.39099 109.155 8.4781 109.155 12.6523C109.155 14.4137 108.803 15.7407 108.098 16.6335C107.418 17.5262 106.326 18.1536 104.82 18.5155V18.6603C106.399 19.0222 107.528 19.5892 108.208 20.3613C108.985 21.2782 109.373 22.7018 109.373 24.632C109.373 26.8518 108.778 28.5167 107.588 29.6266C106.399 30.7365 104.492 31.2914 101.87 31.2914H97.6811V25.754Z" fill="#4EB8F4"/>
<path d="M113.268 6.39099H120.553V31.2914H113.268V6.39099ZM122.082 6.39099H131.334V11.9284H122.082V6.39099ZM122.082 15.9458H129.622V21.4833H122.082V15.9458ZM122.082 25.754H131.334V31.2914H122.082V25.754Z" fill="#4EB8F4"/>
<path d="M135.713 6.39099H142.997V31.2914H135.713V6.39099ZM145.984 22.8224H144.527V17.2849H145.766C146.518 17.2849 147.089 17.2608 147.477 17.2126C147.866 17.1402 148.17 17.0195 148.388 16.8506C148.582 16.6817 148.716 16.4284 148.789 16.0906C148.862 15.7528 148.898 15.2582 148.898 14.6067C148.898 13.9552 148.862 13.4606 148.789 13.1228C148.716 12.7609 148.582 12.4955 148.388 12.3266C148.194 12.1577 147.902 12.0491 147.514 12.0008C147.15 11.9526 146.567 11.9284 145.766 11.9284H144.527V6.39099H148.279C150.003 6.39099 151.399 6.55989 152.468 6.89769C153.536 7.23549 154.362 7.75424 154.944 8.45397C155.479 9.10543 155.831 9.91373 156.001 10.8789C156.195 11.844 156.292 13.0866 156.292 14.6067C156.292 16.5611 156.11 18.0691 155.746 19.1308C155.236 20.4819 154.337 21.435 153.05 21.99L156.838 31.2914H149.189L145.984 22.8224Z" fill="#4EB8F4"/>
<path d="M160.256 6.39099H167.541V31.2914H160.256V6.39099ZM169.071 6.39099H177.594V11.9284H169.071V6.39099ZM169.071 16.6697H176.246V22.2071H169.071V16.6697Z" fill="#4EB8F4"/>
<path d="M191.441 31.581C188.892 31.581 186.925 31.3759 185.541 30.9657C184.156 30.5555 183.137 29.892 182.481 28.9751C181.874 28.1306 181.497 27.0569 181.352 25.754C181.206 24.4511 181.133 22.5087 181.133 19.927V6.39099H188.418V21.3747C188.418 22.2674 188.442 23.124 188.491 23.9444C188.539 24.5958 188.649 25.0663 188.819 25.3559C188.989 25.6454 189.28 25.8264 189.693 25.8988C190.057 25.9953 190.64 26.0435 191.441 26.0435H192.279C192.473 26.0435 192.692 26.0194 192.935 25.9711V31.5448C192.765 31.5689 192.522 31.581 192.206 31.581H191.441ZM194.464 6.39099H201.749V19.927C201.749 22.2916 201.701 24.0771 201.603 25.2835C201.506 26.4899 201.239 27.5033 200.802 28.3237C200.316 29.2647 199.576 29.9885 198.58 30.4952C197.585 31.0019 196.213 31.3276 194.464 31.4724V6.39099Z" fill="#4EB8F4"/>
<path d="M206.391 6.39099H213.675V31.2914H206.391V6.39099ZM215.205 25.4644H223V31.2914H215.205V25.4644Z" fill="#4EB8F4"/>
<path d="M44.6598 44.1096C44.5708 44.1096 44.4979 44.0815 44.4413 44.0252C44.3846 43.9608 44.3563 43.8844 44.3563 43.796V35.9663C44.3563 35.8778 44.3846 35.8055 44.4413 35.7492C44.506 35.6929 44.5789 35.6647 44.6598 35.6647H46.226C46.3151 35.6647 46.3879 35.6929 46.4446 35.7492C46.5093 35.8055 46.5417 35.8778 46.5417 35.9663V40.8161L49.9898 35.8939C50.087 35.7411 50.2246 35.6647 50.4027 35.6647H51.811C51.9001 35.6647 51.9729 35.6929 52.0296 35.7492C52.0862 35.8055 52.1146 35.8778 52.1146 35.9663V43.808C52.1146 43.8885 52.0862 43.9608 52.0296 44.0252C51.9729 44.0815 51.9001 44.1096 51.811 44.1096H50.2448C50.1558 44.1096 50.0789 44.0815 50.0141 44.0252C49.9575 43.9689 49.9291 43.8965 49.9291 43.808V39.1271L46.481 43.8804C46.3758 44.0332 46.2382 44.1096 46.0682 44.1096H44.6598Z" fill="#4EB8F4"/>
<path d="M54.1215 44.1096C54.0325 44.1096 53.9596 44.0815 53.903 44.0252C53.8463 43.9689 53.818 43.8965 53.818 43.808V35.9663C53.818 35.8778 53.8463 35.8055 53.903 35.7492C53.9677 35.6929 54.0406 35.6647 54.1215 35.6647H55.6877C55.7768 35.6647 55.8496 35.6929 55.9063 35.7492C55.971 35.8055 56.0034 35.8778 56.0034 35.9663V38.8738H58.9902V35.9663C58.9902 35.8778 59.0185 35.8055 59.0752 35.7492C59.1318 35.6929 59.2047 35.6647 59.2937 35.6647H60.8599C60.949 35.6647 61.0218 35.6929 61.0785 35.7492C61.1351 35.8055 61.1635 35.8778 61.1635 35.9663V43.808C61.1635 43.8965 61.1351 43.9689 61.0785 44.0252C61.0218 44.0815 60.949 44.1096 60.8599 44.1096H59.2937C59.2047 44.1096 59.1318 44.0815 59.0752 44.0252C59.0185 43.9689 58.9902 43.8965 58.9902 43.808V40.804H56.0034V43.808C56.0034 43.8965 55.971 43.9689 55.9063 44.0252C55.8496 44.0815 55.7768 44.1096 55.6877 44.1096H54.1215Z" fill="#4EB8F4"/>
<path d="M65.038 44.1096C64.957 44.1096 64.8842 44.0815 64.8194 44.0252C64.7628 43.9608 64.7344 43.8885 64.7344 43.808V37.5588H62.5733C62.4923 37.5588 62.4195 37.5306 62.3547 37.4743C62.2981 37.41 62.2697 37.3376 62.2697 37.2572V35.9663C62.2697 35.8778 62.2981 35.8055 62.3547 35.7492C62.4195 35.6929 62.4923 35.6647 62.5733 35.6647H69.1053C69.1943 35.6647 69.2672 35.6929 69.3238 35.7492C69.3805 35.8055 69.4088 35.8778 69.4088 35.9663V37.2572C69.4088 37.3456 69.3805 37.418 69.3238 37.4743C69.2672 37.5306 69.1943 37.5588 69.1053 37.5588H66.9442V43.808C66.9442 43.8885 66.9158 43.9608 66.8592 44.0252C66.8025 44.0815 66.7297 44.1096 66.6406 44.1096H65.038Z" fill="#4EB8F4"/>
<path d="M70.8158 44.1096C70.7349 44.1096 70.662 44.0815 70.5973 44.0252C70.5406 43.9608 70.5123 43.8885 70.5123 43.808V35.9663C70.5123 35.8778 70.5406 35.8055 70.5973 35.7492C70.662 35.6929 70.7349 35.6647 70.8158 35.6647H76.4858C76.5748 35.6647 76.6477 35.6929 76.7043 35.7492C76.761 35.8055 76.7893 35.8778 76.7893 35.9663V37.1003C76.7893 37.1808 76.761 37.2532 76.7043 37.3175C76.6477 37.3738 76.5748 37.4019 76.4858 37.4019H72.6127V39.0306H76.2187C76.3077 39.0306 76.3806 39.0628 76.4372 39.1271C76.4939 39.1834 76.5222 39.2558 76.5222 39.3443V40.3939C76.5222 40.4743 76.4939 40.5467 76.4372 40.611C76.3806 40.6673 76.3077 40.6955 76.2187 40.6955H72.6127V42.3724H76.5829C76.672 42.3724 76.7448 42.4005 76.8015 42.4568C76.8581 42.5131 76.8865 42.5855 76.8865 42.674V43.808C76.8865 43.8885 76.8581 43.9608 76.8015 44.0252C76.7448 44.0815 76.672 44.1096 76.5829 44.1096H70.8158Z" fill="#4EB8F4"/>
<path d="M78.5701 44.1096C78.4892 44.1096 78.4163 44.0815 78.3516 44.0252C78.2949 43.9608 78.2666 43.8885 78.2666 43.808V35.9663C78.2666 35.8778 78.2949 35.8055 78.3516 35.7492C78.4163 35.6929 78.4892 35.6647 78.5701 35.6647H81.9697C83.0058 35.6647 83.8192 35.902 84.4101 36.3765C85.0091 36.851 85.3086 37.5427 85.3086 38.4515C85.3086 39.3523 85.0131 40.0319 84.4222 40.4904C83.8314 40.9408 83.0138 41.166 81.9697 41.166H80.5249V43.808C80.5249 43.8965 80.4925 43.9689 80.4277 44.0252C80.3711 44.0815 80.2982 44.1096 80.2092 44.1096H78.5701ZM81.909 39.5011C82.2651 39.5011 82.5444 39.4126 82.7467 39.2357C82.9491 39.0507 83.0503 38.7813 83.0503 38.4274C83.0503 38.0976 82.9531 37.8363 82.7589 37.6432C82.5727 37.4422 82.2894 37.3416 81.909 37.3416H80.4885V39.5011H81.909Z" fill="#4EB8F4"/>
<path d="M86.775 44.1096C86.686 44.1096 86.6131 44.0815 86.5565 44.0252C86.4998 43.9689 86.4715 43.8965 86.4715 43.808V35.9663C86.4715 35.8778 86.4998 35.8055 86.5565 35.7492C86.6212 35.6929 86.6941 35.6647 86.775 35.6647H88.3412C88.4303 35.6647 88.5031 35.6929 88.5598 35.7492C88.6245 35.8055 88.6569 35.8778 88.6569 35.9663V38.8738H91.6437V35.9663C91.6437 35.8778 91.672 35.8055 91.7287 35.7492C91.7853 35.6929 91.8582 35.6647 91.9472 35.6647H93.5134C93.6025 35.6647 93.6753 35.6929 93.732 35.7492C93.7886 35.8055 93.817 35.8778 93.817 35.9663V43.808C93.817 43.8965 93.7886 43.9689 93.732 44.0252C93.6753 44.0815 93.6025 44.1096 93.5134 44.1096H91.9472C91.8582 44.1096 91.7853 44.0815 91.7287 44.0252C91.672 43.9689 91.6437 43.8965 91.6437 43.808V40.804H88.6569V43.808C88.6569 43.8965 88.6245 43.9689 88.5598 44.0252C88.5031 44.0815 88.4303 44.1096 88.3412 44.1096H86.775Z" fill="#4EB8F4"/>
<path d="M95.8217 44.1096C95.7408 44.1096 95.6679 44.0815 95.6032 44.0252C95.5465 43.9608 95.5182 43.8885 95.5182 43.808V35.9663C95.5182 35.8778 95.5465 35.8055 95.6032 35.7492C95.6679 35.6929 95.7408 35.6647 95.8217 35.6647H101.492C101.581 35.6647 101.654 35.6929 101.71 35.7492C101.767 35.8055 101.795 35.8778 101.795 35.9663V37.1003C101.795 37.1808 101.767 37.2532 101.71 37.3175C101.654 37.3738 101.581 37.4019 101.492 37.4019H97.6186V39.0306H101.225C101.314 39.0306 101.386 39.0628 101.443 39.1271C101.5 39.1834 101.528 39.2558 101.528 39.3443V40.3939C101.528 40.4743 101.5 40.5467 101.443 40.611C101.386 40.6673 101.314 40.6955 101.225 40.6955H97.6186V42.3724H101.589C101.678 42.3724 101.751 42.4005 101.807 42.4568C101.864 42.5131 101.892 42.5855 101.892 42.674V43.808C101.892 43.8885 101.864 43.9608 101.807 44.0252C101.751 44.0815 101.678 44.1096 101.589 44.1096H95.8217Z" fill="#4EB8F4"/>
<path d="M105.446 44.1096C105.365 44.1096 105.292 44.0815 105.227 44.0252C105.171 43.9608 105.142 43.8885 105.142 43.808V37.5588H102.981C102.9 37.5588 102.827 37.5306 102.763 37.4743C102.706 37.41 102.678 37.3376 102.678 37.2572V35.9663C102.678 35.8778 102.706 35.8055 102.763 35.7492C102.827 35.6929 102.9 35.6647 102.981 35.6647H109.513C109.602 35.6647 109.675 35.6929 109.732 35.7492C109.788 35.8055 109.817 35.8778 109.817 35.9663V37.2572C109.817 37.3456 109.788 37.418 109.732 37.4743C109.675 37.5306 109.602 37.5588 109.513 37.5588H107.352V43.808C107.352 43.8885 107.324 43.9608 107.267 44.0252C107.21 44.0815 107.137 44.1096 107.048 44.1096H105.446Z" fill="#4EB8F4"/>
<path d="M113.019 44.1096C112.954 44.1096 112.894 44.0855 112.837 44.0372C112.789 43.9809 112.764 43.9206 112.764 43.8563C112.764 43.808 112.768 43.7718 112.776 43.7477L115.63 36.0025C115.654 35.906 115.706 35.8256 115.787 35.7612C115.868 35.6969 115.974 35.6647 116.103 35.6647H117.9C118.03 35.6647 118.135 35.6969 118.216 35.7612C118.297 35.8256 118.349 35.906 118.374 36.0025L121.215 43.7477L121.239 43.8563C121.239 43.9206 121.211 43.9809 121.154 44.0372C121.105 44.0855 121.045 44.1096 120.972 44.1096H119.478C119.284 44.1096 119.155 44.0252 119.09 43.8563L118.616 42.6257H115.375L114.913 43.8563C114.849 44.0252 114.715 44.1096 114.513 44.1096H113.019ZM118.131 40.8885L117.002 37.7035L115.872 40.8885H118.131Z" fill="#4EB8F4"/>
<path d="M122.499 44.1096C122.418 44.1096 122.346 44.0815 122.281 44.0252C122.224 43.9608 122.196 43.8885 122.196 43.808V35.9663C122.196 35.8778 122.224 35.8055 122.281 35.7492C122.346 35.6929 122.418 35.6647 122.499 35.6647H127.732C127.821 35.6647 127.894 35.6929 127.951 35.7492C128.008 35.8055 128.036 35.8778 128.036 35.9663V37.1727C128.036 37.2612 128.008 37.3376 127.951 37.4019C127.894 37.4582 127.821 37.4864 127.732 37.4864H124.381V43.808C124.381 43.8965 124.349 43.9689 124.284 44.0252C124.228 44.0815 124.155 44.1096 124.066 44.1096H122.499Z" fill="#4EB8F4"/>
<path d="M129.353 44.1096C129.272 44.1096 129.199 44.0815 129.134 44.0252C129.077 43.9608 129.049 43.8885 129.049 43.808V35.9663C129.049 35.8778 129.077 35.8055 129.134 35.7492C129.199 35.6929 129.272 35.6647 129.353 35.6647H135.023C135.112 35.6647 135.184 35.6929 135.241 35.7492C135.298 35.8055 135.326 35.8778 135.326 35.9663V37.1003C135.326 37.1808 135.298 37.2532 135.241 37.3175C135.184 37.3738 135.112 37.4019 135.023 37.4019H131.15V39.0306H134.755C134.845 39.0306 134.917 39.0628 134.974 39.1271C135.031 39.1834 135.059 39.2558 135.059 39.3443V40.3939C135.059 40.4743 135.031 40.5467 134.974 40.611C134.917 40.6673 134.845 40.6955 134.755 40.6955H131.15V42.3724H135.12C135.209 42.3724 135.282 42.4005 135.338 42.4568C135.395 42.5131 135.423 42.5855 135.423 42.674V43.808C135.423 43.8885 135.395 43.9608 135.338 44.0252C135.282 44.0815 135.209 44.1096 135.12 44.1096H129.353Z" fill="#4EB8F4"/>
<path d="M137.107 44.1096C137.018 44.1096 136.945 44.0815 136.888 44.0252C136.832 43.9689 136.803 43.8965 136.803 43.808V35.9663C136.803 35.8778 136.832 35.8055 136.888 35.7492C136.953 35.6929 137.026 35.6647 137.107 35.6647H138.673C138.762 35.6647 138.835 35.6929 138.892 35.7492C138.956 35.8055 138.989 35.8778 138.989 35.9663V38.8738H141.976V35.9663C141.976 35.8778 142.004 35.8055 142.061 35.7492C142.117 35.6929 142.19 35.6647 142.279 35.6647H143.845C143.934 35.6647 144.007 35.6929 144.064 35.7492C144.121 35.8055 144.149 35.8778 144.149 35.9663V43.808C144.149 43.8965 144.121 43.9689 144.064 44.0252C144.007 44.0815 143.934 44.1096 143.845 44.1096H142.279C142.19 44.1096 142.117 44.0815 142.061 44.0252C142.004 43.9689 141.976 43.8965 141.976 43.808V40.804H138.989V43.808C138.989 43.8965 138.956 43.9689 138.892 44.0252C138.835 44.0815 138.762 44.1096 138.673 44.1096H137.107Z" fill="#4EB8F4"/>
<path d="M148.023 44.1096C147.942 44.1096 147.87 44.0815 147.805 44.0252C147.748 43.9608 147.72 43.8885 147.72 43.808V37.5588H145.559C145.478 37.5588 145.405 37.5306 145.34 37.4743C145.283 37.41 145.255 37.3376 145.255 37.2572V35.9663C145.255 35.8778 145.283 35.8055 145.34 35.7492C145.405 35.6929 145.478 35.6647 145.559 35.6647H152.091C152.18 35.6647 152.253 35.6929 152.309 35.7492C152.366 35.8055 152.394 35.8778 152.394 35.9663V37.2572C152.394 37.3456 152.366 37.418 152.309 37.4743C152.253 37.5306 152.18 37.5588 152.091 37.5588H149.93V43.808C149.93 43.8885 149.901 43.9608 149.845 44.0252C149.788 44.0815 149.715 44.1096 149.626 44.1096H148.023Z" fill="#4EB8F4"/>
<path d="M156.982 44.2303C155.825 44.2303 154.918 43.9528 154.263 43.3978C153.615 42.8348 153.271 42.0225 153.231 40.9609C153.222 40.7437 153.218 40.3898 153.218 39.8992C153.218 39.4006 153.222 39.0387 153.231 38.8135C153.271 37.7679 153.623 36.9636 154.287 36.4006C154.951 35.8296 155.849 35.5441 156.982 35.5441C157.695 35.5441 158.334 35.6647 158.901 35.906C159.467 36.1392 159.912 36.477 160.236 36.9194C160.568 37.3537 160.738 37.8644 160.746 38.4515V38.4757C160.746 38.54 160.718 38.5963 160.661 38.6446C160.613 38.6848 160.556 38.7049 160.491 38.7049H158.852C158.747 38.7049 158.666 38.6848 158.609 38.6446C158.553 38.5963 158.504 38.5119 158.463 38.3912C158.35 37.981 158.172 37.6955 157.929 37.5347C157.686 37.3658 157.367 37.2813 156.97 37.2813C156.015 37.2813 155.521 37.8121 155.489 38.8738C155.481 39.0909 155.477 39.4247 155.477 39.8751C155.477 40.3255 155.481 40.6673 155.489 40.9006C155.521 41.9622 156.015 42.493 156.97 42.493C157.367 42.493 157.69 42.4086 157.941 42.2397C158.192 42.0627 158.366 41.7772 158.463 41.3831C158.496 41.2625 158.54 41.1821 158.597 41.1418C158.654 41.0936 158.739 41.0695 158.852 41.0695H160.491C160.564 41.0695 160.625 41.0936 160.673 41.1418C160.73 41.1901 160.754 41.2504 160.746 41.3228C160.738 41.9099 160.568 42.4247 160.236 42.867C159.912 43.3013 159.467 43.6391 158.901 43.8804C158.334 44.1136 157.695 44.2303 156.982 44.2303Z" fill="#4EB8F4"/>
<path d="M164.196 44.1096C164.115 44.1096 164.042 44.0815 163.977 44.0252C163.921 43.9608 163.892 43.8885 163.892 43.808V37.5588H161.731C161.65 37.5588 161.578 37.5306 161.513 37.4743C161.456 37.41 161.428 37.3376 161.428 37.2572V35.9663C161.428 35.8778 161.456 35.8055 161.513 35.7492C161.578 35.6929 161.65 35.6647 161.731 35.6647H168.263C168.352 35.6647 168.425 35.6929 168.482 35.7492C168.539 35.8055 168.567 35.8778 168.567 35.9663V37.2572C168.567 37.3456 168.539 37.418 168.482 37.4743C168.425 37.5306 168.352 37.5588 168.263 37.5588H166.102V43.808C166.102 43.8885 166.074 43.9608 166.017 44.0252C165.961 44.0815 165.888 44.1096 165.799 44.1096H164.196Z" fill="#4EB8F4"/>
<path d="M169.974 44.1096C169.893 44.1096 169.82 44.0815 169.755 44.0252C169.699 43.9608 169.67 43.8885 169.67 43.808V35.9663C169.67 35.8778 169.699 35.8055 169.755 35.7492C169.82 35.6929 169.893 35.6647 169.974 35.6647H173.677C174.697 35.6647 175.454 35.8738 175.947 36.292C176.449 36.7022 176.7 37.2893 176.7 38.0534C176.7 38.4556 176.595 38.7974 176.384 39.0789C176.182 39.3523 175.951 39.5534 175.692 39.6821C176.024 39.8349 176.304 40.0802 176.53 40.418C176.757 40.7558 176.87 41.1338 176.87 41.552C176.87 42.3563 176.603 42.9836 176.069 43.434C175.535 43.8844 174.774 44.1096 173.786 44.1096H169.974ZM173.434 39.0185C173.758 39.0185 174.005 38.9381 174.175 38.7773C174.345 38.6084 174.43 38.3872 174.43 38.1137C174.43 37.8483 174.345 37.6352 174.175 37.4743C174.005 37.3135 173.758 37.233 173.434 37.233H171.856V39.0185H173.434ZM173.543 42.5413C173.875 42.5413 174.134 42.4448 174.32 42.2517C174.507 42.0587 174.6 41.8255 174.6 41.552C174.6 41.2625 174.507 41.0252 174.32 40.8402C174.134 40.6472 173.875 40.5507 173.543 40.5507H171.856V42.5413H173.543Z" fill="#4EB8F4"/>
<path d="M181.691 44.2303C180.55 44.2303 179.652 43.9528 178.996 43.3978C178.34 42.8429 177.992 42.0265 177.952 40.9488C177.944 40.7156 177.94 40.3697 177.94 39.9113C177.94 39.4448 177.944 39.095 177.952 38.8617C177.992 37.8001 178.344 36.9837 179.008 36.4127C179.68 35.8336 180.574 35.5441 181.691 35.5441C182.808 35.5441 183.703 35.8336 184.375 36.4127C185.046 36.9837 185.399 37.8001 185.431 38.8617C185.447 39.3282 185.455 39.6781 185.455 39.9113C185.455 40.1365 185.447 40.4823 185.431 40.9488C185.391 42.0265 185.042 42.8429 184.387 43.3978C183.731 43.9528 182.833 44.2303 181.691 44.2303ZM181.691 42.493C182.137 42.493 182.489 42.3603 182.748 42.0949C183.015 41.8295 183.156 41.4233 183.173 40.8764C183.189 40.4099 183.197 40.0802 183.197 39.8872C183.197 39.6781 183.189 39.3483 183.173 38.8979C183.156 38.351 183.015 37.9448 182.748 37.6794C182.481 37.414 182.129 37.2813 181.691 37.2813C181.254 37.2813 180.902 37.414 180.635 37.6794C180.376 37.9448 180.234 38.351 180.21 38.8979C180.202 39.1231 180.198 39.4529 180.198 39.8872C180.198 40.3134 180.202 40.6432 180.21 40.8764C180.234 41.4233 180.376 41.8295 180.635 42.0949C180.894 42.3603 181.246 42.493 181.691 42.493Z" fill="#4EB8F4"/>
</svg>
