<svg width="50" height="50" viewBox="0 0 50 50" fill="none" xmlns="http://www.w3.org/2000/svg">
<path d="M48.8886 43.45L38.5821 33.1439C41.0659 29.5584 42.3084 25.5621 42.3084 21.1547C42.3084 18.2902 41.7523 15.5506 40.6401 12.9365C39.5286 10.322 38.026 8.06854 36.133 6.1755C34.2399 4.28247 31.9868 2.77989 29.3728 1.6683C26.758 0.55639 24.0186 0.000488281 21.154 0.000488281C18.2897 0.000488281 15.5501 0.55639 12.936 1.6683C10.3215 2.77989 8.06805 4.28247 6.17501 6.1755C4.28177 8.06854 2.7794 10.3225 1.6677 12.9365C0.555902 15.5509 0 18.2902 0 21.1547C0 24.0191 0.555902 26.7578 1.6677 29.3726C2.7793 31.9866 4.28177 34.2398 6.17501 36.1336C8.06805 38.0265 10.322 39.5284 12.936 40.6407C15.5504 41.7524 18.2897 42.3082 21.154 42.3082C25.5616 42.3082 29.558 41.0655 33.1437 38.582L43.4502 48.8582C44.1713 49.6192 45.0716 50 46.1543 50C47.2161 50 48.1222 49.6247 48.8736 48.8733C49.6249 48.1221 50.0001 47.2159 50.0001 46.1541C50.0001 45.0923 49.6299 44.1912 48.8886 43.45ZM30.6644 30.664C28.0302 33.2986 24.8603 34.6158 21.154 34.6158C17.4484 34.6158 14.2785 33.2983 11.6442 30.664C9.00977 28.0298 7.69264 24.8604 7.69264 21.1541C7.69264 17.4485 9.01009 14.2781 11.6442 11.6442C14.278 9.00974 17.4484 7.69271 21.154 7.69271C24.8599 7.69271 28.0298 9.01026 30.6644 11.6442C33.299 14.2781 34.6161 17.4485 34.6161 21.1541C34.6161 24.8604 33.2985 28.0298 30.6644 30.664Z" fill="#FF9800"/>
<path d="M29.8085 19.2313H23.0777V12.5006C23.0777 12.2401 22.9825 12.0149 22.7923 11.8245C22.6019 11.6341 22.3765 11.5391 22.1163 11.5391H20.1932C19.9328 11.5391 19.7075 11.6341 19.5172 11.8245C19.327 12.0149 19.2318 12.2401 19.2318 12.5006V19.2313H12.501C12.2406 19.2313 12.0153 19.3265 11.825 19.5167C11.6346 19.7071 11.5396 19.9323 11.5396 20.1928V22.1157C11.5396 22.3762 11.6346 22.6016 11.825 22.7918C12.0154 22.9822 12.2403 23.0773 12.501 23.0773H19.2318V29.8081C19.2318 30.0689 19.327 30.294 19.5172 30.4846C19.7076 30.6744 19.9328 30.7694 20.1932 30.7694H22.1162C22.3765 30.7694 22.6019 30.6744 22.7922 30.4846C22.9824 30.294 23.0776 30.0689 23.0776 29.8081V23.0773H29.8084C30.0692 23.0773 30.2938 22.9821 30.4848 22.7918C30.6747 22.6016 30.7693 22.3762 30.7693 22.1157V20.1928C30.7693 19.9323 30.6747 19.7071 30.4848 19.5167C30.2947 19.3265 30.0692 19.2313 29.8085 19.2313Z" fill="#FF9800"/>
</svg>
