<svg width="52" height="53" viewBox="0 0 52 53" fill="none" xmlns="http://www.w3.org/2000/svg">
<path d="M28.9829 20H22.9829V14C22.9829 13.448 22.5349 13 21.9829 13C21.4309 13 20.9829 13.448 20.9829 14V20H14.9829C14.4309 20 13.9829 20.448 13.9829 21C13.9829 21.552 14.4309 22 14.9829 22H20.9829V28C20.9829 28.552 21.4309 29 21.9829 29C22.5349 29 22.9829 28.552 22.9829 28V22H28.9829C29.5349 22 29.9829 21.552 29.9829 21C29.9829 20.448 29.5349 20 28.9829 20Z" fill="#FF9800"/>
<path d="M51.7039 51.273L36.8449 35.82C40.6349 32.019 42.9829 26.779 42.9829 21C42.9829 9.42 33.5629 0 21.9829 0C10.4029 0 0.98291 9.42 0.98291 21C0.98291 32.58 10.4029 42 21.9829 42C27.0659 42 31.7309 40.183 35.3669 37.168L50.2619 52.659C50.4579 52.864 50.7199 52.966 50.9829 52.966C51.2329 52.966 51.4819 52.873 51.6759 52.687C52.0739 52.304 52.0859 51.671 51.7039 51.273ZM2.98291 21C2.98291 10.523 11.5059 2 21.9829 2C32.4599 2 40.9829 10.523 40.9829 21C40.9829 31.477 32.4599 40 21.9829 40C11.5059 40 2.98291 31.477 2.98291 21Z" fill="#FF9800"/>
</svg>
