<svg width="150" height="149" viewBox="0 0 150 149" fill="none" xmlns="http://www.w3.org/2000/svg">
<path d="M75 148.137C116.421 148.137 150 115.194 150 74.5566C150 33.919 116.421 0.975769 75 0.975769C33.5786 0.975769 0 33.919 0 74.5566C0 115.194 33.5786 148.137 75 148.137Z" fill="white"/>
<path d="M149.494 83.3019C145.06 119.821 113.425 148.139 75.0007 148.139C74.077 148.139 73.1532 148.139 72.2298 148.094L39.5786 116.06L75.2778 102.377L77.7256 88.331L57.7745 68.7574L79.8497 75.9616L91.7648 71.5668C106.497 64.1813 102.433 45.3783 97.307 32.1028L149.401 83.2111L149.494 83.3019Z" fill="white"/>
<path d="M63.0858 90.4155H79.5731C82.298 90.4155 84.5609 92.6356 84.5609 95.3087V111.665C84.5609 114.338 82.298 116.558 79.5731 116.558H63.0858C61.0537 116.558 59.2988 115.335 58.5136 113.613C58.2365 113.659 58.0056 113.704 57.7285 113.704H48.5382C46.6907 113.704 45.167 112.209 45.167 110.397V96.4868C45.167 94.6743 46.691 93.1794 48.5382 93.1794H57.7285C58.0056 93.1794 58.2825 93.2248 58.5136 93.2699C59.2988 91.5482 61.0537 90.325 63.0858 90.325V90.4155Z" fill="#FF9800"/>
<path d="M81.6048 77.8196L81.6971 87.0173H82.3897C82.7591 87.0173 83.0823 87.1532 83.3134 87.3346H75.1392C75.3701 87.1986 75.6009 87.1081 75.8784 87.1081H76.571L76.4787 77.9555C62.4391 77.0492 51.3091 65.6768 51.1705 51.6765C50.986 36.951 63.0394 24.8537 78.0487 24.6723C93.058 24.4909 105.389 36.2715 105.527 50.9967C105.666 64.7706 95.1823 76.2338 81.5588 77.8196H81.6048ZM78.0024 78.0009C78.2333 78.0009 78.4181 78.0009 78.649 78.0009C78.4181 78.0009 78.2336 78.0009 78.0024 78.0009ZM78.6493 78.0009C78.8802 78.0009 79.111 78.0009 79.3419 78.0009C79.111 78.0009 78.8802 78.0009 78.6493 78.0009ZM78.0953 29.6563C90.2876 29.5203 100.263 39.0805 100.402 51.0421C100.54 63.0038 90.7493 72.8358 78.6033 72.9718C66.411 73.1077 56.4356 63.5476 56.297 51.586C56.1584 39.6243 65.9492 29.7923 78.1416 29.6563H78.0953Z" fill="#4EB8F4"/>
<path d="M84.0525 82.7584L75.3703 82.8944H74.3543C73.2 82.8944 72.3223 83.7101 72.3223 84.6615L72.738 119.232C72.738 120.184 73.7077 120.954 74.816 120.954L84.2833 120.818C85.4376 120.818 86.3154 120.002 86.3154 119.051L85.8997 84.4801C85.8997 83.5739 85.0682 82.8493 84.0062 82.7584H84.0525Z" fill="#777373"/>
<path d="M82.8052 82.7584H83.8212C84.9755 82.7584 85.8992 83.5287 85.8992 84.4801L86.3149 119.051C86.3149 120.002 85.4375 120.818 84.2829 120.818L79.5263 120.864L79.3877 82.8041L82.8052 82.7584Z" fill="#595959"/>
<path d="M77.6798 90.1891H87.6551C89.5026 90.1891 91.0263 91.6843 91.0263 93.4965C91.0263 95.309 89.5023 96.804 87.6551 96.804C89.5026 96.804 91.0263 98.2992 91.0263 100.111C91.0263 101.924 89.5023 103.419 87.6551 103.419C89.5026 103.419 91.0263 104.914 91.0263 106.726C91.0263 108.539 89.5023 110.034 87.6551 110.034C89.5026 110.034 91.0263 111.529 91.0263 113.341C91.0263 115.154 89.5023 116.649 87.6551 116.649H77.6798C75.8323 116.649 74.3086 115.153 74.3086 113.341C74.3086 111.529 75.8326 110.034 77.6798 110.034C75.8323 110.034 74.3086 108.538 74.3086 106.726C74.3086 104.914 75.8326 103.419 77.6798 103.419C75.8323 103.419 74.3086 101.924 74.3086 100.111C74.3086 98.2989 75.8326 96.804 77.6798 96.804C75.8323 96.804 74.3086 95.3088 74.3086 93.4965C74.3083 91.6843 75.8323 90.1891 77.6798 90.1891Z" fill="#F5BE18"/>
<path d="M69.5517 82.6679H88.7636C91.0265 82.6679 89.8256 89.6455 84.4224 89.6455H71.214C77.4487 112.707 52.7409 111.348 58.5597 93.0888C61.1923 87.0175 62.7623 82.396 69.5974 82.6227L69.5517 82.6679Z" fill="#F5BE18"/>
<path d="M52.5563 91.0049H39.6255V116.061H52.5563V91.0049Z" fill="#595959"/>
<path d="M62.3464 54.6668L74.585 42.7506L75.2776 43.4301L73.7536 44.9704L74.2153 44.6531L83.5904 57.0223L93.9355 46.3745L94.6281 47.054L84.1907 57.7923L84.5141 58.2453L83.729 58.8342L83.4981 58.5169L82.7129 59.2872L82.0203 58.6078L82.8978 57.7015L73.4304 45.2866L62.947 55.3457L62.2544 54.6662H62.3467V54.6668H62.3464Z" fill="#FEFEFE"/>
<path d="M73.6163 48.0985C75.5292 48.0985 77.0798 46.5772 77.0798 44.7006C77.0798 42.8239 75.5292 41.3026 73.6163 41.3026C71.7035 41.3026 70.1528 42.8239 70.1528 44.7006C70.1528 46.5772 71.7035 48.0985 73.6163 48.0985Z" fill="#777373"/>
<path d="M73.6152 41.3006C75.555 41.3006 77.0787 42.8409 77.0787 44.6986C77.0787 46.6016 75.5087 48.0966 73.6152 48.0966V41.2549V41.3006Z" fill="#595959"/>
<path d="M83.6363 61.1472C85.5491 61.1472 87.0998 59.6259 87.0998 57.7492C87.0998 55.8725 85.5491 54.3512 83.6363 54.3512C81.7235 54.3512 80.1729 55.8725 80.1729 57.7492C80.1729 59.6259 81.7235 61.1472 83.6363 61.1472Z" fill="#F5BE18"/>
<path d="M83.6367 54.3495C85.5765 54.3495 87.1002 55.8899 87.1002 57.7475C87.1002 59.6506 85.5302 61.1455 83.6367 61.1455V54.3038V54.3495Z" fill="#FF9800"/>
<path d="M93.2896 50.8596C95.2025 50.8596 96.7531 49.3383 96.7531 47.4616C96.7531 45.5849 95.2025 44.0636 93.2896 44.0636C91.3768 44.0636 89.8262 45.5849 89.8262 47.4616C89.8262 49.3383 91.3768 50.8596 93.2896 50.8596Z" fill="#777373"/>
<path d="M93.2891 44.0645C95.2288 44.0645 96.7526 45.6048 96.7526 47.4625C96.7526 49.3655 95.1825 50.8605 93.2891 50.8605V44.0645Z" fill="#595959"/>
<path d="M63.4557 57.4313C65.3685 57.4313 66.9192 55.91 66.9192 54.0333C66.9192 52.1567 65.3685 50.6354 63.4557 50.6354C61.5428 50.6354 59.9922 52.1567 59.9922 54.0333C59.9922 55.91 61.5428 57.4313 63.4557 57.4313Z" fill="#F5BE18"/>
<path d="M63.4551 50.6343C65.3948 50.6343 66.9185 52.1746 66.9185 54.0322C66.9185 55.9353 65.3485 57.4302 63.4551 57.4302V50.6343Z" fill="#FF9800"/>
</svg>
