<svg width="98" height="100" viewBox="0 0 98 100" fill="none" xmlns="http://www.w3.org/2000/svg">
<path d="M96.7839 55.8342L94.9038 53.2592C93.3506 51.1338 93.3302 48.2523 94.8425 46.0861L96.6817 43.4907C98.8071 40.4661 97.8261 36.2767 94.5563 34.5192L91.7566 33.0069C89.4268 31.7603 88.1598 29.1649 88.589 26.5695L89.1203 23.4223C89.7334 19.7846 87.0154 16.4127 83.3164 16.2696L80.1284 16.1266C77.4921 16.0244 75.2237 14.226 74.488 11.6919L73.6092 8.62646C72.5874 5.07055 68.6841 3.23129 65.2712 4.7027L62.3488 5.96974C59.9169 7.01199 57.1172 6.39891 55.3392 4.41659L53.2139 2.04599C50.7411 -0.712903 46.429 -0.672031 43.9971 2.1073L41.9126 4.51877C40.1755 6.50109 37.3758 7.17548 34.9439 6.17411L32.001 4.96837C28.5882 3.55827 24.7053 5.45884 23.7244 9.03518L22.8865 12.1006C22.2121 14.6756 19.9845 16.4944 17.3483 16.6375L14.1602 16.8214C10.4613 17.0257 7.80455 20.4386 8.47894 24.0558L9.05116 27.1826C9.52119 29.778 8.29502 32.3938 5.98572 33.6608L3.2064 35.214C-0.0225265 37.0124 -0.962593 41.2222 1.22408 44.2059L3.10422 46.7809C4.65737 48.9063 4.67781 51.7878 3.16553 53.954L1.32626 56.5494C-0.799103 59.574 0.181836 63.7634 3.45163 65.5209L6.2514 67.0332C8.58113 68.2798 9.84817 70.8752 9.41901 73.4706L8.86723 76.5974C8.25415 80.235 10.9722 83.607 14.6711 83.75L17.8592 83.8931C20.4954 83.9953 22.7639 85.7937 23.4996 88.3278L24.3783 91.3932C25.4001 94.9491 29.3035 96.7884 32.7163 95.3169L35.6387 94.0499C38.0706 93.0077 40.8704 93.6207 42.6483 95.5826L44.7737 97.9532C47.2465 100.712 51.5585 100.671 53.9904 97.8919L56.0749 95.4804C57.812 93.4981 60.6118 92.8237 63.0437 93.8251L65.9865 95.0308C69.3993 96.4409 73.2822 94.5404 74.2632 90.964L75.1011 87.8986C75.7959 85.3645 78.0439 83.5457 80.6801 83.3822L83.8682 83.1983C87.5672 82.9939 90.2239 79.5811 89.5495 75.9638L88.9772 72.8371C88.5072 70.2417 89.7334 67.6259 92.0427 66.3588L94.822 64.8057C98.0305 63.0481 98.9501 58.8178 96.7839 55.8342ZM49.004 82.2991C31.1836 82.2991 16.7352 67.8507 16.7352 50.0303C16.7352 32.2099 31.1836 17.7615 49.004 17.7615C66.8244 17.7615 81.2728 32.2099 81.2728 50.0303C81.2728 67.8507 66.8244 82.2991 49.004 82.2991Z" fill="#64C1F5"/>
<path d="M44.8759 50.8888L42.0148 48.0073C40.3186 46.2907 37.5393 46.2907 35.8226 47.9869C34.106 49.6831 34.106 52.4624 35.8022 54.1791L38.6633 57.0606L41.8513 60.2486C43.5067 61.9244 46.2042 61.9244 47.88 60.2691L51.0681 57.1015L62.1854 46.0455C63.902 44.3493 63.902 41.5699 62.2058 39.8533C60.5096 38.1366 57.7303 38.1366 56.0136 39.8328L44.8759 50.8888Z" fill="#FF9800"/>
</svg>
