<svg width="100" height="100" viewBox="0 0 100 100" fill="none" xmlns="http://www.w3.org/2000/svg">
<path d="M21.447 46.2464C21.447 44.6298 22.76 43.3167 24.3767 43.3167H39.7308C38.3125 33.6663 29.9919 26.2368 19.973 26.2368C8.96072 26.2368 0 35.2136 0 46.2464C0 57.2816 8.96072 66.2583 19.973 66.2583C29.9942 66.2583 38.3125 58.8265 39.7308 49.1761H24.3767C22.76 49.1761 21.447 47.8654 21.447 46.2464Z" fill="#FF9800"/>
<path d="M98.5641 43.0397L88.6971 34.2292C87.4901 33.1527 85.6384 33.2565 84.5604 34.4635C83.4846 35.6704 83.5876 37.5236 84.7946 38.6001L90.078 43.3166H39.7308C39.8727 44.2718 39.9452 45.2507 39.9452 46.2463C39.9452 47.2404 39.8727 48.2193 39.7308 49.176H90.078L84.7946 53.8932C83.5876 54.9713 83.4846 56.8229 84.5604 58.0299C85.141 58.6784 85.9413 59.008 86.7477 59.008C87.4413 59.008 88.1386 58.7638 88.6971 58.2641L98.5641 49.4552C99.4667 48.6488 99.9886 47.4967 100 46.2852V46.2074C99.9886 44.9981 99.4667 43.8461 98.5641 43.0397Z" fill="#4EB8F4"/>
<path d="M58.7158 22.6548C58.7158 24.273 60.0273 25.5845 61.6455 25.5845H93.5791C95.1965 25.5845 96.5088 24.273 96.5088 22.6548C96.5088 21.0366 95.1965 19.7251 93.5791 19.7251H61.6455C60.0273 19.7251 58.7158 21.0366 58.7158 22.6548Z" fill="#4EB8F4"/>
<path d="M40.5014 15.8203H65.2107C66.8289 15.8203 68.1404 14.5088 68.1404 12.8906C68.1404 11.2724 66.8289 9.96094 65.2107 9.96094H40.5014C38.8832 9.96094 37.5717 11.2724 37.5717 12.8906C37.5717 14.5088 38.8832 15.8203 40.5014 15.8203Z" fill="#4EB8F4"/>
<path d="M74.9229 15.8203H79.493C81.1104 15.8203 82.4226 14.5088 82.4226 12.8906C82.4226 11.2724 81.1104 9.96094 79.493 9.96094H74.9229C73.3047 9.96094 71.9933 11.2724 71.9933 12.8906C71.9933 14.5088 73.3047 15.8203 74.9229 15.8203Z" fill="#4EB8F4"/>
<path d="M41.8594 25.3876C40.2412 25.3876 38.9297 26.6998 38.9297 28.3173C38.9297 29.9355 40.2412 31.2469 41.8594 31.2469H46.4294C48.0476 31.2469 49.3591 29.9355 49.3591 28.3173C49.3591 26.6998 48.0476 25.3876 46.4294 25.3876H41.8594Z" fill="#4EB8F4"/>
<path d="M50.3426 60.5393C51.96 60.5393 53.2722 59.2278 53.2722 57.6096C53.2722 55.9914 51.96 54.6799 50.3426 54.6799H45.7718C44.1544 54.6799 42.8421 55.9914 42.8421 57.6096C42.8421 59.2278 44.1544 60.5393 45.7718 60.5393H50.3426Z" fill="#4EB8F4"/>
<path d="M34.8427 78.5166H18.5341C16.9159 78.5166 15.6044 79.8289 15.6044 81.4463C15.6044 83.0645 16.9159 84.376 18.5341 84.376H34.8427C36.4609 84.376 37.7724 83.0645 37.7724 81.4463C37.7724 79.8289 36.4609 78.5166 34.8427 78.5166Z" fill="#4EB8F4"/>
<path d="M49.1249 78.5166H44.5541C42.9367 78.5166 41.6245 79.8289 41.6245 81.4463C41.6245 83.0645 42.9367 84.376 44.5541 84.376H49.1249C50.7423 84.376 52.0546 83.0645 52.0546 81.4463C52.0546 79.8289 50.7431 78.5166 49.1249 78.5166Z" fill="#4EB8F4"/>
<path d="M71.6118 68.7522H33.2306C31.6124 68.7522 30.3009 70.0645 30.3009 71.6819C30.3009 73.3001 31.6124 74.6116 33.2306 74.6116H71.6118C73.23 74.6116 74.5415 73.3001 74.5415 71.6819C74.5415 70.0645 73.23 68.7522 71.6118 68.7522Z" fill="#4EB8F4"/>
<path d="M70.2538 84.1797H65.6837C64.0663 84.1797 62.7541 85.4912 62.7541 87.1094C62.7541 88.7276 64.0663 90.0391 65.6837 90.0391H70.2538C71.8719 90.0391 73.1834 88.7276 73.1834 87.1094C73.1834 85.4912 71.8719 84.1797 70.2538 84.1797Z" fill="#4EB8F4"/>
</svg>
