<svg width="150" height="148" viewBox="0 0 150 148" fill="none" xmlns="http://www.w3.org/2000/svg">
<path d="M75 147.222C116.421 147.222 150 114.278 150 73.641C150 33.0036 116.421 0.0604858 75 0.0604858C33.5786 0.0604858 0 33.0036 0 73.641C0 114.278 33.5786 147.222 75 147.222Z" fill="white"/>
<path d="M148.156 89.9184C140.605 122.724 110.721 147.223 75.0001 147.223C74.4121 147.223 73.8277 147.215 73.2426 147.201L34.8774 109.562L58.8295 86.878L41.1931 69.5753L80.8573 31.8969L98.5526 49.2573L102.704 45.3261L148.155 89.9172L148.156 89.9184Z" fill="white"/>
<path d="M49.8048 72.5374H100.198C112.258 72.5374 122.035 82.1288 122.035 93.9608C122.035 105.793 112.258 115.384 100.198 115.384H49.8048C37.7446 115.384 27.9678 105.793 27.9678 93.9608C27.9678 82.1288 37.7446 72.5374 49.8048 72.5374Z" fill="#4EB8F4"/>
<path d="M114.342 77.6729C119.042 81.6104 122.036 87.4592 122.036 93.9614C122.036 105.745 112.209 115.385 100.199 115.385H49.8036C44.0453 115.385 38.7896 113.169 34.8784 109.562L114.341 77.6726H114.342V77.6729Z" fill="#34ABEE"/>
<path d="M97.6777 78.0988H52.3242V107.659H97.6777V78.0988Z" fill="#F7F7F8"/>
<path d="M80.4615 110.104H86.4451C86.9077 110.104 87.2851 110.474 87.2851 110.928V112.628C87.2851 113.08 86.9077 113.452 86.4451 113.452H80.4615C79.9989 113.452 79.6216 113.081 79.6216 112.628V110.928C79.6216 110.474 79.9989 110.104 80.4615 110.104ZM90.8546 110.104H96.8391C97.3017 110.104 97.679 110.474 97.679 110.928V112.628C97.679 113.08 97.3017 113.452 96.8391 113.452H90.8546C90.3932 113.452 90.0147 113.081 90.0147 112.628V110.928C90.0149 110.474 90.3932 110.104 90.8546 110.104Z" fill="white"/>
<path d="M112.089 91.5145H114.871C115.478 91.5145 115.973 92.0003 115.973 92.5958V95.325C115.973 95.9194 115.478 96.4062 114.871 96.4062H112.089C111.484 96.4062 110.987 95.9194 110.987 95.325V92.5958C110.987 92.0003 111.483 91.5145 112.089 91.5145Z" fill="#FF9800"/>
<path d="M105.409 89.8541V87.125C105.409 86.5297 105.905 86.0436 106.511 86.0436H109.293C109.899 86.0436 110.395 86.5294 110.395 87.125V89.8541C110.395 90.4485 109.9 90.9354 109.293 90.9354H106.511C105.905 90.9357 105.409 90.4488 105.409 89.8541Z" fill="#FF9800"/>
<path d="M105.409 100.797V98.0682C105.409 97.4729 105.905 96.9869 106.511 96.9869H109.293C109.899 96.9869 110.395 97.4726 110.395 98.0682V100.797C110.395 101.393 109.9 101.879 109.293 101.879H106.511C105.905 101.879 105.409 101.393 105.409 100.797Z" fill="#FF9800"/>
<path d="M100.933 91.5145H103.715C104.322 91.5145 104.817 92.0003 104.817 92.5958V95.325C104.817 95.9194 104.322 96.4062 103.715 96.4062H100.933C100.326 96.4062 99.8311 95.9194 99.8311 95.325V92.5958C99.8311 92.0003 100.326 91.5145 100.933 91.5145Z" fill="#FF9800"/>
<path d="M112.39 92.8923L114.568 93.9609L112.39 95.0287V92.8923Z" fill="#727271"/>
<path d="M103.413 92.8923L101.235 93.9609L103.413 95.0287V92.8923Z" fill="#727271"/>
<path d="M106.812 98.3647L107.9 100.501L108.989 98.3647H106.812Z" fill="#727271"/>
<path d="M106.812 89.5576L107.9 87.4208L108.989 89.5576H106.812Z" fill="#727271"/>
<path d="M41.194 69.5766L41.1709 59.3456L49.8268 58.4772C50.3998 56.3747 51.2512 54.3288 52.3777 52.3978L46.8546 45.8028L55.2216 37.5591L61.9673 42.9489C63.9314 41.8346 66.0121 40.9901 68.1523 40.4196L69.0016 31.9235L80.8597 31.8996L81.7459 40.3905C83.889 40.9519 85.9724 41.786 87.9426 42.8932L94.664 37.4734L103.067 45.6812L97.5729 52.2993C98.7097 54.2262 99.5695 56.2675 100.15 58.3683L108.81 59.1996L108.835 69.5803H89.9339C91.9476 63.8887 90.6535 57.5736 86.1429 53.1679C72.8056 40.1428 54.5694 54.678 59.7463 69.5803H50.4719L41.1955 69.5772H41.1943V69.5766H41.194Z" fill="#595959"/>
<path d="M74.9292 31.9098L80.8581 31.8983L81.7443 40.3892C83.8875 40.9506 85.9708 41.7847 87.941 42.8919L94.6624 37.4721L103.065 45.6799L97.5714 52.298C98.7081 54.2249 99.568 56.2662 100.149 58.367L108.809 59.1983L108.833 69.579H89.9324L90.0115 69.356L90.02 69.3344L90.0947 69.1102L90.1073 69.0732L90.1893 68.8093L90.2661 68.5446L90.3124 68.3825L90.3408 68.2802L90.4093 68.0134L90.4082 68.0123L90.4715 67.7444L90.4946 67.6432L90.5303 67.4779L90.5377 67.4409L90.5839 67.2083L90.6335 66.9384C90.6651 66.7588 90.6923 66.5777 90.7178 66.3978L90.7495 66.1526L90.7527 66.1267L90.7823 65.8548L90.8022 65.6398L90.8128 65.518L90.8274 65.3185L90.8286 65.3093L90.8432 65.0374L90.8453 65.025L90.8558 64.7643L90.8591 64.6476L90.8611 64.4907V64.4505V64.2191L90.8579 63.946L90.8567 63.8954L90.8494 63.6732L90.8429 63.5183L90.8365 63.4016L90.8195 63.1421L90.8183 63.1277L90.794 62.8558L90.7867 62.767L90.7668 62.5842L90.7448 62.391L90.7354 62.3126L90.6964 62.0415C90.6563 61.7696 90.61 61.5009 90.5552 61.2321L90.4984 60.9642L90.4846 60.9013L90.4372 60.6978L90.4234 60.642L90.3001 60.1655L90.1665 59.7096L90.0792 59.4377L90.0592 59.3748L89.9687 59.1132L89.9561 59.0761L89.8729 58.8531L89.8656 58.8335L89.7909 58.6392L89.7739 58.5947L89.6792 58.3621L89.6675 58.3374L89.558 58.0819L89.5263 58.0086L89.4443 57.8278L89.3652 57.6605L89.3242 57.5757L89.1999 57.3245L89.1958 57.3142L89.0725 57.0765L89.0157 56.9701L89.0019 56.9463L88.8472 56.666L88.8282 56.631L88.8009 56.5835L88.6577 56.3404L88.6292 56.2938L88.5091 56.0975L88.469 56.0377L88.3752 55.8911L88.3553 55.8601L88.2059 55.6347L88.1974 55.6224L88.0351 55.3878L87.9803 55.3102L87.9539 55.2731L87.7655 55.0176L87.7465 54.9897L87.6958 54.9236L87.5189 54.6974L87.4345 54.5919L87.2502 54.3657L87.247 54.3626L87.15 54.2479L86.9868 54.0579L86.9584 54.0269L86.7624 53.8099L86.7149 53.7581L86.7023 53.7458C86.5233 53.5515 86.3367 53.36 86.1451 53.1732C83.0422 50.1425 78.9895 48.6186 74.9321 48.5959V31.915V31.9138L74.9292 31.9098Z" fill="#777373"/>
<path d="M71.6691 66.1633C68.818 64.9176 66.8202 62.1235 66.7971 58.8632C66.7751 55.8087 68.4904 53.1394 71.0349 51.7586L71.0812 58.1688L78.9108 58.115L78.8624 51.7057C81.4291 53.0506 83.1814 55.6958 83.2057 58.7505C83.2268 62.012 81.2721 64.8339 78.4379 66.117C78.4663 66.2906 78.4854 66.4737 78.4854 66.6482L78.5053 72.5381H71.6492L71.6293 66.6956C71.6293 66.516 71.641 66.3378 71.6694 66.1644L71.6691 66.1633Z" fill="#FF9800"/>
<path d="M40.3067 86.446H42.0792C43.0064 86.446 43.7652 87.1905 43.7652 88.1002V90.823H46.5405C47.4678 90.823 48.2266 91.5674 48.2266 92.4772V94.2161C48.2266 95.1258 47.4678 95.8702 46.5405 95.8702H43.7652V98.5942C43.7652 99.5039 43.0064 100.248 42.0792 100.248H40.3067C39.3795 100.248 38.6207 99.5039 38.6207 98.5942V95.8702H35.8442C34.917 95.8702 34.1582 95.1258 34.1582 94.2161V92.4772C34.1582 91.5674 34.917 90.823 35.8442 90.823H38.6207V88.1002C38.6213 87.1905 39.3798 86.446 40.3067 86.446Z" fill="#FF9800"/>
</svg>
