<svg width="52" height="52" viewBox="0 0 52 52" fill="none" xmlns="http://www.w3.org/2000/svg">
<path d="M44.1979 4.38544L39.8125 8.77087V1.52344C39.8125 0.681976 39.1305 0 38.2891 0H10.6641C10.261 0 9.87061 0.162262 9.58655 0.44632L0.44632 9.58655C0.157501 9.87537 0 10.2681 0 10.6641V44.3828C0 48.583 3.41702 52 7.61719 52H38.2891C42.4892 52 45.9062 48.583 45.9062 44.3828V41.3359C45.9062 40.4945 45.2243 39.8125 44.3828 39.8125H39.8125V21.6979L50.6614 10.8489C52.4431 9.06683 52.4431 6.16754 50.6614 4.38544C48.8754 2.59937 45.9844 2.59937 44.1979 4.38544ZM9.14062 5.20151V9.14062H5.20151L9.14062 5.20151ZM12.1875 41.3359V44.3828C12.1875 46.9028 10.1372 48.9531 7.61719 48.9531C5.09717 48.9531 3.04688 46.9028 3.04688 44.3828C3.04688 43.8238 3.04688 13.4162 3.04688 12.1875H10.6641C11.5055 12.1875 12.1875 11.5055 12.1875 10.6641V3.04688H36.7656V11.8177L33.349 15.2344H7.61719C6.77573 15.2344 6.09375 15.9164 6.09375 16.7578C6.09375 17.5993 6.77573 18.2812 7.61719 18.2812H30.3021L27.2552 21.3281H7.61719C6.77573 21.3281 6.09375 22.0101 6.09375 22.8516C6.09375 23.693 6.77573 24.375 7.61719 24.375H24.2084L22.5766 26.0067C22.4096 26.1742 22.2834 26.3777 22.2089 26.6022L21.9355 27.4219H7.61719C6.77573 27.4219 6.09375 28.1039 6.09375 28.9453C6.09375 29.7868 6.77573 30.4688 7.61719 30.4688H20.9199L20.1681 32.7245L19.3766 33.5156H7.61719C6.77573 33.5156 6.09375 34.1976 6.09375 35.0391C6.09375 35.8805 6.77573 36.5625 7.61719 36.5625H19.7964C20.2863 36.5625 20.685 36.5165 21.0849 36.1162L22.3223 34.8788L28.4446 32.838C28.6688 32.7634 28.8727 32.6373 29.0401 32.4702L36.7656 24.7448V39.8125H13.7109C12.8695 39.8125 12.1875 40.4945 12.1875 41.3359ZM28.7021 28.499L27.1398 30.0613L23.9081 31.1388L24.9856 27.9071L26.5475 26.3448L28.7021 28.499ZM42.8594 42.8594V44.3828C42.8594 46.9028 40.8091 48.9531 38.2891 48.9531H13.7074C14.6655 47.6792 15.2344 46.0959 15.2344 44.3828V42.8594H42.8594ZM45.2747 11.9265L30.8568 26.3448L28.7021 24.1901L43.12 9.77222L45.2747 11.9265ZM48.5068 8.69431L47.4289 9.77222L45.2747 7.61798L46.3522 6.54007C46.9465 5.94617 47.9129 5.94617 48.5068 6.54007C49.1007 7.13397 49.1007 8.1004 48.5068 8.69431Z" fill="#4EB8F4"/>
</svg>
