<svg width="114" height="44" viewBox="0 0 114 44" fill="none" xmlns="http://www.w3.org/2000/svg">
<g clip-path="url(#clip0)">
<path d="M19.1338 0H13.2498C7.36567 0 2.30276 4.37617 2.30276 12.8548C2.30276 17.9148 4.7657 21.7439 9.00777 23.6584L1.07107 37.8809C0.797458 38.2913 1.07107 38.7014 1.48171 38.7014H5.17634C5.44995 38.7014 5.72356 38.5647 5.86037 38.2913L13.113 24.3422H15.7128V38.2913C15.7128 38.428 15.8498 38.7014 16.1234 38.7014H19.4076C19.6812 38.7014 19.8181 38.5647 19.8181 38.2913V0.546884C19.6812 0.136721 19.5444 0 19.1338 0ZM15.7128 21.0603H13.5235C4.08167 21.0603 4.7657 3.28218 13.113 3.28218H15.8498V21.0603H15.7128Z" fill="#FF0000"/>
<path d="M38.8381 12.8548H35.5542C35.2805 12.8548 35.1435 12.9916 35.1435 13.2652V23.1113H29.1225V13.2652C29.1225 12.9918 28.9857 12.8548 28.7121 12.8548H25.5647C25.2911 12.8548 25.1543 12.9916 25.1543 13.2652V38.2913C25.1543 38.5647 25.2911 38.7014 25.5647 38.7014H28.8489C29.1225 38.7014 29.2596 38.5647 29.2596 38.2913V26.2568H35.2803V38.2913C35.2803 38.5647 35.4171 38.7014 35.691 38.7014H38.975C39.2486 38.7014 39.3856 38.5647 39.3856 38.2913V13.2652C39.2488 12.9918 39.112 12.8548 38.8384 12.8548H38.8381ZM112.731 35.2828C112.731 35.146 112.595 35.146 112.458 35.146C111.089 35.146 102.742 39.112 102.742 25.9835C102.742 20.24 104.931 12.1714 110.131 16.9578C110.268 17.0945 110.405 17.0945 110.542 17.0945C110.679 17.0945 110.815 16.9578 110.952 16.6843L112.321 14.3594C112.458 14.2227 112.458 14.086 112.458 13.9493C112.458 13.6758 112.184 13.5389 111.91 13.4022C102.879 8.88927 98.2265 17.2312 98.2265 26.9408C98.2265 39.5222 107.395 41.3 112.594 37.471C112.868 37.3342 112.868 37.0606 112.868 36.9241L112.731 35.2828ZM90.2898 24.4792L96.5844 13.1287C96.7212 12.9918 96.5844 12.7183 96.4475 12.7183H93.3001C92.3423 12.7183 92.0687 12.9918 91.7948 13.6756C91.5212 14.3594 86.8687 24.069 86.3213 24.4792V13.1285C86.3213 12.9916 86.1845 12.7181 86.0477 12.7181H82.6267C82.4899 12.7181 82.3531 12.8548 82.3531 13.1285V38.2913C82.3531 38.428 82.4899 38.7014 82.6267 38.7014H86.0477C86.3213 38.7014 86.3213 38.5647 86.3213 38.2913V25.2995C86.7319 25.5729 92.4791 37.4707 92.6159 37.8809C92.8895 38.4278 93.437 38.7014 94.1212 38.7014H97.5422C97.8158 38.7014 97.8158 38.5647 97.679 38.2913L90.2898 24.4792ZM60.3219 35.4197H59.6376C58.8168 35.4197 58.6798 35.1463 58.6798 34.4622V13.1285C58.6798 12.855 58.543 12.7181 58.4062 12.7181H47.8695C47.5959 12.7181 47.4591 12.8548 47.4591 13.1285C47.4591 18.8721 47.5959 28.445 43.7642 35.4195H42.6698C42.3962 35.4195 42.2592 35.5562 42.2592 35.8296V43.351C42.2592 43.6245 42.5328 43.7614 42.6698 43.7614H45.1327C45.68 43.7614 45.9538 43.351 45.9538 42.9409V38.7014H57.0379V43.351C57.0379 43.488 57.1747 43.7614 57.4483 43.7614H60.1851C60.4587 43.7614 60.8693 43.488 60.8693 42.9409V35.8296C60.7325 35.5562 60.5957 35.4195 60.3221 35.4195L60.3219 35.4197ZM54.5747 35.4197H46.9114C49.101 31.8641 51.1535 26.1205 51.1535 16.0005H54.5745V35.4197H54.5747ZM70.9953 12.1714C65.385 12.1714 62.785 19.1457 62.785 26.8039C62.785 39.3855 71.5428 41.3 77.5635 37.6077C77.8372 37.471 77.8372 37.3342 77.8372 37.1975L77.4267 35.4197C77.4267 35.2828 77.2899 35.1463 77.0163 35.1463C74.8268 35.1463 67.1639 38.9751 67.1639 26.5306C69.9007 26.8041 69.9007 26.8041 78.111 26.8041C77.9742 20.5134 77.2902 12.1714 70.9953 12.1714ZM67.3009 23.6582C67.3009 13.6752 73.8691 11.7606 73.8691 23.3848C70.9956 23.3848 69.7641 23.3848 67.3009 23.6582Z" fill="black"/>
</g>
<defs>
<clipPath id="clip0">
<rect width="112.122" height="43.9695" fill="white" transform="translate(0.908203)"/>
</clipPath>
</defs>
</svg>
